M48
;Layer_Color=9474304
;FILE_FORMAT=2:4
INCH,LZ
;TYPE=PLATED
T1F00S00C0.0118
T2F00S00C0.0394
;TYPE=NON_PLATED
T3F00S00C0.0197
T4F00S00C0.0276
%
T01
X001083Y001181
X001969Y000984
X002559Y000295
X003031Y001673
X002559Y00253
Y002785
X002362Y002657
X002165Y00253
Y002785
X001083Y002657
X000295Y002756
X000197Y003937
Y004823
Y005807
Y006791
X001181Y006988
X00128Y005906
X002461Y005551
X003346Y005709
Y005315
Y005
X003248Y006339
X004921Y006201
X005315
Y006594
X005118Y006398
X004921Y006594
X005118Y005315
X005512
X005413Y004793
X005906Y004528
X005807Y004035
X006594
X007382
X007283Y004823
X006693
X006988Y00561
X007382
X007185Y006299
X006693
Y006693
X007579
X008661Y006791
X009843Y00689
Y005906
Y004921
Y003937
X009055Y004035
X00876Y00374
X008465
X008169
X008465Y002461
X007579
Y001378
X008563Y000984
X008661Y000413
X008858Y001969
X00935Y00187
X009843Y002362
X009055Y004724
X008661Y005118
X006299Y005906
X004724Y005315
Y004626
X004232Y004331
X003976Y00311
X005531Y003248
X006201
X006594
X006988
X002657Y004232
X001768Y004032
X001476Y004232
X002461Y007126
X002264Y00748
X002461Y007913
X002854Y007677
Y008701
X003248Y008661
X003642
X004232Y008465
X004035Y007776
X004232Y007382
X005709Y007185
X006693
X006988Y007776
X007579Y007913
Y007126
X008661Y007579
X008957Y008169
X00935Y007874
X009843
Y008858
X009146
X008661Y008957
Y009843
X007776
X007579Y009055
Y008701
X006791Y00935
X006102Y008661
X006004Y008169
X006398
X005315
X004724Y008858
Y009744
X003642
X002461
Y009055
Y010827
X001476
X000197
Y009744
Y00876
Y007776
X003445Y010827
X004429
X005413
X006398
X007382
X008563
X009843
Y009843
T02
X000539Y003354
Y004354
Y005354
Y006354
X009539
Y005354
Y004354
Y003354
Y007354
Y008354
Y009354
Y010354
X000539
Y009354
Y008354
Y007354
T03
X004252Y001929
X005827
T04
X001378Y000846
Y001516
M30
