G04*
G04 #@! TF.GenerationSoftware,Altium Limited,Altium Designer,19.1.9 (167)*
G04*
G04 Layer_Physical_Order=2*
G04 Layer_Color=16711680*
%FSLAX24Y24*%
%MOIN*%
G70*
G01*
G75*
%ADD10C,0.0059*%
%ADD11C,0.0079*%
%ADD12C,0.0098*%
%ADD30R,0.0315X0.0315*%
G04:AMPARAMS|DCode=32|XSize=23.6mil|YSize=17.7mil|CornerRadius=4.4mil|HoleSize=0mil|Usage=FLASHONLY|Rotation=270.000|XOffset=0mil|YOffset=0mil|HoleType=Round|Shape=RoundedRectangle|*
%AMROUNDEDRECTD32*
21,1,0.0236,0.0089,0,0,270.0*
21,1,0.0148,0.0177,0,0,270.0*
1,1,0.0089,-0.0044,-0.0074*
1,1,0.0089,-0.0044,0.0074*
1,1,0.0089,0.0044,0.0074*
1,1,0.0089,0.0044,-0.0074*
%
%ADD32ROUNDEDRECTD32*%
G04:AMPARAMS|DCode=35|XSize=23.6mil|YSize=17.7mil|CornerRadius=4.4mil|HoleSize=0mil|Usage=FLASHONLY|Rotation=0.000|XOffset=0mil|YOffset=0mil|HoleType=Round|Shape=RoundedRectangle|*
%AMROUNDEDRECTD35*
21,1,0.0236,0.0089,0,0,0.0*
21,1,0.0148,0.0177,0,0,0.0*
1,1,0.0089,0.0074,-0.0044*
1,1,0.0089,-0.0074,-0.0044*
1,1,0.0089,-0.0074,0.0044*
1,1,0.0089,0.0074,0.0044*
%
%ADD35ROUNDEDRECTD35*%
%ADD42C,0.0157*%
%ADD43C,0.0118*%
%ADD44C,0.0039*%
%ADD45C,0.0591*%
%ADD46R,0.0591X0.0591*%
%ADD47C,0.0236*%
%ADD48R,0.0709X0.0709*%
G04:AMPARAMS|DCode=49|XSize=11.8mil|YSize=27.6mil|CornerRadius=3mil|HoleSize=0mil|Usage=FLASHONLY|Rotation=0.000|XOffset=0mil|YOffset=0mil|HoleType=Round|Shape=RoundedRectangle|*
%AMROUNDEDRECTD49*
21,1,0.0118,0.0217,0,0,0.0*
21,1,0.0059,0.0276,0,0,0.0*
1,1,0.0059,0.0030,-0.0108*
1,1,0.0059,-0.0030,-0.0108*
1,1,0.0059,-0.0030,0.0108*
1,1,0.0059,0.0030,0.0108*
%
%ADD49ROUNDEDRECTD49*%
G04:AMPARAMS|DCode=50|XSize=13.8mil|YSize=13.8mil|CornerRadius=3.4mil|HoleSize=0mil|Usage=FLASHONLY|Rotation=0.000|XOffset=0mil|YOffset=0mil|HoleType=Round|Shape=RoundedRectangle|*
%AMROUNDEDRECTD50*
21,1,0.0138,0.0069,0,0,0.0*
21,1,0.0069,0.0138,0,0,0.0*
1,1,0.0069,0.0034,-0.0034*
1,1,0.0069,-0.0034,-0.0034*
1,1,0.0069,-0.0034,0.0034*
1,1,0.0069,0.0034,0.0034*
%
%ADD50ROUNDEDRECTD50*%
G04:AMPARAMS|DCode=51|XSize=11.8mil|YSize=27.6mil|CornerRadius=3mil|HoleSize=0mil|Usage=FLASHONLY|Rotation=270.000|XOffset=0mil|YOffset=0mil|HoleType=Round|Shape=RoundedRectangle|*
%AMROUNDEDRECTD51*
21,1,0.0118,0.0217,0,0,270.0*
21,1,0.0059,0.0276,0,0,270.0*
1,1,0.0059,-0.0108,-0.0030*
1,1,0.0059,-0.0108,0.0030*
1,1,0.0059,0.0108,0.0030*
1,1,0.0059,0.0108,-0.0030*
%
%ADD51ROUNDEDRECTD51*%
G04:AMPARAMS|DCode=52|XSize=13.8mil|YSize=13.8mil|CornerRadius=3.4mil|HoleSize=0mil|Usage=FLASHONLY|Rotation=270.000|XOffset=0mil|YOffset=0mil|HoleType=Round|Shape=RoundedRectangle|*
%AMROUNDEDRECTD52*
21,1,0.0138,0.0069,0,0,270.0*
21,1,0.0069,0.0138,0,0,270.0*
1,1,0.0069,-0.0034,-0.0034*
1,1,0.0069,-0.0034,0.0034*
1,1,0.0069,0.0034,0.0034*
1,1,0.0069,0.0034,-0.0034*
%
%ADD52ROUNDEDRECTD52*%
%ADD53R,0.0091X0.0325*%
%ADD54R,0.0591X0.0689*%
G04:AMPARAMS|DCode=55|XSize=12.2mil|YSize=23.6mil|CornerRadius=3.1mil|HoleSize=0mil|Usage=FLASHONLY|Rotation=270.000|XOffset=0mil|YOffset=0mil|HoleType=Round|Shape=RoundedRectangle|*
%AMROUNDEDRECTD55*
21,1,0.0122,0.0175,0,0,270.0*
21,1,0.0061,0.0236,0,0,270.0*
1,1,0.0061,-0.0088,-0.0031*
1,1,0.0061,-0.0088,0.0031*
1,1,0.0061,0.0088,0.0031*
1,1,0.0061,0.0088,-0.0031*
%
%ADD55ROUNDEDRECTD55*%
%ADD56R,0.0098X0.0433*%
%ADD57R,0.0669X0.0591*%
G36*
X2283Y11811D02*
Y11417D01*
X9998D01*
Y80D01*
X7041D01*
X6395Y726D01*
X6395Y726D01*
X6369Y743D01*
X6339Y750D01*
X3740D01*
X3709Y743D01*
X3683Y726D01*
X3038Y80D01*
X907D01*
Y1870D01*
X901Y1901D01*
X884Y1927D01*
X80Y2730D01*
Y12205D01*
X1890D01*
X2283Y11811D01*
D02*
G37*
%LPC*%
G36*
X9539Y10732D02*
X9442Y10719D01*
X9351Y10681D01*
X9273Y10621D01*
X9213Y10543D01*
X9175Y10452D01*
X9162Y10354D01*
X9175Y10257D01*
X9213Y10166D01*
X9273Y10088D01*
X9351Y10028D01*
X9442Y9990D01*
X9539Y9977D01*
X9637Y9990D01*
X9728Y10028D01*
X9806Y10088D01*
X9866Y10166D01*
X9904Y10257D01*
X9917Y10354D01*
X9904Y10452D01*
X9866Y10543D01*
X9806Y10621D01*
X9728Y10681D01*
X9637Y10719D01*
X9539Y10732D01*
D02*
G37*
G36*
X539D02*
X442Y10719D01*
X351Y10681D01*
X273Y10621D01*
X213Y10543D01*
X175Y10452D01*
X162Y10354D01*
X175Y10257D01*
X213Y10166D01*
X273Y10088D01*
X351Y10028D01*
X442Y9990D01*
X539Y9977D01*
X637Y9990D01*
X728Y10028D01*
X806Y10088D01*
X866Y10166D01*
X904Y10257D01*
X917Y10354D01*
X904Y10452D01*
X866Y10543D01*
X806Y10621D01*
X728Y10681D01*
X637Y10719D01*
X539Y10732D01*
D02*
G37*
G36*
X9539Y9732D02*
X9442Y9719D01*
X9351Y9681D01*
X9273Y9621D01*
X9213Y9543D01*
X9175Y9452D01*
X9162Y9354D01*
X9175Y9257D01*
X9213Y9166D01*
X9273Y9088D01*
X9351Y9028D01*
X9442Y8990D01*
X9539Y8977D01*
X9637Y8990D01*
X9728Y9028D01*
X9806Y9088D01*
X9866Y9166D01*
X9904Y9257D01*
X9917Y9354D01*
X9904Y9452D01*
X9866Y9543D01*
X9806Y9621D01*
X9728Y9681D01*
X9637Y9719D01*
X9539Y9732D01*
D02*
G37*
G36*
X1949Y8917D02*
X1818D01*
Y8883D01*
X1828Y8835D01*
X1855Y8794D01*
X1896Y8767D01*
X1944Y8757D01*
X1949D01*
Y8917D01*
D02*
G37*
G36*
X9539Y8732D02*
X9442Y8719D01*
X9351Y8681D01*
X9273Y8621D01*
X9265Y8611D01*
X9241Y8588D01*
X9185Y8537D01*
X9161Y8519D01*
X9138Y8503D01*
X9118Y8491D01*
X9101Y8483D01*
X9087Y8477D01*
X9076Y8475D01*
X9075Y8475D01*
X8999D01*
X8999Y8476D01*
X8972Y8517D01*
X8931Y8544D01*
X8883Y8554D01*
X8794D01*
X8746Y8544D01*
X8706Y8517D01*
X8695Y8501D01*
X8628D01*
X8617Y8517D01*
X8577Y8544D01*
X8529Y8554D01*
X8440D01*
X8392Y8544D01*
X8351Y8517D01*
X8324Y8476D01*
X8315Y8428D01*
Y8281D01*
X8324Y8233D01*
X8339Y8210D01*
X8339Y8209D01*
X8340Y8208D01*
X8351Y8192D01*
X8360Y8186D01*
X8360Y8186D01*
X8361Y8185D01*
X8362Y8183D01*
X8363Y8179D01*
X8364Y8173D01*
X8364Y8172D01*
Y7537D01*
X8364Y7535D01*
X8363Y7530D01*
X8362Y7526D01*
X8361Y7524D01*
X8360Y7523D01*
X8360Y7522D01*
X8351Y7517D01*
X8340Y7500D01*
X8339Y7499D01*
X8339Y7499D01*
X8324Y7476D01*
X8315Y7428D01*
Y7281D01*
X8324Y7233D01*
X8339Y7210D01*
X8339Y7209D01*
X8340Y7208D01*
X8351Y7192D01*
X8360Y7186D01*
X8360Y7186D01*
X8361Y7185D01*
X8362Y7183D01*
X8363Y7179D01*
X8364Y7173D01*
X8364Y7172D01*
Y7067D01*
X8364Y7067D01*
X8373Y7021D01*
X8399Y6982D01*
X8541Y6840D01*
Y6420D01*
X7542D01*
X7534Y6420D01*
X7532Y6420D01*
X7528Y6421D01*
X7525Y6423D01*
X7521Y6425D01*
X7517Y6427D01*
X7513Y6430D01*
X7510Y6433D01*
X7504Y6441D01*
X7439Y6485D01*
X7362Y6500D01*
X7285Y6485D01*
X7220Y6441D01*
X7177Y6376D01*
X7168Y6334D01*
X7155Y6320D01*
X6875Y6039D01*
X6840Y5987D01*
X6828Y5925D01*
X6771Y5918D01*
X6752D01*
X6702Y5908D01*
X6660Y5880D01*
X6502Y5722D01*
X6474Y5680D01*
X6464Y5630D01*
Y5603D01*
X6324D01*
X6276Y5593D01*
X6236Y5567D01*
X6231Y5566D01*
X6223Y5565D01*
X6208Y5564D01*
X6194D01*
X6178Y5565D01*
X6170Y5566D01*
X6166Y5567D01*
X6126Y5593D01*
X6078Y5603D01*
X5930D01*
X5882Y5593D01*
X5841Y5566D01*
X5840Y5564D01*
X5827D01*
X5777Y5554D01*
X5735Y5525D01*
X5293Y5084D01*
X5239Y5106D01*
Y6220D01*
X5239Y6220D01*
X5229Y6267D01*
X5203Y6306D01*
X5203Y6306D01*
X4337Y7172D01*
X4298Y7198D01*
X4252Y7207D01*
X4252Y7207D01*
X3199D01*
X3161Y7246D01*
X3158Y7249D01*
X3157Y7252D01*
X3155Y7256D01*
X3154Y7260D01*
X3153Y7264D01*
X3152Y7269D01*
X3151Y7273D01*
X3153Y7283D01*
X3138Y7360D01*
X3095Y7425D01*
X3030Y7469D01*
X2953Y7484D01*
X2876Y7469D01*
X2811Y7425D01*
X2791Y7396D01*
X2720D01*
X2701Y7425D01*
X2636Y7469D01*
X2568Y7482D01*
X2556Y7487D01*
X2512Y7535D01*
Y7539D01*
X2343D01*
Y7579D01*
X2303D01*
Y7778D01*
X2298D01*
X2250Y7768D01*
X2243Y7764D01*
X2169Y7777D01*
X2167Y7779D01*
X2164Y7783D01*
X2174Y7797D01*
X2189Y7874D01*
X2174Y7951D01*
X2130Y8016D01*
X2065Y8059D01*
X1988Y8075D01*
X1911Y8059D01*
X1846Y8016D01*
X1803Y7951D01*
X1787Y7874D01*
X1803Y7797D01*
X1846Y7732D01*
X1843Y7724D01*
X1843Y7723D01*
X1828Y7701D01*
X1818Y7653D01*
Y7505D01*
X1828Y7457D01*
X1843Y7434D01*
X1843Y7434D01*
X1844Y7433D01*
X1855Y7416D01*
X1864Y7411D01*
X1864Y7410D01*
X1865Y7409D01*
X1866Y7407D01*
X1867Y7403D01*
X1868Y7398D01*
X1868Y7396D01*
Y7382D01*
X1868Y7382D01*
X1877Y7336D01*
X1903Y7297D01*
X2553Y6647D01*
X2592Y6621D01*
X2638Y6612D01*
X2638Y6612D01*
X4084D01*
X4474Y6222D01*
X4462Y6151D01*
X4425Y6126D01*
X4421Y6120D01*
X4421Y6120D01*
X4418Y6119D01*
X4416Y6118D01*
X4412Y6116D01*
X4408Y6115D01*
X4403Y6115D01*
X2624D01*
X2620Y6115D01*
X2615Y6116D01*
X2612Y6118D01*
X2609Y6119D01*
X2607Y6120D01*
X2607Y6120D01*
X2603Y6126D01*
X2537Y6170D01*
X2461Y6185D01*
X2384Y6170D01*
X2319Y6126D01*
X2275Y6061D01*
X2260Y5984D01*
X2275Y5907D01*
X2319Y5842D01*
X2384Y5799D01*
X2461Y5784D01*
X2537Y5799D01*
X2603Y5842D01*
X2607Y5849D01*
X2607Y5849D01*
X2609Y5850D01*
X2612Y5851D01*
X2615Y5852D01*
X2620Y5853D01*
X2624Y5854D01*
X4403D01*
X4408Y5853D01*
X4412Y5852D01*
X4416Y5851D01*
X4418Y5850D01*
X4421Y5849D01*
X4421Y5849D01*
X4425Y5842D01*
X4490Y5799D01*
X4567Y5784D01*
X4624Y5795D01*
X4683Y5759D01*
Y4943D01*
X4570D01*
X4570Y4945D01*
X4542Y4985D01*
X4502Y5013D01*
X4454Y5022D01*
X4365D01*
X4317Y5013D01*
X4276Y4985D01*
X4266Y4970D01*
X4225D01*
X4176Y5000D01*
X4176Y5000D01*
X4166Y5046D01*
X4140Y5085D01*
X4140Y5085D01*
X4133Y5093D01*
X4138Y5118D01*
X4122Y5195D01*
X4079Y5260D01*
X4014Y5304D01*
X3937Y5319D01*
X3860Y5304D01*
X3795Y5260D01*
X3752Y5195D01*
X3736Y5118D01*
X3752Y5041D01*
X3795Y4976D01*
X3860Y4933D01*
X3861Y4932D01*
X3885Y4897D01*
Y4789D01*
X3852Y4742D01*
X3828Y4737D01*
X3677D01*
X3662Y4738D01*
X3656Y4739D01*
X3652Y4740D01*
X3649Y4741D01*
X3647Y4742D01*
X3647Y4742D01*
X3644Y4743D01*
X3643Y4744D01*
X3634Y4750D01*
X3616Y4753D01*
X3614Y4754D01*
X3613Y4754D01*
X3592Y4758D01*
X3416D01*
X3374Y4750D01*
X3338Y4725D01*
X3313Y4689D01*
X3305Y4647D01*
Y4586D01*
X3313Y4543D01*
X3338Y4507D01*
X3374Y4483D01*
X3416Y4474D01*
X3592D01*
X3613Y4479D01*
X3614Y4479D01*
X3616Y4479D01*
X3634Y4483D01*
X3643Y4489D01*
X3644Y4489D01*
X3647Y4491D01*
X3647Y4491D01*
X3649Y4491D01*
X3652Y4492D01*
X3656Y4493D01*
X3661Y4494D01*
X3681Y4496D01*
X3799D01*
X3852Y4442D01*
X3891Y4416D01*
X3937Y4407D01*
X3937Y4407D01*
X4123D01*
X4164Y4366D01*
Y4057D01*
X4129Y4028D01*
X3981D01*
X3933Y4018D01*
X3912Y4004D01*
X3911Y4004D01*
X3911Y4003D01*
X3893Y3991D01*
X3888Y3984D01*
X3886Y3983D01*
X3880Y3982D01*
X3874Y3980D01*
X3858Y3979D01*
X3670D01*
X3653Y3979D01*
X3636Y3981D01*
X3634Y3982D01*
X3592Y3990D01*
X3416D01*
X3374Y3982D01*
X3338Y3958D01*
X3313Y3922D01*
X3305Y3879D01*
Y3818D01*
X3313Y3775D01*
X3338Y3739D01*
X3374Y3715D01*
X3416Y3707D01*
X3443D01*
X3475Y3647D01*
X3456Y3620D01*
X3448Y3578D01*
X3435Y3564D01*
X3260Y3389D01*
X2310D01*
X2297Y3389D01*
X2296Y3425D01*
Y3692D01*
X2314Y3707D01*
X2489D01*
X2532Y3715D01*
X2568Y3739D01*
X2592Y3775D01*
X2601Y3818D01*
Y3879D01*
X2592Y3922D01*
X2568Y3958D01*
X2532Y3982D01*
X2489Y3990D01*
X2314D01*
X2271Y3982D01*
X2267Y3979D01*
X2234D01*
X2184Y3969D01*
X2142Y3941D01*
X2073Y3872D01*
X2045Y3829D01*
X2035Y3780D01*
Y3392D01*
X1948Y3389D01*
X1916D01*
X1904Y3389D01*
X1902Y3425D01*
Y3498D01*
X1903Y3505D01*
X1903Y3508D01*
X1934Y3528D01*
X1961Y3569D01*
X1971Y3617D01*
Y3706D01*
X1961Y3754D01*
X1934Y3794D01*
X1918Y3805D01*
Y3872D01*
X1934Y3883D01*
X1961Y3923D01*
X1971Y3971D01*
Y4060D01*
X1961Y4108D01*
X1934Y4149D01*
X1903Y4169D01*
X1903Y4173D01*
X1902Y4179D01*
Y4286D01*
X1903Y4292D01*
X1903Y4295D01*
X1933Y4315D01*
X1938Y4316D01*
X1946Y4317D01*
X1961Y4318D01*
X1993D01*
X2044Y4268D01*
X2086Y4240D01*
X2136Y4230D01*
X2235D01*
X2252Y4229D01*
X2270Y4228D01*
X2271Y4227D01*
X2314Y4218D01*
X2489D01*
X2532Y4227D01*
X2568Y4251D01*
X2592Y4287D01*
X2601Y4330D01*
Y4391D01*
X2592Y4433D01*
X2568Y4470D01*
X2532Y4494D01*
X2489Y4502D01*
X2314D01*
X2275Y4494D01*
X2221Y4491D01*
X2190D01*
X2139Y4541D01*
X2097Y4569D01*
X2047Y4579D01*
X1961D01*
X1946Y4580D01*
X1938Y4581D01*
X1933Y4582D01*
X1918Y4592D01*
Y4660D01*
X1934Y4670D01*
X1961Y4711D01*
X1971Y4759D01*
Y4764D01*
X1572D01*
Y4759D01*
X1582Y4711D01*
X1609Y4670D01*
X1625Y4660D01*
Y4592D01*
X1609Y4582D01*
X1594Y4560D01*
X1567Y4531D01*
X1508Y4552D01*
Y4921D01*
X1498Y4971D01*
X1470Y5014D01*
X1410Y5074D01*
Y5512D01*
X1400Y5562D01*
X1372Y5604D01*
X1115Y5861D01*
Y6909D01*
X1105Y6959D01*
X1076Y7002D01*
X956Y7122D01*
X949Y7133D01*
X942Y7147D01*
X935Y7165D01*
X929Y7187D01*
X924Y7212D01*
X920Y7241D01*
X915Y7312D01*
X915Y7342D01*
X917Y7354D01*
X904Y7452D01*
X866Y7543D01*
X806Y7621D01*
X728Y7681D01*
X637Y7719D01*
X539Y7732D01*
X442Y7719D01*
X351Y7681D01*
X273Y7621D01*
X213Y7543D01*
X175Y7452D01*
X162Y7354D01*
X175Y7257D01*
X213Y7166D01*
X273Y7088D01*
X351Y7028D01*
X442Y6990D01*
X539Y6977D01*
X552Y6979D01*
X582Y6978D01*
X653Y6974D01*
X681Y6970D01*
X707Y6964D01*
X729Y6958D01*
X747Y6952D01*
X761Y6945D01*
X771Y6938D01*
X854Y6855D01*
Y6648D01*
X795Y6630D01*
X728Y6681D01*
X637Y6719D01*
X539Y6732D01*
X442Y6719D01*
X351Y6681D01*
X273Y6621D01*
X213Y6543D01*
X175Y6452D01*
X162Y6354D01*
X175Y6257D01*
X213Y6166D01*
X273Y6088D01*
X351Y6028D01*
X380Y6016D01*
X383Y6013D01*
X392Y6008D01*
X395Y6006D01*
X398Y6004D01*
X400Y6001D01*
X402Y5998D01*
X404Y5994D01*
X406Y5987D01*
X408Y5979D01*
X409Y5973D01*
Y5957D01*
X419Y5907D01*
X447Y5864D01*
X523Y5789D01*
X501Y5727D01*
X442Y5719D01*
X351Y5681D01*
X273Y5621D01*
X213Y5543D01*
X175Y5452D01*
X162Y5354D01*
X175Y5257D01*
X213Y5166D01*
X273Y5088D01*
X351Y5028D01*
X442Y4990D01*
X539Y4977D01*
X637Y4990D01*
X728Y5028D01*
X806Y5088D01*
X866Y5166D01*
X893Y5231D01*
X952Y5219D01*
Y4888D01*
X952Y4884D01*
X951Y4879D01*
X949Y4876D01*
X948Y4873D01*
X947Y4871D01*
X947Y4871D01*
X941Y4866D01*
X897Y4801D01*
X882Y4724D01*
X897Y4648D01*
X941Y4582D01*
X1006Y4539D01*
X1083Y4524D01*
X1159Y4539D01*
X1188Y4558D01*
X1247Y4527D01*
Y4429D01*
X1257Y4379D01*
X1279Y4347D01*
X1276Y4331D01*
X1291Y4254D01*
X1299Y4242D01*
X1299Y4242D01*
X1270Y4179D01*
X1256Y4176D01*
X1216Y4149D01*
X1212Y4148D01*
X1203Y4147D01*
X1188Y4146D01*
X942D01*
X942Y4147D01*
X935Y4165D01*
X929Y4187D01*
X924Y4212D01*
X920Y4241D01*
X915Y4312D01*
X915Y4342D01*
X917Y4354D01*
X904Y4452D01*
X866Y4543D01*
X806Y4621D01*
X728Y4681D01*
X637Y4719D01*
X539Y4732D01*
X442Y4719D01*
X351Y4681D01*
X273Y4621D01*
X213Y4543D01*
X175Y4452D01*
X162Y4354D01*
X175Y4257D01*
X213Y4166D01*
X273Y4088D01*
X351Y4028D01*
X442Y3990D01*
X539Y3977D01*
X552Y3979D01*
X582Y3979D01*
X653Y3974D01*
X681Y3970D01*
X707Y3964D01*
X729Y3958D01*
X747Y3952D01*
X761Y3945D01*
X771Y3938D01*
X786Y3923D01*
X828Y3895D01*
X878Y3885D01*
X1188D01*
X1203Y3884D01*
X1212Y3883D01*
X1216Y3882D01*
X1231Y3872D01*
Y3805D01*
X1215Y3794D01*
X1188Y3754D01*
X1179Y3706D01*
Y3617D01*
X1188Y3569D01*
X1215Y3528D01*
X1256Y3501D01*
X1304Y3492D01*
X1452D01*
X1500Y3501D01*
X1540Y3528D01*
X1544Y3529D01*
X1552Y3530D01*
X1568Y3531D01*
X1582D01*
X1597Y3530D01*
X1605Y3529D01*
X1610Y3528D01*
X1640Y3508D01*
X1641Y3505D01*
X1641Y3498D01*
Y3392D01*
X1555Y3389D01*
X1169D01*
X1098Y3460D01*
X1098Y3460D01*
X1090Y3468D01*
X1038Y3503D01*
X976Y3515D01*
X976Y3515D01*
X941D01*
X934Y3515D01*
X918Y3518D01*
X913Y3519D01*
Y3728D01*
X165D01*
Y2980D01*
X913D01*
Y3107D01*
X972Y3131D01*
X989Y3115D01*
X989Y3115D01*
X1041Y3080D01*
X1102Y3068D01*
X1102Y3068D01*
X1627D01*
X1656Y3066D01*
X1660Y3066D01*
X1698Y3059D01*
X1845D01*
X1869Y3063D01*
X1989Y3068D01*
X2021D01*
X2050Y3066D01*
X2054Y3066D01*
X2092Y3059D01*
X2239D01*
X2263Y3063D01*
X2382Y3068D01*
X2516D01*
X2534Y3009D01*
X2516Y2996D01*
X2472Y2931D01*
X2457Y2854D01*
X2472Y2778D01*
X2516Y2712D01*
X2581Y2669D01*
X2657Y2654D01*
X2734Y2669D01*
X2799Y2712D01*
X2843Y2778D01*
X2858Y2854D01*
X2856Y2864D01*
X2891Y2911D01*
X4026D01*
Y2441D01*
X4203D01*
Y2421D01*
X4272D01*
Y2441D01*
X4282D01*
Y2736D01*
X4419D01*
Y2441D01*
X4429D01*
Y2421D01*
X4498D01*
Y2441D01*
X4990D01*
Y2421D01*
X5059D01*
Y2441D01*
X5069D01*
Y2736D01*
X5207D01*
Y2523D01*
X5206Y2521D01*
X5207Y2519D01*
X5206Y2518D01*
X5207Y2516D01*
Y2441D01*
X5217D01*
Y2421D01*
X5222D01*
X5223Y2415D01*
X5249Y2375D01*
X5584Y2041D01*
X5623Y2015D01*
X5630Y2013D01*
X5660Y1998D01*
X5646Y1929D01*
X5660Y1860D01*
X5699Y1801D01*
X5758Y1762D01*
X5827Y1749D01*
X5896Y1762D01*
X5954Y1801D01*
X5994Y1860D01*
X6007Y1929D01*
X6004Y1946D01*
X6052Y2006D01*
X7391D01*
X7513Y1884D01*
X7518Y1878D01*
X7526Y1868D01*
X7527Y1866D01*
Y1796D01*
X7537Y1748D01*
X7564Y1708D01*
X7605Y1680D01*
X7653Y1671D01*
X7741D01*
X7789Y1680D01*
X7830Y1708D01*
X7833Y1713D01*
X7895Y1717D01*
X7931Y1678D01*
Y1299D01*
X7931Y1299D01*
X7940Y1253D01*
X7966Y1214D01*
X8443Y738D01*
Y586D01*
X8442Y582D01*
X8441Y579D01*
X8439Y575D01*
X8437Y571D01*
X8435Y568D01*
X8432Y563D01*
X8430Y560D01*
X8421Y555D01*
X8378Y489D01*
X8362Y413D01*
X8378Y336D01*
X8421Y271D01*
X8486Y227D01*
X8563Y212D01*
X8640Y227D01*
X8705Y271D01*
X8748Y336D01*
X8764Y413D01*
X8748Y489D01*
X8705Y555D01*
X8696Y560D01*
X8694Y563D01*
X8691Y568D01*
X8689Y571D01*
X8687Y575D01*
X8685Y579D01*
X8684Y582D01*
X8683Y586D01*
Y787D01*
X8674Y833D01*
X8648Y873D01*
X8172Y1349D01*
Y1688D01*
X8172Y1689D01*
X8173Y1694D01*
X8174Y1698D01*
X8174Y1701D01*
X8175Y1701D01*
X8176Y1702D01*
X8184Y1708D01*
X8195Y1724D01*
X8196Y1725D01*
X8196Y1726D01*
X8211Y1748D01*
X8221Y1796D01*
Y1944D01*
X8211Y1992D01*
X8196Y2014D01*
X8196Y2015D01*
X8195Y2016D01*
X8184Y2033D01*
X8203Y2072D01*
X8265Y2076D01*
X8891Y1450D01*
X8930Y1424D01*
X8976Y1415D01*
X8976Y1415D01*
X9409D01*
X9409Y1415D01*
X9456Y1424D01*
X9495Y1450D01*
X9608Y1564D01*
X9611Y1566D01*
X9615Y1568D01*
X9618Y1569D01*
X9622Y1571D01*
X9627Y1572D01*
X9632Y1573D01*
X9636Y1573D01*
X9646Y1571D01*
X9722Y1586D01*
X9788Y1630D01*
X9831Y1695D01*
X9846Y1772D01*
X9831Y1848D01*
X9788Y1914D01*
X9722Y1957D01*
X9646Y1972D01*
X9569Y1957D01*
X9504Y1914D01*
X9484Y1885D01*
X9413D01*
X9394Y1914D01*
X9329Y1957D01*
X9252Y1972D01*
X9175Y1957D01*
X9110Y1914D01*
X9104Y1905D01*
X9101Y1902D01*
X9097Y1900D01*
X9093Y1897D01*
X9089Y1895D01*
X9086Y1894D01*
X9082Y1893D01*
X9079Y1892D01*
X9026D01*
X8546Y2373D01*
Y2520D01*
X8546Y2520D01*
X8536Y2566D01*
X8510Y2605D01*
X8113Y3003D01*
Y3339D01*
X8172Y3371D01*
X8191Y3358D01*
X8233Y3350D01*
X8247Y3337D01*
X8343Y3241D01*
X8343Y3241D01*
X8395Y3206D01*
X8457Y3194D01*
X9123D01*
X9135Y3193D01*
X9152Y3190D01*
X9164Y3187D01*
X9165Y3186D01*
Y2980D01*
X9913D01*
Y3728D01*
X9165D01*
Y3523D01*
X9164Y3522D01*
X9152Y3519D01*
X9135Y3516D01*
X9123Y3515D01*
X8523D01*
X8462Y3576D01*
X8453Y3620D01*
X8414Y3679D01*
X8421Y3708D01*
X8437Y3738D01*
X8681D01*
X8681Y3738D01*
X8727Y3747D01*
X8766Y3773D01*
X9141Y4148D01*
X9212Y4135D01*
X9259Y4074D01*
X9341Y4010D01*
X9437Y3971D01*
X9461Y3968D01*
Y4354D01*
Y4741D01*
X9437Y4738D01*
X9341Y4698D01*
X9313Y4677D01*
X9254Y4706D01*
Y5027D01*
X9313Y5056D01*
X9351Y5028D01*
X9442Y4990D01*
X9539Y4977D01*
X9637Y4990D01*
X9728Y5028D01*
X9806Y5088D01*
X9866Y5166D01*
X9904Y5257D01*
X9917Y5354D01*
X9904Y5452D01*
X9866Y5543D01*
X9806Y5621D01*
X9728Y5681D01*
X9637Y5719D01*
X9539Y5732D01*
X9442Y5719D01*
X9351Y5681D01*
X9313Y5652D01*
X9254Y5681D01*
Y5899D01*
X9296Y5941D01*
X9297Y5942D01*
X9306Y5947D01*
X9320Y5954D01*
X9338Y5960D01*
X9361Y5966D01*
X9388Y5970D01*
X9418Y5974D01*
X9494Y5979D01*
X9527Y5979D01*
X9539Y5977D01*
X9637Y5990D01*
X9728Y6028D01*
X9806Y6088D01*
X9866Y6166D01*
X9904Y6257D01*
X9917Y6354D01*
X9904Y6452D01*
X9866Y6543D01*
X9806Y6621D01*
X9728Y6681D01*
X9637Y6719D01*
X9539Y6732D01*
X9442Y6719D01*
X9351Y6681D01*
X9273Y6621D01*
X9213Y6543D01*
X9175Y6452D01*
X9162Y6354D01*
X9164Y6342D01*
X9164Y6309D01*
X9161Y6262D01*
X9156Y6256D01*
X9097Y6280D01*
Y6988D01*
X9097Y6988D01*
X9088Y7034D01*
X9062Y7073D01*
X8997Y7138D01*
X8975Y7185D01*
X9006Y7234D01*
X9075D01*
X9076Y7234D01*
X9087Y7231D01*
X9101Y7226D01*
X9118Y7218D01*
X9138Y7206D01*
X9161Y7190D01*
X9185Y7171D01*
X9241Y7121D01*
X9265Y7098D01*
X9273Y7088D01*
X9351Y7028D01*
X9442Y6990D01*
X9539Y6977D01*
X9637Y6990D01*
X9728Y7028D01*
X9806Y7088D01*
X9866Y7166D01*
X9904Y7257D01*
X9917Y7354D01*
X9904Y7452D01*
X9866Y7543D01*
X9806Y7621D01*
X9728Y7681D01*
X9637Y7719D01*
X9539Y7732D01*
X9442Y7719D01*
X9351Y7681D01*
X9273Y7621D01*
X9265Y7611D01*
X9241Y7588D01*
X9185Y7537D01*
X9161Y7519D01*
X9138Y7503D01*
X9118Y7491D01*
X9101Y7483D01*
X9087Y7477D01*
X9076Y7475D01*
X9075Y7475D01*
X8999D01*
X8999Y7476D01*
X8972Y7517D01*
X8931Y7544D01*
X8889Y7552D01*
X8872Y7580D01*
X8861Y7608D01*
X8924Y7671D01*
X8950Y7710D01*
X8959Y7756D01*
Y8172D01*
X8959Y8173D01*
X8960Y8179D01*
X8961Y8183D01*
X8962Y8185D01*
X8963Y8186D01*
X8963Y8186D01*
X8972Y8192D01*
X8983Y8208D01*
X8983Y8209D01*
X8984Y8210D01*
X8999Y8233D01*
X8999Y8234D01*
X9075D01*
X9076Y8234D01*
X9087Y8231D01*
X9101Y8226D01*
X9118Y8218D01*
X9138Y8206D01*
X9161Y8190D01*
X9185Y8171D01*
X9241Y8121D01*
X9265Y8098D01*
X9273Y8088D01*
X9351Y8028D01*
X9442Y7990D01*
X9539Y7977D01*
X9637Y7990D01*
X9728Y8028D01*
X9806Y8088D01*
X9866Y8166D01*
X9904Y8257D01*
X9917Y8354D01*
X9904Y8452D01*
X9866Y8543D01*
X9806Y8621D01*
X9728Y8681D01*
X9637Y8719D01*
X9539Y8732D01*
D02*
G37*
G36*
X539D02*
X442Y8719D01*
X351Y8681D01*
X273Y8621D01*
X213Y8543D01*
X175Y8452D01*
X162Y8354D01*
X175Y8257D01*
X213Y8166D01*
X273Y8088D01*
X351Y8028D01*
X442Y7990D01*
X539Y7977D01*
X637Y7990D01*
X728Y8028D01*
X806Y8088D01*
X866Y8166D01*
X904Y8257D01*
X917Y8354D01*
X904Y8452D01*
X866Y8543D01*
X806Y8621D01*
X728Y8681D01*
X637Y8719D01*
X539Y8732D01*
D02*
G37*
G36*
X2387Y7778D02*
X2382D01*
Y7618D01*
X2512D01*
Y7653D01*
X2503Y7701D01*
X2476Y7741D01*
X2435Y7768D01*
X2387Y7778D01*
D02*
G37*
G36*
X539Y9732D02*
X442Y9719D01*
X351Y9681D01*
X273Y9621D01*
X213Y9543D01*
X175Y9452D01*
X162Y9354D01*
X175Y9257D01*
X213Y9166D01*
X273Y9088D01*
X351Y9028D01*
X442Y8990D01*
X539Y8977D01*
X637Y8990D01*
X728Y9028D01*
X806Y9088D01*
X814Y9097D01*
X835Y9119D01*
X889Y9166D01*
X912Y9183D01*
X934Y9197D01*
X953Y9208D01*
X971Y9216D01*
X986Y9221D01*
X998Y9224D01*
X1825D01*
X1831Y9223D01*
X1834Y9223D01*
X1855Y9192D01*
X1856Y9191D01*
Y9120D01*
X1855Y9119D01*
X1828Y9079D01*
X1818Y9031D01*
Y8996D01*
X1988D01*
Y8957D01*
X2028D01*
Y8757D01*
X2032D01*
X2080Y8767D01*
X2121Y8794D01*
X2132Y8810D01*
X2199D01*
X2210Y8794D01*
X2250Y8767D01*
X2298Y8757D01*
X2387D01*
X2435Y8767D01*
X2476Y8794D01*
X2496Y8825D01*
X2499Y8826D01*
X2506Y8826D01*
X3588D01*
X5304Y7110D01*
X5306Y7107D01*
X5309Y7103D01*
X5311Y7099D01*
X5312Y7097D01*
X5313Y7094D01*
X5313Y7094D01*
X5311Y7087D01*
X5326Y7010D01*
X5370Y6945D01*
X5435Y6901D01*
X5512Y6886D01*
X5589Y6901D01*
X5654Y6945D01*
X5697Y7010D01*
X5713Y7087D01*
X5697Y7163D01*
X5654Y7229D01*
X5589Y7272D01*
X5512Y7287D01*
X5504Y7286D01*
X5504Y7286D01*
X5502Y7287D01*
X5499Y7288D01*
X5496Y7290D01*
X5492Y7292D01*
X5488Y7294D01*
X3734Y9049D01*
X3692Y9077D01*
X3642Y9087D01*
X2506D01*
X2499Y9088D01*
X2496Y9088D01*
X2476Y9118D01*
X2475Y9123D01*
X2474Y9131D01*
X2473Y9146D01*
Y9165D01*
X2474Y9180D01*
X2475Y9188D01*
X2476Y9193D01*
X2503Y9233D01*
X2512Y9281D01*
Y9428D01*
X2503Y9476D01*
X2476Y9517D01*
X2435Y9544D01*
X2387Y9554D01*
X2298D01*
X2250Y9544D01*
X2210Y9517D01*
X2199Y9501D01*
X2132D01*
X2121Y9517D01*
X2080Y9544D01*
X2032Y9554D01*
X1944D01*
X1896Y9544D01*
X1855Y9517D01*
X1834Y9486D01*
X1831Y9485D01*
X1825Y9485D01*
X998D01*
X986Y9487D01*
X971Y9492D01*
X953Y9500D01*
X934Y9512D01*
X912Y9526D01*
X889Y9543D01*
X835Y9590D01*
X814Y9611D01*
X806Y9621D01*
X728Y9681D01*
X637Y9719D01*
X539Y9732D01*
D02*
G37*
G36*
X1845Y4973D02*
X1811D01*
Y4843D01*
X1971D01*
Y4847D01*
X1961Y4895D01*
X1934Y4936D01*
X1893Y4963D01*
X1845Y4973D01*
D02*
G37*
G36*
X1732D02*
X1698D01*
X1650Y4963D01*
X1609Y4936D01*
X1582Y4895D01*
X1572Y4847D01*
Y4843D01*
X1732D01*
Y4973D01*
D02*
G37*
G36*
X9618Y4741D02*
Y4433D01*
X9926D01*
X9923Y4457D01*
X9883Y4553D01*
X9820Y4635D01*
X9738Y4698D01*
X9642Y4738D01*
X9618Y4741D01*
D02*
G37*
G36*
X9926Y4276D02*
X9618D01*
Y3968D01*
X9642Y3971D01*
X9738Y4010D01*
X9820Y4074D01*
X9883Y4156D01*
X9923Y4252D01*
X9926Y4276D01*
D02*
G37*
G36*
X4252Y2110D02*
X4183Y2096D01*
X4124Y2057D01*
X4085Y1998D01*
X4071Y1929D01*
X4085Y1860D01*
X4124Y1801D01*
X4183Y1762D01*
X4252Y1749D01*
X4321Y1762D01*
X4380Y1801D01*
X4419Y1860D01*
X4433Y1929D01*
X4419Y1998D01*
X4380Y2057D01*
X4321Y2096D01*
X4252Y2110D01*
D02*
G37*
G36*
X1378Y1737D02*
X1293Y1720D01*
X1222Y1672D01*
X1174Y1600D01*
X1157Y1516D01*
X1174Y1431D01*
X1222Y1360D01*
X1293Y1312D01*
X1378Y1295D01*
X1462Y1312D01*
X1534Y1360D01*
X1582Y1431D01*
X1599Y1516D01*
X1582Y1600D01*
X1534Y1672D01*
X1462Y1720D01*
X1378Y1737D01*
D02*
G37*
G36*
X7323Y1535D02*
X6496D01*
Y787D01*
X7323D01*
Y1535D01*
D02*
G37*
G36*
X3583D02*
X2756D01*
Y787D01*
X3583D01*
Y1535D01*
D02*
G37*
G36*
X1378Y1067D02*
X1293Y1050D01*
X1222Y1003D01*
X1174Y931D01*
X1157Y846D01*
X1174Y762D01*
X1222Y690D01*
X1293Y642D01*
X1378Y626D01*
X1462Y642D01*
X1534Y690D01*
X1582Y762D01*
X1599Y846D01*
X1582Y931D01*
X1534Y1003D01*
X1462Y1050D01*
X1378Y1067D01*
D02*
G37*
G36*
X8130Y748D02*
X7953D01*
Y571D01*
X8130D01*
Y748D01*
D02*
G37*
G36*
X7795D02*
X7618D01*
Y571D01*
X7795D01*
Y748D01*
D02*
G37*
G36*
X8130Y413D02*
X7953D01*
Y236D01*
X8130D01*
Y413D01*
D02*
G37*
G36*
X7795D02*
X7618D01*
Y236D01*
X7795D01*
Y413D01*
D02*
G37*
%LPD*%
G36*
X8925Y8425D02*
X8928Y8419D01*
X8932Y8413D01*
X8938Y8408D01*
X8945Y8403D01*
X8954Y8400D01*
X8964Y8397D01*
X8976Y8395D01*
X8990Y8394D01*
X9006Y8394D01*
Y8315D01*
X8990Y8315D01*
X8976Y8313D01*
X8964Y8311D01*
X8954Y8309D01*
X8945Y8305D01*
X8938Y8301D01*
X8932Y8296D01*
X8928Y8290D01*
X8925Y8283D01*
X8925Y8276D01*
Y8433D01*
X8925Y8425D01*
D02*
G37*
G36*
X8907Y8244D02*
X8901Y8238D01*
X8896Y8231D01*
X8891Y8223D01*
X8887Y8215D01*
X8884Y8205D01*
X8881Y8194D01*
X8879Y8183D01*
X8878Y8171D01*
X8878Y8158D01*
X8799D01*
X8799Y8171D01*
X8798Y8183D01*
X8796Y8194D01*
X8793Y8205D01*
X8790Y8215D01*
X8786Y8223D01*
X8782Y8231D01*
X8776Y8238D01*
X8770Y8244D01*
X8763Y8249D01*
X8914D01*
X8907Y8244D01*
D02*
G37*
G36*
X8553D02*
X8547Y8238D01*
X8541Y8231D01*
X8537Y8223D01*
X8533Y8215D01*
X8529Y8205D01*
X8527Y8194D01*
X8525Y8183D01*
X8524Y8171D01*
X8524Y8158D01*
X8445D01*
X8445Y8171D01*
X8443Y8183D01*
X8442Y8194D01*
X8439Y8205D01*
X8436Y8215D01*
X8432Y8223D01*
X8427Y8231D01*
X8422Y8238D01*
X8416Y8244D01*
X8409Y8249D01*
X8560D01*
X8553Y8244D01*
D02*
G37*
G36*
X9329Y8148D02*
X9296Y8179D01*
X9236Y8233D01*
X9208Y8255D01*
X9182Y8273D01*
X9157Y8288D01*
X9133Y8300D01*
X9110Y8308D01*
X9089Y8313D01*
X9070Y8315D01*
X9070Y8394D01*
X9089Y8395D01*
X9110Y8400D01*
X9133Y8409D01*
X9157Y8420D01*
X9182Y8436D01*
X9208Y8454D01*
X9236Y8476D01*
X9296Y8529D01*
X9329Y8561D01*
X9329Y8148D01*
D02*
G37*
G36*
X2063Y7781D02*
X2055Y7772D01*
X2049Y7763D01*
X2043Y7754D01*
X2038Y7744D01*
X2034Y7734D01*
X2033Y7729D01*
X2033Y7728D01*
X2037Y7719D01*
X2041Y7710D01*
X2045Y7702D01*
X2051Y7695D01*
X2057Y7689D01*
X2064Y7684D01*
X1913D01*
X1920Y7689D01*
X1926Y7695D01*
X1931Y7702D01*
X1936Y7710D01*
X1940Y7719D01*
X1943Y7728D01*
X1943Y7729D01*
X1942Y7734D01*
X1938Y7744D01*
X1933Y7754D01*
X1928Y7763D01*
X1921Y7772D01*
X1914Y7781D01*
X1906Y7790D01*
X2071D01*
X2063Y7781D01*
D02*
G37*
G36*
X8524Y7538D02*
X8525Y7526D01*
X8527Y7514D01*
X8529Y7504D01*
X8533Y7494D01*
X8537Y7485D01*
X8541Y7478D01*
X8547Y7471D01*
X8553Y7464D01*
X8560Y7459D01*
X8409D01*
X8416Y7464D01*
X8422Y7471D01*
X8427Y7478D01*
X8432Y7485D01*
X8436Y7494D01*
X8439Y7504D01*
X8442Y7514D01*
X8443Y7526D01*
X8445Y7538D01*
X8445Y7551D01*
X8524D01*
X8524Y7538D01*
D02*
G37*
G36*
X2057Y7469D02*
X2051Y7462D01*
X2045Y7456D01*
X2041Y7448D01*
X2037Y7439D01*
X2033Y7429D01*
X2031Y7419D01*
X2029Y7408D01*
X2028Y7395D01*
X2028Y7382D01*
X1949D01*
X1948Y7395D01*
X1947Y7408D01*
X1946Y7419D01*
X1943Y7429D01*
X1940Y7439D01*
X1936Y7448D01*
X1931Y7456D01*
X1926Y7462D01*
X1920Y7469D01*
X1913Y7474D01*
X2064D01*
X2057Y7469D01*
D02*
G37*
G36*
X8925Y7425D02*
X8928Y7419D01*
X8932Y7413D01*
X8938Y7408D01*
X8945Y7403D01*
X8954Y7400D01*
X8964Y7397D01*
X8976Y7395D01*
X8990Y7394D01*
X9006Y7394D01*
Y7315D01*
X8990Y7315D01*
X8976Y7313D01*
X8964Y7311D01*
X8954Y7309D01*
X8945Y7305D01*
X8938Y7301D01*
X8932Y7296D01*
X8928Y7290D01*
X8925Y7283D01*
X8925Y7276D01*
Y7433D01*
X8925Y7425D01*
D02*
G37*
G36*
X8907Y7244D02*
X8901Y7238D01*
X8896Y7231D01*
X8891Y7223D01*
X8887Y7215D01*
X8884Y7205D01*
X8881Y7194D01*
X8879Y7183D01*
X8878Y7171D01*
X8878Y7158D01*
X8799D01*
X8799Y7171D01*
X8798Y7183D01*
X8796Y7194D01*
X8793Y7205D01*
X8790Y7215D01*
X8786Y7223D01*
X8782Y7231D01*
X8776Y7238D01*
X8770Y7244D01*
X8763Y7249D01*
X8914D01*
X8907Y7244D01*
D02*
G37*
G36*
X8553D02*
X8547Y7238D01*
X8541Y7231D01*
X8537Y7223D01*
X8533Y7215D01*
X8529Y7205D01*
X8527Y7194D01*
X8525Y7183D01*
X8524Y7171D01*
X8524Y7158D01*
X8445D01*
X8445Y7171D01*
X8443Y7183D01*
X8442Y7194D01*
X8439Y7205D01*
X8436Y7215D01*
X8432Y7223D01*
X8427Y7231D01*
X8422Y7238D01*
X8416Y7244D01*
X8409Y7249D01*
X8560D01*
X8553Y7244D01*
D02*
G37*
G36*
X9329Y7148D02*
X9296Y7179D01*
X9236Y7233D01*
X9208Y7255D01*
X9182Y7273D01*
X9157Y7288D01*
X9133Y7300D01*
X9110Y7308D01*
X9089Y7313D01*
X9070Y7315D01*
X9070Y7394D01*
X9089Y7395D01*
X9110Y7400D01*
X9133Y7409D01*
X9157Y7420D01*
X9182Y7436D01*
X9208Y7454D01*
X9236Y7476D01*
X9296Y7529D01*
X9329Y7561D01*
X9329Y7148D01*
D02*
G37*
G36*
X3071Y7270D02*
X3072Y7259D01*
X3074Y7248D01*
X3077Y7237D01*
X3080Y7227D01*
X3084Y7217D01*
X3090Y7208D01*
X3095Y7199D01*
X3102Y7191D01*
X3109Y7182D01*
X3054Y7127D01*
X3046Y7134D01*
X3037Y7141D01*
X3028Y7147D01*
X3019Y7152D01*
X3009Y7156D01*
X2999Y7159D01*
X2988Y7162D01*
X2977Y7164D01*
X2966Y7165D01*
X2954Y7165D01*
X3071Y7282D01*
X3071Y7270D01*
D02*
G37*
G36*
X2677D02*
X2679Y7259D01*
X2680Y7248D01*
X2683Y7237D01*
X2686Y7227D01*
X2691Y7217D01*
X2696Y7208D01*
X2702Y7199D01*
X2708Y7191D01*
X2716Y7182D01*
X2660Y7127D01*
X2652Y7134D01*
X2644Y7141D01*
X2635Y7147D01*
X2625Y7152D01*
X2616Y7156D01*
X2605Y7159D01*
X2595Y7162D01*
X2584Y7164D01*
X2572Y7165D01*
X2560Y7165D01*
X2677Y7282D01*
X2677Y7270D01*
D02*
G37*
G36*
X835Y7309D02*
X840Y7232D01*
X845Y7199D01*
X851Y7168D01*
X859Y7140D01*
X868Y7115D01*
X879Y7093D01*
X891Y7074D01*
X905Y7058D01*
X836Y6988D01*
X820Y7002D01*
X801Y7015D01*
X779Y7025D01*
X754Y7035D01*
X726Y7042D01*
X695Y7049D01*
X661Y7054D01*
X585Y7059D01*
X542Y7059D01*
X835Y7351D01*
X835Y7309D01*
D02*
G37*
G36*
X7455Y6374D02*
X7464Y6366D01*
X7473Y6360D01*
X7483Y6354D01*
X7492Y6349D01*
X7502Y6346D01*
X7512Y6342D01*
X7523Y6340D01*
X7527Y6340D01*
X7559Y6339D01*
X7588Y6339D01*
Y6260D01*
X7559Y6260D01*
X7517Y6257D01*
X7512Y6256D01*
X7502Y6253D01*
X7492Y6249D01*
X7483Y6244D01*
X7473Y6239D01*
X7464Y6232D01*
X7455Y6225D01*
X7447Y6217D01*
Y6252D01*
X7440Y6252D01*
X7430Y6249D01*
X7422Y6247D01*
X7418Y6244D01*
Y6355D01*
X7422Y6352D01*
X7430Y6349D01*
X7440Y6347D01*
X7447Y6346D01*
Y6382D01*
X7455Y6374D01*
D02*
G37*
G36*
X8701Y6299D02*
X8622Y6181D01*
X8621Y6196D01*
X8619Y6209D01*
X8615Y6221D01*
X8609Y6231D01*
X8602Y6240D01*
X8594Y6247D01*
X8583Y6253D01*
X8572Y6257D01*
X8558Y6259D01*
X8543Y6260D01*
Y6339D01*
X8558Y6339D01*
X8572Y6342D01*
X8583Y6346D01*
X8594Y6351D01*
X8602Y6358D01*
X8609Y6367D01*
X8615Y6377D01*
X8619Y6389D01*
X8621Y6402D01*
X8622Y6417D01*
X8701Y6299D01*
D02*
G37*
G36*
X7361Y6181D02*
X7359Y6181D01*
X7357Y6179D01*
X7354Y6177D01*
X7344Y6169D01*
X7315Y6141D01*
X7306Y6131D01*
X7194Y6243D01*
X7244Y6298D01*
X7361Y6181D01*
D02*
G37*
G36*
X9536Y6059D02*
X9491Y6059D01*
X9411Y6054D01*
X9376Y6050D01*
X9344Y6044D01*
X9315Y6037D01*
X9290Y6028D01*
X9269Y6018D01*
X9250Y6007D01*
X9235Y5994D01*
X9179Y6050D01*
X9192Y6065D01*
X9203Y6083D01*
X9213Y6105D01*
X9222Y6130D01*
X9229Y6159D01*
X9235Y6191D01*
X9239Y6226D01*
X9244Y6306D01*
X9244Y6351D01*
X9536Y6059D01*
D02*
G37*
G36*
X645Y6077D02*
X634Y6069D01*
X623Y6060D01*
X614Y6049D01*
X606Y6037D01*
X600Y6023D01*
X595Y6009D01*
X591Y5993D01*
X589Y5975D01*
X589Y5957D01*
X490D01*
X489Y5975D01*
X487Y5993D01*
X484Y6009D01*
X479Y6023D01*
X473Y6037D01*
X465Y6049D01*
X456Y6060D01*
X445Y6069D01*
X433Y6077D01*
X420Y6084D01*
X659D01*
X645Y6077D01*
D02*
G37*
G36*
X4483Y5902D02*
X4476Y5908D01*
X4468Y5914D01*
X4460Y5919D01*
X4452Y5923D01*
X4443Y5927D01*
X4433Y5930D01*
X4423Y5932D01*
X4412Y5934D01*
X4401Y5935D01*
X4389Y5935D01*
Y6033D01*
X4401Y6034D01*
X4412Y6035D01*
X4423Y6036D01*
X4433Y6039D01*
X4443Y6042D01*
X4452Y6046D01*
X4460Y6050D01*
X4468Y6055D01*
X4476Y6061D01*
X4483Y6067D01*
Y5902D01*
D02*
G37*
G36*
X2552Y6061D02*
X2559Y6055D01*
X2567Y6050D01*
X2576Y6046D01*
X2585Y6042D01*
X2595Y6039D01*
X2605Y6036D01*
X2616Y6035D01*
X2627Y6034D01*
X2639Y6033D01*
Y5935D01*
X2627Y5935D01*
X2616Y5934D01*
X2605Y5932D01*
X2595Y5930D01*
X2585Y5927D01*
X2576Y5923D01*
X2567Y5919D01*
X2559Y5914D01*
X2552Y5908D01*
X2545Y5902D01*
X2545Y6067D01*
X2552Y6061D01*
D02*
G37*
G36*
X8541Y5787D02*
X8482Y5769D01*
X8479Y5773D01*
X8439Y5800D01*
X8391Y5809D01*
X8386D01*
Y5610D01*
X8307D01*
Y5809D01*
X8302D01*
X8254Y5800D01*
X8213Y5773D01*
X8203Y5757D01*
X8136D01*
X8125Y5773D01*
X8084Y5800D01*
X8036Y5809D01*
X7948D01*
X7900Y5800D01*
X7859Y5773D01*
X7832Y5732D01*
X7830Y5721D01*
X7206D01*
X7187Y5743D01*
Y5832D01*
X7178Y5880D01*
X7175Y5885D01*
X7395Y6105D01*
X7439Y6114D01*
X7504Y6157D01*
X7510Y6166D01*
X7513Y6168D01*
X7517Y6171D01*
X7521Y6174D01*
X7525Y6176D01*
X7528Y6177D01*
X7530Y6177D01*
X7552Y6179D01*
X8541D01*
Y5787D01*
D02*
G37*
G36*
X6883Y5841D02*
X6933Y5843D01*
Y5732D01*
X6930Y5733D01*
X6924Y5734D01*
X6915Y5735D01*
X6883Y5737D01*
Y5712D01*
X6879Y5717D01*
X6873Y5721D01*
X6866Y5725D01*
X6857Y5729D01*
X6847Y5732D01*
X6835Y5734D01*
X6822Y5736D01*
X6791Y5738D01*
X6782Y5738D01*
X6769Y5738D01*
Y5837D01*
X6813Y5838D01*
X6822Y5839D01*
X6835Y5841D01*
X6847Y5843D01*
X6857Y5846D01*
X6866Y5849D01*
X6873Y5853D01*
X6879Y5858D01*
X6883Y5863D01*
Y5841D01*
D02*
G37*
G36*
X7905Y5551D02*
X7904Y5557D01*
X7903Y5562D01*
X7900Y5566D01*
X7895Y5570D01*
X7890Y5573D01*
X7883Y5576D01*
X7876Y5578D01*
X7867Y5580D01*
X7856Y5580D01*
X7845Y5581D01*
Y5640D01*
X7856Y5640D01*
X7867Y5641D01*
X7876Y5642D01*
X7883Y5644D01*
X7890Y5647D01*
X7895Y5650D01*
X7900Y5654D01*
X7903Y5659D01*
X7904Y5664D01*
X7905Y5669D01*
Y5551D01*
D02*
G37*
G36*
X6293Y5358D02*
X6289Y5363D01*
X6283Y5367D01*
X6275Y5371D01*
X6267Y5374D01*
X6256Y5377D01*
X6245Y5380D01*
X6231Y5382D01*
X6201Y5384D01*
X6170Y5382D01*
X6157Y5380D01*
X6145Y5377D01*
X6135Y5374D01*
X6126Y5371D01*
X6119Y5367D01*
X6113Y5363D01*
X6109Y5358D01*
Y5508D01*
X6113Y5503D01*
X6119Y5499D01*
X6126Y5495D01*
X6135Y5492D01*
X6145Y5489D01*
X6157Y5486D01*
X6170Y5485D01*
X6201Y5483D01*
X6231Y5485D01*
X6245Y5486D01*
X6256Y5489D01*
X6267Y5492D01*
X6275Y5495D01*
X6283Y5499D01*
X6289Y5503D01*
X6293Y5508D01*
Y5358D01*
D02*
G37*
G36*
X8077Y5600D02*
X8077Y5593D01*
X8078Y5586D01*
X8080Y5579D01*
X8083Y5571D01*
X8088Y5562D01*
X8095Y5553D01*
X8102Y5543D01*
X8112Y5533D01*
X8122Y5522D01*
X8102Y5459D01*
X8090Y5470D01*
X8069Y5488D01*
X8060Y5494D01*
X8052Y5499D01*
X8045Y5501D01*
X8039Y5502D01*
X8034Y5501D01*
X8029Y5498D01*
X8026Y5494D01*
X8079Y5606D01*
X8077Y5600D01*
D02*
G37*
G36*
X5890Y5374D02*
X5890Y5376D01*
X5888Y5377D01*
X5885Y5379D01*
X5880Y5380D01*
X5874Y5381D01*
X5867Y5382D01*
X5850Y5383D01*
X5827Y5384D01*
Y5482D01*
X5839Y5482D01*
X5874Y5485D01*
X5880Y5486D01*
X5885Y5487D01*
X5888Y5489D01*
X5890Y5490D01*
X5890Y5492D01*
Y5374D01*
D02*
G37*
G36*
X7042Y5345D02*
X7037Y5344D01*
X7032Y5341D01*
X7028Y5336D01*
X7025Y5331D01*
X7022Y5324D01*
X7020Y5317D01*
X7019Y5307D01*
X7018Y5297D01*
X7018Y5286D01*
X6959D01*
X6958Y5297D01*
X6957Y5307D01*
X6956Y5317D01*
X6954Y5324D01*
X6951Y5331D01*
X6948Y5336D01*
X6944Y5341D01*
X6940Y5344D01*
X6935Y5345D01*
X6929Y5346D01*
X7047D01*
X7042Y5345D01*
D02*
G37*
G36*
X8280Y5365D02*
X8301Y5347D01*
X8311Y5340D01*
X8319Y5335D01*
X8327Y5331D01*
X8335Y5329D01*
X8341Y5329D01*
X8347Y5330D01*
X8352Y5333D01*
X8259Y5261D01*
X8263Y5265D01*
X8265Y5270D01*
X8265Y5275D01*
X8264Y5282D01*
X8261Y5290D01*
X8256Y5299D01*
X8249Y5308D01*
X8240Y5318D01*
X8218Y5342D01*
X8268Y5376D01*
X8280Y5365D01*
D02*
G37*
G36*
X7906Y5138D02*
X7905Y5145D01*
X7903Y5152D01*
X7899Y5158D01*
X7893Y5163D01*
X7886Y5167D01*
X7877Y5171D01*
X7866Y5174D01*
X7854Y5176D01*
X7841Y5177D01*
X7825Y5177D01*
Y5256D01*
X7841Y5256D01*
X7854Y5257D01*
X7866Y5259D01*
X7877Y5262D01*
X7886Y5266D01*
X7893Y5270D01*
X7899Y5275D01*
X7903Y5281D01*
X7905Y5288D01*
X7906Y5295D01*
Y5138D01*
D02*
G37*
G36*
X7475Y5291D02*
X7484Y5284D01*
X7493Y5277D01*
X7502Y5271D01*
X7512Y5267D01*
X7522Y5263D01*
X7532Y5260D01*
X7542Y5258D01*
X7553Y5256D01*
X7564Y5256D01*
X7564Y5177D01*
X7553Y5177D01*
X7542Y5175D01*
X7532Y5173D01*
X7522Y5170D01*
X7512Y5166D01*
X7502Y5162D01*
X7493Y5156D01*
X7484Y5149D01*
X7475Y5142D01*
X7466Y5134D01*
X7466Y5299D01*
X7475Y5291D01*
D02*
G37*
G36*
X7018Y5087D02*
X7020Y5069D01*
X7021Y5061D01*
X7023Y5054D01*
X7025Y5048D01*
X7028Y5042D01*
X7031Y5037D01*
X7034Y5033D01*
X7038Y5030D01*
X6938D01*
X6942Y5033D01*
X6946Y5037D01*
X6949Y5042D01*
X6951Y5048D01*
X6954Y5054D01*
X6955Y5061D01*
X6957Y5069D01*
X6958Y5078D01*
X6959Y5098D01*
X7018D01*
X7018Y5087D01*
D02*
G37*
G36*
X6821D02*
X6823Y5069D01*
X6824Y5061D01*
X6826Y5054D01*
X6828Y5048D01*
X6831Y5042D01*
X6834Y5037D01*
X6837Y5033D01*
X6841Y5030D01*
X6741D01*
X6745Y5033D01*
X6749Y5037D01*
X6752Y5042D01*
X6754Y5048D01*
X6757Y5054D01*
X6759Y5061D01*
X6760Y5069D01*
X6761Y5078D01*
X6762Y5098D01*
X6821D01*
X6821Y5087D01*
D02*
G37*
G36*
X6634Y5102D02*
X6637Y5067D01*
X6638Y5057D01*
X6642Y5040D01*
X6645Y5033D01*
X6647Y5026D01*
X6651Y5021D01*
X6538D01*
X6541Y5026D01*
X6544Y5033D01*
X6547Y5040D01*
X6549Y5048D01*
X6551Y5057D01*
X6554Y5078D01*
X6554Y5090D01*
X6555Y5116D01*
X6634D01*
X6634Y5102D01*
D02*
G37*
G36*
X4050Y5081D02*
X4050Y5077D01*
X4051Y5072D01*
X4053Y5067D01*
X4056Y5061D01*
X4059Y5055D01*
X4064Y5049D01*
X4069Y5042D01*
X4083Y5028D01*
X4055Y5000D01*
X4094D01*
X4095Y4988D01*
X4096Y4968D01*
X4098Y4959D01*
X4099Y4952D01*
X4102Y4947D01*
X4104Y4942D01*
X4107Y4939D01*
X4111Y4937D01*
X4114Y4936D01*
X3996D01*
X4000Y4937D01*
X4003Y4939D01*
X4006Y4942D01*
X4009Y4947D01*
X4011Y4952D01*
X4013Y4959D01*
X4014Y4968D01*
X4015Y4977D01*
X4015Y4983D01*
X4006Y4991D01*
X4000Y4996D01*
X3994Y4999D01*
X3988Y5002D01*
X3983Y5004D01*
X3978Y5005D01*
X3974Y5005D01*
X3970Y5005D01*
X4050Y5085D01*
X4050Y5081D01*
D02*
G37*
G36*
X1132Y4891D02*
X1133Y4879D01*
X1135Y4869D01*
X1137Y4858D01*
X1140Y4849D01*
X1144Y4840D01*
X1148Y4831D01*
X1153Y4823D01*
X1159Y4816D01*
X1165Y4809D01*
X1000D01*
X1006Y4816D01*
X1012Y4823D01*
X1017Y4831D01*
X1021Y4840D01*
X1025Y4849D01*
X1028Y4858D01*
X1030Y4869D01*
X1032Y4879D01*
X1033Y4891D01*
X1033Y4903D01*
X1132D01*
X1132Y4891D01*
D02*
G37*
G36*
X4496Y4894D02*
X4499Y4887D01*
X4503Y4881D01*
X4508Y4876D01*
X4516Y4872D01*
X4525Y4868D01*
X4535Y4866D01*
X4547Y4864D01*
X4561Y4863D01*
X4576Y4862D01*
Y4783D01*
X4561Y4783D01*
X4547Y4782D01*
X4535Y4780D01*
X4525Y4777D01*
X4516Y4774D01*
X4508Y4769D01*
X4503Y4764D01*
X4499Y4758D01*
X4496Y4752D01*
X4496Y4744D01*
Y4901D01*
X4496Y4894D01*
D02*
G37*
G36*
X8352Y4706D02*
X8347Y4709D01*
X8341Y4710D01*
X8335Y4710D01*
X8327Y4708D01*
X8319Y4704D01*
X8311Y4699D01*
X8301Y4693D01*
X8291Y4685D01*
X8268Y4663D01*
X8218Y4697D01*
X8230Y4710D01*
X8249Y4731D01*
X8256Y4741D01*
X8261Y4749D01*
X8264Y4757D01*
X8265Y4764D01*
X8265Y4770D01*
X8263Y4775D01*
X8259Y4779D01*
X8352Y4706D01*
D02*
G37*
G36*
X4764Y4941D02*
Y4941D01*
X4843Y4823D01*
X4764Y4705D01*
X4764Y4705D01*
X4764Y4705D01*
X4763Y4720D01*
X4761Y4733D01*
X4757Y4745D01*
X4751Y4755D01*
X4744Y4764D01*
X4735Y4771D01*
X4725Y4776D01*
X4713Y4780D01*
X4700Y4783D01*
X4685Y4783D01*
Y4783D01*
X4685D01*
Y4862D01*
X4700Y4863D01*
X4713Y4865D01*
X4725Y4869D01*
X4735Y4875D01*
X4744Y4882D01*
X4751Y4891D01*
X4757Y4901D01*
X4761Y4913D01*
X4763Y4926D01*
X4764Y4941D01*
X4764Y4941D01*
D02*
G37*
G36*
X7832Y5095D02*
X7859Y5054D01*
Y4985D01*
X7832Y4945D01*
X7822Y4897D01*
Y4862D01*
X7992D01*
Y4783D01*
X7822D01*
Y4749D01*
X7832Y4701D01*
X7859Y4660D01*
Y4592D01*
X7832Y4551D01*
X7830Y4540D01*
X7727D01*
X7687Y4587D01*
X7674D01*
X7661Y4586D01*
X7626Y4584D01*
X7616Y4582D01*
X7599Y4578D01*
X7592Y4576D01*
X7585Y4573D01*
X7580Y4570D01*
Y4587D01*
X7461D01*
Y4665D01*
X7580D01*
Y4682D01*
X7585Y4679D01*
X7592Y4676D01*
X7599Y4674D01*
X7607Y4671D01*
X7616Y4670D01*
X7637Y4667D01*
X7649Y4666D01*
X7675Y4665D01*
Y4665D01*
X7677D01*
X7671Y4698D01*
X7647Y4734D01*
X7611Y4757D01*
X7587Y4762D01*
X7532Y4788D01*
Y4857D01*
X7523Y4901D01*
X7498Y4939D01*
X7461Y4964D01*
X7442Y4968D01*
Y5028D01*
X7459Y5031D01*
X7524Y5075D01*
X7529Y5083D01*
X7533Y5086D01*
X7537Y5089D01*
X7541Y5091D01*
X7544Y5093D01*
X7548Y5094D01*
X7552Y5095D01*
X7555Y5096D01*
X7832D01*
X7832Y5095D01*
D02*
G37*
G36*
X7244Y4680D02*
X7246Y4677D01*
X7250Y4674D01*
X7255Y4672D01*
X7263Y4670D01*
X7271Y4668D01*
X7281Y4667D01*
X7295Y4668D01*
X7305Y4670D01*
X7322Y4674D01*
X7329Y4676D01*
X7336Y4679D01*
X7341Y4682D01*
Y4570D01*
X7336Y4573D01*
X7329Y4576D01*
X7322Y4578D01*
X7314Y4581D01*
X7305Y4582D01*
X7289Y4584D01*
X7281Y4583D01*
X7271Y4580D01*
X7262Y4577D01*
X7255Y4572D01*
X7249Y4567D01*
X7245Y4561D01*
X7243Y4555D01*
X7242Y4547D01*
X7243Y4684D01*
X7244Y4680D01*
D02*
G37*
G36*
X6200Y4570D02*
X6197Y4571D01*
X6192Y4572D01*
X6185Y4573D01*
X6167Y4575D01*
X6127Y4576D01*
X6091Y4577D01*
Y4675D01*
X6110Y4675D01*
X6197Y4681D01*
X6200Y4682D01*
Y4570D01*
D02*
G37*
G36*
X3609Y4671D02*
X3616Y4668D01*
X3623Y4665D01*
X3632Y4662D01*
X3641Y4660D01*
X3651Y4659D01*
X3673Y4656D01*
X3685Y4656D01*
X3698Y4656D01*
Y4577D01*
X3685Y4577D01*
X3651Y4574D01*
X3641Y4572D01*
X3632Y4570D01*
X3623Y4568D01*
X3616Y4565D01*
X3609Y4562D01*
X3603Y4558D01*
Y4674D01*
X3609Y4671D01*
D02*
G37*
G36*
X5603Y4702D02*
X5610Y4697D01*
X5618Y4692D01*
X5627Y4687D01*
X5636Y4684D01*
X5646Y4681D01*
X5656Y4678D01*
X5667Y4677D01*
X5678Y4676D01*
X5690Y4675D01*
Y4577D01*
X5678Y4576D01*
X5667Y4575D01*
X5656Y4574D01*
X5646Y4571D01*
X5636Y4568D01*
X5627Y4565D01*
X5618Y4560D01*
X5610Y4555D01*
X5603Y4550D01*
X5596Y4543D01*
X5596Y4709D01*
X5603Y4702D01*
D02*
G37*
G36*
X8122Y4517D02*
X8112Y4506D01*
X8095Y4486D01*
X8088Y4477D01*
X8083Y4469D01*
X8080Y4460D01*
X8078Y4453D01*
X8077Y4446D01*
X8077Y4440D01*
X8079Y4434D01*
X8026Y4546D01*
X8029Y4541D01*
X8034Y4538D01*
X8039Y4537D01*
X8045Y4538D01*
X8052Y4541D01*
X8060Y4545D01*
X8069Y4551D01*
X8079Y4559D01*
X8090Y4569D01*
X8102Y4581D01*
X8122Y4517D01*
D02*
G37*
G36*
X7592Y4475D02*
X7596Y4472D01*
X7601Y4469D01*
X7607Y4466D01*
X7613Y4464D01*
X7620Y4462D01*
X7628Y4460D01*
X7637Y4459D01*
X7657Y4459D01*
Y4400D01*
X7646Y4399D01*
X7628Y4398D01*
X7620Y4396D01*
X7613Y4394D01*
X7607Y4392D01*
X7601Y4390D01*
X7596Y4387D01*
X7592Y4383D01*
X7589Y4379D01*
Y4479D01*
X7592Y4475D01*
D02*
G37*
G36*
X1881Y4519D02*
X1887Y4515D01*
X1894Y4511D01*
X1903Y4507D01*
X1913Y4505D01*
X1925Y4502D01*
X1938Y4500D01*
X1969Y4498D01*
X1987Y4498D01*
Y4400D01*
X1969Y4399D01*
X1938Y4397D01*
X1925Y4395D01*
X1913Y4393D01*
X1903Y4390D01*
X1894Y4387D01*
X1887Y4383D01*
X1881Y4378D01*
X1877Y4373D01*
Y4524D01*
X1881Y4519D01*
D02*
G37*
G36*
X6200Y4373D02*
X6197Y4374D01*
X6192Y4375D01*
X6185Y4376D01*
X6167Y4378D01*
X6127Y4380D01*
X6091Y4380D01*
X6091Y4478D01*
X6110Y4478D01*
X6197Y4484D01*
X6200Y4485D01*
Y4373D01*
D02*
G37*
G36*
X7905Y4370D02*
X7904Y4376D01*
X7903Y4381D01*
X7900Y4385D01*
X7895Y4389D01*
X7890Y4392D01*
X7883Y4395D01*
X7876Y4397D01*
X7867Y4398D01*
X7856Y4399D01*
X7845Y4400D01*
Y4459D01*
X7856Y4459D01*
X7867Y4460D01*
X7876Y4461D01*
X7883Y4463D01*
X7890Y4466D01*
X7895Y4469D01*
X7900Y4473D01*
X7903Y4478D01*
X7904Y4483D01*
X7905Y4488D01*
Y4370D01*
D02*
G37*
G36*
X8433Y4500D02*
X8436Y4494D01*
X8440Y4488D01*
X8445Y4483D01*
X8453Y4478D01*
X8462Y4475D01*
X8472Y4472D01*
X8484Y4470D01*
X8498Y4469D01*
X8513Y4469D01*
Y4390D01*
X8498Y4389D01*
X8484Y4388D01*
X8472Y4386D01*
X8462Y4384D01*
X8453Y4380D01*
X8445Y4376D01*
X8440Y4371D01*
X8436Y4365D01*
X8433Y4358D01*
X8433Y4351D01*
Y4508D01*
X8433Y4500D01*
D02*
G37*
G36*
X2303Y4302D02*
X2299Y4304D01*
X2294Y4305D01*
X2287Y4307D01*
X2279Y4308D01*
X2257Y4310D01*
X2193Y4311D01*
Y4409D01*
X2211Y4410D01*
X2294Y4415D01*
X2299Y4417D01*
X2303Y4418D01*
Y4302D01*
D02*
G37*
G36*
X6538Y4154D02*
X6537Y4161D01*
X6535Y4168D01*
X6531Y4174D01*
X6525Y4179D01*
X6518Y4183D01*
X6509Y4187D01*
X6499Y4189D01*
X6491Y4191D01*
X6484Y4190D01*
X6474Y4189D01*
X6457Y4185D01*
X6450Y4182D01*
X6444Y4179D01*
X6438Y4176D01*
Y4288D01*
X6444Y4285D01*
X6450Y4282D01*
X6457Y4280D01*
X6465Y4278D01*
X6474Y4276D01*
X6490Y4274D01*
X6499Y4275D01*
X6509Y4278D01*
X6518Y4281D01*
X6525Y4286D01*
X6531Y4291D01*
X6535Y4297D01*
X6537Y4304D01*
X6538Y4311D01*
Y4154D01*
D02*
G37*
G36*
X1860Y4369D02*
X1852Y4366D01*
X1845Y4360D01*
X1838Y4353D01*
X1833Y4343D01*
X1829Y4331D01*
X1825Y4317D01*
X1823Y4301D01*
X1821Y4283D01*
X1821Y4262D01*
X1722D01*
X1722Y4283D01*
X1720Y4301D01*
X1718Y4317D01*
X1715Y4331D01*
X1710Y4343D01*
X1705Y4353D01*
X1699Y4360D01*
X1691Y4366D01*
X1683Y4369D01*
X1674Y4370D01*
X1869D01*
X1860Y4369D01*
D02*
G37*
G36*
X1821Y4182D02*
X1823Y4164D01*
X1825Y4147D01*
X1829Y4133D01*
X1833Y4121D01*
X1838Y4112D01*
X1845Y4104D01*
X1852Y4099D01*
X1860Y4096D01*
X1869Y4094D01*
X1674D01*
X1683Y4096D01*
X1691Y4099D01*
X1699Y4104D01*
X1705Y4112D01*
X1710Y4121D01*
X1715Y4133D01*
X1718Y4147D01*
X1720Y4164D01*
X1722Y4182D01*
X1722Y4202D01*
X1821D01*
X1821Y4182D01*
D02*
G37*
G36*
X835Y4309D02*
X840Y4232D01*
X845Y4199D01*
X851Y4168D01*
X859Y4140D01*
X868Y4115D01*
X879Y4093D01*
X891Y4074D01*
X905Y4058D01*
X836Y3988D01*
X820Y4002D01*
X801Y4015D01*
X779Y4025D01*
X754Y4035D01*
X726Y4042D01*
X695Y4049D01*
X661Y4054D01*
X585Y4059D01*
X542Y4059D01*
X835Y4351D01*
X835Y4309D01*
D02*
G37*
G36*
X1273Y3940D02*
X1269Y3945D01*
X1263Y3950D01*
X1256Y3954D01*
X1247Y3957D01*
X1237Y3960D01*
X1225Y3962D01*
X1212Y3964D01*
X1181Y3966D01*
X1163Y3967D01*
Y4065D01*
X1181Y4065D01*
X1212Y4067D01*
X1225Y4069D01*
X1237Y4072D01*
X1247Y4074D01*
X1256Y4078D01*
X1263Y4082D01*
X1269Y4086D01*
X1273Y4091D01*
Y3940D01*
D02*
G37*
G36*
X4595Y3937D02*
X4593Y3934D01*
X4591Y3930D01*
X4590Y3924D01*
X4589Y3917D01*
X4588Y3899D01*
X4587Y3876D01*
X4587Y3862D01*
X4469D01*
X4468Y3876D01*
X4465Y3924D01*
X4464Y3930D01*
X4462Y3934D01*
X4461Y3937D01*
X4459Y3939D01*
X4596D01*
X4595Y3937D01*
D02*
G37*
G36*
X4172Y3898D02*
X4173Y3898D01*
X4213Y3898D01*
Y3819D01*
X4172Y3819D01*
Y3898D01*
X4172Y3898D01*
D02*
G37*
G36*
X3606Y3905D02*
X3612Y3903D01*
X3618Y3902D01*
X3627Y3901D01*
X3649Y3899D01*
X3713Y3898D01*
Y3799D01*
X3694Y3799D01*
X3612Y3794D01*
X3606Y3792D01*
X3603Y3790D01*
Y3907D01*
X3606Y3905D01*
D02*
G37*
G36*
X4469Y3725D02*
X4472Y3687D01*
X4473Y3677D01*
X4475Y3668D01*
X4477Y3661D01*
X4480Y3655D01*
X4482Y3651D01*
X4486Y3648D01*
X4335D01*
X4338Y3651D01*
X4341Y3655D01*
X4343Y3661D01*
X4345Y3668D01*
X4347Y3677D01*
X4349Y3687D01*
X4351Y3711D01*
X4351Y3741D01*
X4469D01*
X4469Y3725D01*
D02*
G37*
G36*
X3964Y3780D02*
X4152Y3779D01*
X4143Y3778D01*
X4135Y3775D01*
X4127Y3769D01*
X4121Y3762D01*
X4116Y3752D01*
X4111Y3741D01*
X4108Y3727D01*
X4106Y3712D01*
X4106Y3710D01*
X4108Y3696D01*
X4110Y3684D01*
X4113Y3674D01*
X4116Y3665D01*
X4120Y3658D01*
X4125Y3652D01*
X4130Y3648D01*
X3979D01*
X3984Y3652D01*
X3988Y3658D01*
X3992Y3665D01*
X3996Y3674D01*
X3999Y3684D01*
X4001Y3696D01*
X4003Y3710D01*
X4003Y3712D01*
X4001Y3727D01*
X3997Y3741D01*
X3993Y3753D01*
X3988Y3763D01*
X3981Y3770D01*
X3974Y3776D01*
X3966Y3779D01*
X3964Y3779D01*
X3964Y3773D01*
X3956Y3778D01*
X3947Y3783D01*
X3937Y3787D01*
X3926Y3790D01*
X3915Y3793D01*
X3902Y3795D01*
X3874Y3798D01*
X3858Y3799D01*
X3842Y3799D01*
X3839Y3898D01*
X3856Y3898D01*
X3886Y3901D01*
X3899Y3903D01*
X3910Y3907D01*
X3921Y3911D01*
X3930Y3915D01*
X3938Y3921D01*
X3945Y3927D01*
X3950Y3934D01*
X3964Y3780D01*
D02*
G37*
G36*
X1487Y3732D02*
X1493Y3727D01*
X1500Y3723D01*
X1509Y3720D01*
X1519Y3717D01*
X1531Y3715D01*
X1544Y3713D01*
X1575Y3711D01*
X1605Y3713D01*
X1619Y3715D01*
X1630Y3717D01*
X1641Y3720D01*
X1650Y3723D01*
X1657Y3727D01*
X1663Y3732D01*
X1667Y3737D01*
Y3586D01*
X1663Y3591D01*
X1657Y3595D01*
X1650Y3599D01*
X1641Y3603D01*
X1630Y3606D01*
X1619Y3608D01*
X1605Y3610D01*
X1575Y3612D01*
X1544Y3610D01*
X1531Y3608D01*
X1519Y3606D01*
X1509Y3603D01*
X1500Y3599D01*
X1493Y3595D01*
X1487Y3591D01*
X1483Y3586D01*
Y3737D01*
X1487Y3732D01*
D02*
G37*
G36*
X7238Y3635D02*
X7235Y3629D01*
X7233Y3621D01*
X7230Y3613D01*
X7229Y3604D01*
X7226Y3584D01*
X7225Y3572D01*
X7224Y3546D01*
X7146D01*
X7146Y3559D01*
X7143Y3594D01*
X7141Y3604D01*
X7137Y3621D01*
X7135Y3629D01*
X7132Y3635D01*
X7129Y3641D01*
X7241D01*
X7238Y3635D01*
D02*
G37*
G36*
X7041Y3635D02*
X7038Y3629D01*
X7036Y3621D01*
X7034Y3613D01*
X7032Y3604D01*
X7029Y3584D01*
X7028Y3572D01*
X7028Y3546D01*
X6949Y3546D01*
X6949Y3559D01*
X6946Y3594D01*
X6945Y3604D01*
X6941Y3621D01*
X6938Y3629D01*
X6935Y3635D01*
X6932Y3641D01*
X7044D01*
X7041Y3635D01*
D02*
G37*
G36*
X6844Y3635D02*
X6841Y3629D01*
X6839Y3621D01*
X6837Y3613D01*
X6835Y3604D01*
X6832Y3584D01*
X6831Y3572D01*
X6831Y3546D01*
X6752D01*
X6752Y3559D01*
X6749Y3594D01*
X6748Y3604D01*
X6744Y3621D01*
X6741Y3629D01*
X6738Y3635D01*
X6735Y3641D01*
X6848D01*
X6844Y3635D01*
D02*
G37*
G36*
X1869Y3583D02*
X1860Y3582D01*
X1852Y3578D01*
X1845Y3573D01*
X1838Y3565D01*
X1833Y3556D01*
X1829Y3544D01*
X1825Y3530D01*
X1823Y3514D01*
X1821Y3495D01*
X1821Y3475D01*
X1722D01*
X1722Y3495D01*
X1720Y3514D01*
X1718Y3530D01*
X1715Y3544D01*
X1710Y3556D01*
X1705Y3565D01*
X1699Y3573D01*
X1691Y3578D01*
X1683Y3582D01*
X1674Y3583D01*
X1869Y3583D01*
D02*
G37*
G36*
X8386Y3541D02*
X8388Y3538D01*
X8390Y3535D01*
X8398Y3525D01*
X8426Y3496D01*
X8436Y3487D01*
X8324Y3375D01*
X8269Y3425D01*
X8386Y3542D01*
X8386Y3541D01*
D02*
G37*
G36*
X3641Y3425D02*
X3639Y3425D01*
X3637Y3423D01*
X3633Y3421D01*
X3624Y3413D01*
X3595Y3385D01*
X3585Y3375D01*
X3474Y3487D01*
X3524Y3542D01*
X3641Y3425D01*
D02*
G37*
G36*
X7028Y3380D02*
X7029Y3366D01*
X7031Y3354D01*
X7034Y3344D01*
X7037Y3335D01*
X7042Y3327D01*
X7047Y3322D01*
X7053Y3318D01*
X7059Y3315D01*
X7067Y3314D01*
X6910D01*
X6917Y3315D01*
X6924Y3318D01*
X6930Y3322D01*
X6935Y3327D01*
X6939Y3335D01*
X6943Y3344D01*
X6945Y3354D01*
X6947Y3366D01*
X6948Y3380D01*
X6949Y3395D01*
X7028D01*
X7028Y3380D01*
D02*
G37*
G36*
X2218Y3368D02*
X2219Y3360D01*
X2222Y3346D01*
X2227Y3334D01*
X2232Y3324D01*
X2238Y3317D01*
X2246Y3311D01*
X2254Y3308D01*
X2256Y3308D01*
Y3313D01*
X2259Y3312D01*
X2266Y3311D01*
X2275Y3310D01*
X2320Y3308D01*
X2423Y3307D01*
Y3150D01*
X2256Y3143D01*
Y3307D01*
X2220Y3307D01*
X2221Y3284D01*
X2110D01*
X2111Y3287D01*
X2112Y3293D01*
X2113Y3301D01*
X2113Y3307D01*
Y3307D01*
X2075Y3307D01*
Y3143D01*
X2071Y3145D01*
X2065Y3146D01*
X2056Y3147D01*
X2010Y3149D01*
X2004Y3149D01*
X1862Y3143D01*
Y3307D01*
X1826D01*
X1827Y3284D01*
X1716D01*
X1717Y3287D01*
X1718Y3293D01*
X1719Y3301D01*
X1720Y3307D01*
X1681D01*
Y3143D01*
X1678Y3145D01*
X1671Y3146D01*
X1662Y3147D01*
X1617Y3149D01*
X1514Y3150D01*
Y3307D01*
X1681Y3313D01*
Y3308D01*
X1683Y3308D01*
X1691Y3311D01*
X1699Y3317D01*
X1705Y3324D01*
X1710Y3334D01*
X1715Y3346D01*
X1718Y3360D01*
X1720Y3376D01*
X1722Y3394D01*
X1722Y3447D01*
X1821D01*
X1824Y3368D01*
X1825Y3360D01*
X1829Y3346D01*
X1833Y3334D01*
X1838Y3324D01*
X1845Y3317D01*
X1852Y3311D01*
X1860Y3308D01*
X1862Y3308D01*
Y3313D01*
X1866Y3312D01*
X1872Y3311D01*
X1881Y3310D01*
X1927Y3308D01*
X1933Y3308D01*
X2075Y3313D01*
Y3308D01*
X2077Y3308D01*
X2085Y3311D01*
X2092Y3317D01*
X2099Y3324D01*
X2104Y3334D01*
X2108Y3346D01*
X2112Y3360D01*
X2114Y3376D01*
X2116Y3394D01*
X2116Y3447D01*
X2215D01*
X2218Y3368D01*
D02*
G37*
G36*
X834Y3485D02*
X838Y3474D01*
X845Y3465D01*
X855Y3456D01*
X868Y3449D01*
X884Y3443D01*
X903Y3439D01*
X924Y3436D01*
X949Y3434D01*
X976Y3433D01*
Y3276D01*
X949Y3275D01*
X924Y3273D01*
X903Y3270D01*
X884Y3265D01*
X868Y3260D01*
X855Y3252D01*
X845Y3244D01*
X838Y3235D01*
X834Y3224D01*
X832Y3211D01*
Y3248D01*
Y3297D01*
X765Y3297D01*
Y3396D01*
X832Y3398D01*
Y3497D01*
X834Y3485D01*
D02*
G37*
G36*
X9246Y3197D02*
X9245Y3212D01*
X9240Y3225D01*
X9232Y3237D01*
X9221Y3247D01*
X9207Y3256D01*
X9189Y3263D01*
X9169Y3268D01*
X9145Y3272D01*
X9118Y3275D01*
X9088Y3276D01*
Y3433D01*
X9118Y3434D01*
X9145Y3436D01*
X9169Y3440D01*
X9189Y3446D01*
X9207Y3453D01*
X9221Y3461D01*
X9232Y3472D01*
X9240Y3483D01*
X9245Y3497D01*
X9246Y3512D01*
Y3197D01*
D02*
G37*
G36*
X4998Y3690D02*
Y3268D01*
X4998Y3268D01*
X5007Y3222D01*
X5033Y3183D01*
X5110Y3106D01*
X5087Y3051D01*
X4990D01*
Y3031D01*
X4498D01*
Y3051D01*
X4299D01*
X4284Y3110D01*
X4361Y3187D01*
X4528D01*
X4528Y3187D01*
X4574Y3196D01*
X4613Y3222D01*
X4691Y3301D01*
X4718Y3340D01*
X4727Y3386D01*
Y3651D01*
X4882Y3806D01*
X4998Y3690D01*
D02*
G37*
G36*
X4193Y3051D02*
X4154D01*
X4106Y3059D01*
X4108Y3062D01*
X4109Y3065D01*
X4110Y3071D01*
X4114Y3131D01*
X4114Y3146D01*
X4193Y3051D01*
D02*
G37*
G36*
X5608Y3375D02*
Y3051D01*
X5455D01*
X5446Y3097D01*
X5420Y3136D01*
X5420Y3136D01*
X5239Y3318D01*
Y3661D01*
X5298Y3686D01*
X5608Y3375D01*
D02*
G37*
G36*
X7018Y3002D02*
X7020Y2986D01*
X7021Y2979D01*
X7023Y2974D01*
X7025Y2969D01*
X7028Y2966D01*
X7031Y2963D01*
X7034Y2962D01*
X7038Y2961D01*
X6939D01*
X6942Y2962D01*
X6946Y2963D01*
X6949Y2966D01*
X6951Y2969D01*
X6954Y2974D01*
X6955Y2979D01*
X6957Y2986D01*
X6958Y2994D01*
X6958Y3002D01*
X6959Y3012D01*
X7018D01*
X7018Y3002D01*
D02*
G37*
G36*
X5768Y3015D02*
X5771Y2964D01*
X5772Y2959D01*
X5773Y2955D01*
X5775Y2952D01*
X5776Y2952D01*
X5680D01*
X5682Y2952D01*
X5683Y2955D01*
X5685Y2959D01*
X5686Y2964D01*
X5687Y2971D01*
X5688Y2990D01*
X5689Y3030D01*
X5768D01*
X5768Y3015D01*
D02*
G37*
G36*
X5571D02*
X5574Y2964D01*
X5575Y2959D01*
X5576Y2955D01*
X5578Y2952D01*
X5580Y2952D01*
X5483D01*
X5485Y2952D01*
X5487Y2955D01*
X5488Y2959D01*
X5489Y2964D01*
X5490Y2971D01*
X5491Y2990D01*
X5492Y3030D01*
X5571D01*
X5571Y3015D01*
D02*
G37*
G36*
X5374D02*
X5377Y2964D01*
X5378Y2959D01*
X5380Y2955D01*
X5381Y2952D01*
X5383Y2952D01*
X5287D01*
X5288Y2952D01*
X5290Y2955D01*
X5291Y2959D01*
X5292Y2964D01*
X5293Y2971D01*
X5294Y2990D01*
X5295Y3030D01*
X5374D01*
X5374Y3015D01*
D02*
G37*
G36*
X4390D02*
X4393Y2964D01*
X4394Y2959D01*
X4395Y2955D01*
X4397Y2952D01*
X4398Y2952D01*
X4302D01*
X4304Y2952D01*
X4306Y2955D01*
X4307Y2959D01*
X4308Y2964D01*
X4309Y2971D01*
X4310Y2990D01*
X4311Y3030D01*
X4390D01*
X4390Y3015D01*
D02*
G37*
G36*
X4193D02*
X4196Y2964D01*
X4197Y2959D01*
X4198Y2955D01*
X4200Y2952D01*
X4202Y2952D01*
X4106D01*
X4107Y2952D01*
X4109Y2955D01*
X4110Y2959D01*
X4111Y2964D01*
X4112Y2971D01*
X4113Y2990D01*
X4114Y3030D01*
X4193D01*
X4193Y3015D01*
D02*
G37*
G36*
X2814Y2955D02*
X2807Y2947D01*
X2800Y2939D01*
X2794Y2930D01*
X2789Y2921D01*
X2785Y2911D01*
X2781Y2901D01*
X2779Y2890D01*
X2777Y2879D01*
X2776Y2867D01*
X2776Y2856D01*
X2659Y2972D01*
X2671Y2973D01*
X2682Y2974D01*
X2693Y2976D01*
X2704Y2978D01*
X2714Y2982D01*
X2724Y2986D01*
X2733Y2991D01*
X2742Y2997D01*
X2750Y3004D01*
X2758Y3011D01*
X2814Y2955D01*
D02*
G37*
G36*
X5513Y4408D02*
X5516Y4369D01*
X5508Y4331D01*
X5523Y4254D01*
X5567Y4189D01*
X5632Y4145D01*
X5709Y4130D01*
X5785Y4145D01*
X5851Y4189D01*
X5894Y4254D01*
X5903Y4299D01*
X6070D01*
X6092Y4272D01*
X6319D01*
Y4193D01*
X6102D01*
X6109Y4161D01*
X6126Y4134D01*
X6109Y4107D01*
X6100Y4065D01*
Y4006D01*
X6109Y3964D01*
X6133Y3928D01*
X6168Y3904D01*
X6193Y3899D01*
X6248Y3873D01*
Y3804D01*
X6257Y3760D01*
X6282Y3723D01*
X6319Y3698D01*
X6363Y3689D01*
X6432D01*
X6458Y3634D01*
X6463Y3609D01*
X6487Y3574D01*
X6523Y3550D01*
X6565Y3541D01*
X6624D01*
X6631Y3534D01*
X6632Y3456D01*
X6608Y3432D01*
X6582Y3393D01*
X6572Y3346D01*
X6572Y3346D01*
Y2891D01*
X6513Y2853D01*
X6494Y2857D01*
X6494Y2857D01*
X6056D01*
Y3524D01*
X6046Y3574D01*
X6017Y3616D01*
X5406Y4227D01*
Y4394D01*
X5462Y4432D01*
X5513Y4408D01*
D02*
G37*
G36*
X7492Y2943D02*
X7498Y2936D01*
X7505Y2931D01*
X7513Y2926D01*
X7522Y2922D01*
X7531Y2919D01*
X7542Y2917D01*
X7553Y2915D01*
X7565Y2914D01*
X7578Y2913D01*
Y2835D01*
X7565Y2834D01*
X7553Y2833D01*
X7542Y2831D01*
X7531Y2829D01*
X7522Y2826D01*
X7513Y2822D01*
X7505Y2817D01*
X7498Y2812D01*
X7492Y2806D01*
X7487Y2799D01*
Y2949D01*
X7492Y2943D01*
D02*
G37*
G36*
X5973Y2807D02*
X5975Y2801D01*
X5979Y2795D01*
X5985Y2790D01*
X5992Y2785D01*
X6001Y2782D01*
X6011Y2779D01*
X6023Y2777D01*
X6037Y2776D01*
X6052Y2776D01*
Y2697D01*
X6037Y2696D01*
X6023Y2695D01*
X6011Y2693D01*
X6001Y2691D01*
X5992Y2687D01*
X5985Y2683D01*
X5979Y2678D01*
X5975Y2672D01*
X5973Y2665D01*
X5972Y2657D01*
Y2815D01*
X5973Y2807D01*
D02*
G37*
G36*
X5775Y2520D02*
X5773Y2518D01*
X5772Y2515D01*
X5771Y2511D01*
X5770Y2506D01*
X5769Y2499D01*
X5768Y2482D01*
X5768Y2461D01*
X5689D01*
X5689Y2472D01*
X5687Y2506D01*
X5686Y2511D01*
X5685Y2515D01*
X5683Y2518D01*
X5682Y2520D01*
X5680Y2521D01*
X5776D01*
X5775Y2520D01*
D02*
G37*
G36*
X5381D02*
X5380Y2518D01*
X5378Y2515D01*
X5377Y2511D01*
X5376Y2506D01*
X5375Y2499D01*
X5374Y2482D01*
X5374Y2461D01*
X5295D01*
X5295Y2472D01*
X5293Y2506D01*
X5292Y2511D01*
X5291Y2515D01*
X5290Y2518D01*
X5288Y2520D01*
X5287Y2521D01*
X5383D01*
X5381Y2520D01*
D02*
G37*
G36*
X7611Y2185D02*
X7610Y2193D01*
X7608Y2199D01*
X7603Y2205D01*
X7598Y2210D01*
X7591Y2215D01*
X7582Y2218D01*
X7571Y2221D01*
X7559Y2223D01*
X7545Y2224D01*
X7530Y2224D01*
Y2303D01*
X7545Y2304D01*
X7559Y2305D01*
X7571Y2307D01*
X7582Y2309D01*
X7591Y2313D01*
X7598Y2317D01*
X7603Y2322D01*
X7608Y2328D01*
X7610Y2335D01*
X7611Y2342D01*
Y2185D01*
D02*
G37*
G36*
X8120Y2154D02*
X8114Y2148D01*
X8108Y2141D01*
X8104Y2133D01*
X8100Y2124D01*
X8096Y2114D01*
X8094Y2104D01*
X8092Y2093D01*
X8091Y2080D01*
X8091Y2067D01*
X8012D01*
X8011Y2080D01*
X8010Y2093D01*
X8009Y2104D01*
X8006Y2114D01*
X8003Y2124D01*
X7999Y2133D01*
X7994Y2141D01*
X7989Y2148D01*
X7983Y2154D01*
X7976Y2159D01*
X8127D01*
X8120Y2154D01*
D02*
G37*
G36*
X8091Y2053D02*
X8092Y2041D01*
X8094Y2030D01*
X8096Y2019D01*
X8100Y2010D01*
X8104Y2001D01*
X8108Y1993D01*
X8114Y1986D01*
X8120Y1980D01*
X8127Y1975D01*
X7976D01*
X7983Y1980D01*
X7989Y1986D01*
X7994Y1993D01*
X7999Y2001D01*
X8003Y2010D01*
X8006Y2019D01*
X8009Y2030D01*
X8010Y2041D01*
X8011Y2053D01*
X8012Y2067D01*
X8091D01*
X8091Y2053D01*
D02*
G37*
G36*
X7599Y2024D02*
X7629Y1999D01*
X7642Y1989D01*
X7653Y1983D01*
X7664Y1979D01*
X7672Y1977D01*
X7680Y1978D01*
X7686Y1981D01*
X7690Y1987D01*
X7610Y1847D01*
X7613Y1854D01*
X7614Y1862D01*
X7613Y1871D01*
X7610Y1881D01*
X7606Y1892D01*
X7599Y1904D01*
X7590Y1916D01*
X7580Y1929D01*
X7567Y1943D01*
X7553Y1958D01*
X7582Y2041D01*
X7599Y2024D01*
D02*
G37*
G36*
X9168Y1689D02*
X9159Y1697D01*
X9150Y1705D01*
X9141Y1711D01*
X9132Y1717D01*
X9122Y1721D01*
X9112Y1725D01*
X9102Y1728D01*
X9091Y1731D01*
X9081Y1732D01*
X9070Y1732D01*
Y1811D01*
X9081Y1811D01*
X9091Y1813D01*
X9102Y1815D01*
X9112Y1818D01*
X9122Y1822D01*
X9132Y1827D01*
X9141Y1832D01*
X9150Y1839D01*
X9159Y1846D01*
X9168Y1854D01*
Y1689D01*
D02*
G37*
G36*
X8120Y1760D02*
X8114Y1754D01*
X8108Y1747D01*
X8104Y1739D01*
X8100Y1730D01*
X8096Y1721D01*
X8094Y1710D01*
X8092Y1699D01*
X8091Y1687D01*
X8091Y1674D01*
X8012D01*
X8011Y1687D01*
X8010Y1699D01*
X8009Y1710D01*
X8006Y1721D01*
X8003Y1730D01*
X7999Y1739D01*
X7994Y1747D01*
X7989Y1754D01*
X7983Y1760D01*
X7976Y1765D01*
X8127D01*
X8120Y1760D01*
D02*
G37*
G36*
X9644Y1654D02*
X9633Y1653D01*
X9621Y1652D01*
X9610Y1650D01*
X9599Y1648D01*
X9589Y1644D01*
X9579Y1640D01*
X9570Y1635D01*
X9561Y1629D01*
X9553Y1622D01*
X9545Y1615D01*
X9489Y1671D01*
X9496Y1679D01*
X9503Y1687D01*
X9509Y1696D01*
X9514Y1705D01*
X9518Y1715D01*
X9522Y1725D01*
X9524Y1736D01*
X9526Y1747D01*
X9527Y1759D01*
X9528Y1770D01*
X9644Y1654D01*
D02*
G37*
G36*
X8603Y584D02*
X8604Y573D01*
X8606Y563D01*
X8609Y553D01*
X8613Y543D01*
X8618Y533D01*
X8624Y524D01*
X8630Y514D01*
X8637Y506D01*
X8646Y497D01*
X8480D01*
X8489Y506D01*
X8496Y514D01*
X8502Y524D01*
X8508Y533D01*
X8513Y543D01*
X8517Y553D01*
X8520Y563D01*
X8522Y573D01*
X8523Y584D01*
X8524Y595D01*
X8602D01*
X8603Y584D01*
D02*
G37*
G36*
X1910Y9257D02*
X1908Y9266D01*
X1905Y9274D01*
X1900Y9281D01*
X1892Y9288D01*
X1883Y9293D01*
X1871Y9297D01*
X1857Y9301D01*
X1840Y9303D01*
X1822Y9305D01*
X1802Y9305D01*
Y9404D01*
X1822Y9404D01*
X1840Y9405D01*
X1857Y9408D01*
X1871Y9411D01*
X1883Y9416D01*
X1892Y9421D01*
X1900Y9427D01*
X1905Y9435D01*
X1908Y9443D01*
X1910Y9452D01*
Y9257D01*
D02*
G37*
G36*
X781Y9531D02*
X838Y9481D01*
X866Y9460D01*
X892Y9443D01*
X917Y9429D01*
X941Y9418D01*
X964Y9410D01*
X987Y9405D01*
X1008Y9404D01*
X1008Y9305D01*
X987Y9304D01*
X964Y9299D01*
X941Y9291D01*
X917Y9280D01*
X892Y9266D01*
X866Y9248D01*
X838Y9228D01*
X781Y9178D01*
X750Y9148D01*
X750Y9561D01*
X781Y9531D01*
D02*
G37*
G36*
X2413Y9245D02*
X2408Y9239D01*
X2405Y9232D01*
X2401Y9223D01*
X2398Y9213D01*
X2396Y9201D01*
X2394Y9188D01*
X2392Y9157D01*
X2392Y9156D01*
X2392Y9154D01*
X2394Y9123D01*
X2396Y9110D01*
X2398Y9098D01*
X2401Y9088D01*
X2405Y9079D01*
X2408Y9072D01*
X2413Y9066D01*
X2418Y9062D01*
X2267D01*
X2272Y9066D01*
X2277Y9072D01*
X2280Y9079D01*
X2284Y9088D01*
X2287Y9098D01*
X2289Y9110D01*
X2291Y9123D01*
X2293Y9154D01*
X2293Y9156D01*
X2293Y9157D01*
X2291Y9188D01*
X2289Y9201D01*
X2287Y9213D01*
X2284Y9223D01*
X2280Y9232D01*
X2277Y9239D01*
X2272Y9245D01*
X2267Y9249D01*
X2418D01*
X2413Y9245D01*
D02*
G37*
G36*
X2422Y9045D02*
X2426Y9037D01*
X2431Y9030D01*
X2438Y9023D01*
X2448Y9018D01*
X2460Y9014D01*
X2474Y9010D01*
X2490Y9008D01*
X2509Y9006D01*
X2529Y9006D01*
Y8907D01*
X2509Y8907D01*
X2490Y8906D01*
X2474Y8903D01*
X2460Y8900D01*
X2448Y8895D01*
X2438Y8890D01*
X2431Y8884D01*
X2426Y8876D01*
X2422Y8868D01*
X2421Y8859D01*
Y9054D01*
X2422Y9045D01*
D02*
G37*
G36*
X5429Y7239D02*
X5438Y7232D01*
X5447Y7225D01*
X5456Y7220D01*
X5465Y7215D01*
X5474Y7211D01*
X5483Y7208D01*
X5492Y7206D01*
X5501Y7205D01*
X5511Y7205D01*
X5394Y7088D01*
X5393Y7097D01*
X5392Y7106D01*
X5390Y7116D01*
X5387Y7125D01*
X5383Y7134D01*
X5379Y7143D01*
X5373Y7152D01*
X5367Y7160D01*
X5359Y7169D01*
X5351Y7178D01*
X5421Y7247D01*
X5429Y7239D01*
D02*
G37*
D10*
X7028Y3051D02*
X7559D01*
X6988Y3012D02*
X7028Y3051D01*
X6988Y2874D02*
Y3012D01*
X6732Y5512D02*
X6831Y5610D01*
X6732Y5177D02*
Y5512D01*
Y5177D02*
X6791Y5118D01*
X8346Y4783D02*
Y4823D01*
X7992Y4429D02*
X8346Y4783D01*
Y5217D02*
Y5256D01*
X7992Y5610D02*
X8346Y5256D01*
X6831Y5610D02*
X7992D01*
X8661Y7126D02*
Y7579D01*
X6988Y5433D02*
X6988Y5433D01*
Y4902D02*
Y5433D01*
X6791Y4902D02*
Y5118D01*
X7992Y4429D02*
X7992Y4429D01*
X7461Y4429D02*
X7992D01*
D11*
X6004Y5315D02*
X6398Y4921D01*
X6004Y5315D02*
Y5433D01*
X6398Y4823D02*
Y4921D01*
X4173Y4528D02*
X4285Y4416D01*
X3937Y4528D02*
X4173D01*
X3848Y4616D02*
X3937Y4528D01*
X3504Y4616D02*
X3848D01*
X2835Y3031D02*
X4134D01*
X2657Y2854D02*
X2835Y3031D01*
X7992Y2953D02*
X8425Y2520D01*
Y2323D02*
Y2520D01*
Y2323D02*
X8976Y1772D01*
X7992Y2953D02*
Y3622D01*
X8268Y2244D02*
Y2441D01*
X8051Y2657D02*
X8268Y2441D01*
X6791Y2657D02*
X8051D01*
X8976Y1535D02*
X9409D01*
X8268Y2244D02*
X8976Y1535D01*
X8976Y1772D02*
X9252D01*
X9409Y1535D02*
X9646Y1772D01*
X9252Y1772D02*
X9252Y1772D01*
X4154Y3051D02*
Y3150D01*
Y2736D02*
Y3051D01*
X4134Y3031D02*
X4154Y3051D01*
X7441Y2126D02*
X7697Y1870D01*
X5669Y2126D02*
X7441D01*
X4803Y3898D02*
Y4823D01*
X4606Y3701D02*
X4803Y3898D01*
X4606Y3386D02*
Y3701D01*
X4528Y3307D02*
X4606Y3386D01*
X4311Y3307D02*
X4528D01*
X6594Y4232D02*
X6693Y4134D01*
X4350Y3051D02*
X4409Y3110D01*
X4350Y2736D02*
Y3051D01*
X4154Y3150D02*
X4311Y3307D01*
X5118Y3268D02*
Y3740D01*
X4961Y3898D02*
X5118Y3740D01*
X4961Y3898D02*
Y6142D01*
X5118Y3268D02*
X5335Y3051D01*
X5413Y3346D02*
X5531Y3228D01*
Y2736D02*
Y3228D01*
X5728Y2736D02*
Y3425D01*
X5118Y4035D02*
X5728Y3425D01*
X5118Y4035D02*
Y6220D01*
X5335Y2736D02*
Y3051D01*
Y2461D02*
Y2736D01*
Y2461D02*
X5669Y2126D01*
X4285Y3930D02*
Y4416D01*
X4213Y3858D02*
X4285Y3930D01*
X4055Y3858D02*
X4213D01*
X3937Y5118D02*
X4055Y5000D01*
Y4823D02*
Y5000D01*
X4803Y4823D02*
X4803Y4823D01*
Y6063D01*
X4409Y4823D02*
X4803D01*
X6319Y4232D02*
X6594D01*
X7087Y4528D02*
X7185Y4626D01*
X7461D01*
X7874Y4823D02*
X7992D01*
X7677Y4626D02*
X7874Y4823D01*
X7461Y4626D02*
X7677D01*
X7382Y5217D02*
X7382Y5217D01*
X7992D01*
X8228Y3858D02*
X8681D01*
X7992Y3622D02*
X8228Y3858D01*
X7835Y3701D02*
X8150Y4016D01*
X7677Y3740D02*
X8110Y4173D01*
X8681Y3858D02*
X9134Y4311D01*
X7835Y3110D02*
Y3701D01*
X7598Y2874D02*
X7835Y3110D01*
X7677Y3169D02*
Y3740D01*
X7559Y3051D02*
X7677Y3169D01*
X8642Y4016D02*
X8976Y4350D01*
X8150Y4016D02*
X8642D01*
X8110Y4173D02*
X8602D01*
X8819Y4390D01*
X9134Y4311D02*
Y5949D01*
X8976Y4350D02*
Y6988D01*
X7382Y2874D02*
X7598D01*
X8819Y4390D02*
Y6951D01*
X8563Y413D02*
Y787D01*
X8051Y1299D02*
X8563Y787D01*
X8051Y1299D02*
Y1870D01*
X5925Y2736D02*
X6494D01*
X6710Y2520D01*
X7950D01*
X8051Y2419D01*
Y2264D02*
Y2419D01*
X6693Y2756D02*
X6791Y2657D01*
X6693Y2756D02*
Y3346D01*
X8661Y6299D02*
Y6890D01*
Y4508D02*
Y6299D01*
X7362D02*
X8661D01*
X2638Y6732D02*
X4134D01*
X1988Y7382D02*
X2638Y6732D01*
X1988Y7382D02*
Y7579D01*
X9134Y5949D02*
X9539Y6354D01*
X8051Y1870D02*
Y2264D01*
X8346Y4429D02*
X8583D01*
X8661Y4508D01*
X8484Y7067D02*
X8661Y6890D01*
X8484Y7067D02*
Y7354D01*
Y8354D01*
X8661Y7108D02*
X8819Y6951D01*
X8661Y7108D02*
Y7126D01*
X8839D02*
Y7354D01*
Y7126D02*
X8976Y6988D01*
X9539Y7354D02*
X9539Y7354D01*
X8839Y7354D02*
X9539D01*
Y8354D02*
X9539Y8354D01*
X8839Y8354D02*
X9539D01*
X8839Y7756D02*
Y8354D01*
X8661Y7579D02*
X8839Y7756D01*
X1988Y7579D02*
Y7874D01*
X6398Y5315D02*
Y5374D01*
X2559Y7283D02*
X2913Y6929D01*
X2953Y7283D02*
X3150Y7087D01*
X4134Y6732D02*
X4803Y6063D01*
X4173Y6929D02*
X4961Y6142D01*
X4252Y7087D02*
X5118Y6220D01*
X5925Y2264D02*
X7697D01*
X3150Y7087D02*
X4252D01*
X2913Y6929D02*
X4173D01*
X5728Y2461D02*
Y2736D01*
Y2461D02*
X5925Y2264D01*
X6693Y3346D02*
X6791Y3445D01*
Y3760D01*
X6004Y5433D02*
X6004Y5433D01*
X6398Y5315D02*
X6594Y5118D01*
Y4902D02*
Y5118D01*
X6988Y3760D02*
X6988Y3760D01*
Y3228D02*
Y3760D01*
X7185Y3760D02*
X7185Y3760D01*
X7185Y3543D02*
Y3760D01*
Y3543D02*
X7382Y3346D01*
Y3228D02*
Y3346D01*
D12*
X6339Y5433D02*
X6398Y5374D01*
X5276Y4173D02*
Y4882D01*
X5827Y5433D01*
X4054Y3543D02*
Y3858D01*
X539Y4354D02*
X878Y4016D01*
X1378D01*
X1280Y5020D02*
X1378Y4921D01*
Y4429D02*
Y4921D01*
Y4429D02*
X1476Y4331D01*
X539Y7354D02*
X984Y6909D01*
Y5807D02*
Y6909D01*
Y5807D02*
X1280Y5512D01*
Y5020D02*
Y5512D01*
X1083Y4724D02*
Y5413D01*
X539Y5957D02*
X1083Y5413D01*
X539Y5957D02*
Y6354D01*
X6594Y5630D02*
X6752Y5787D01*
X6594Y5512D02*
Y5630D01*
X6516Y5433D02*
X6594Y5512D01*
X6398Y5433D02*
X6516D01*
X5827D02*
X6004D01*
X5512Y4626D02*
X6319D01*
X6319Y4429D02*
X6319Y4429D01*
X5807Y4429D02*
X6319D01*
X5709Y4331D02*
X5807Y4429D01*
X5276Y4173D02*
X5925Y3524D01*
Y2736D02*
Y3524D01*
X3504Y3848D02*
X4044D01*
X4054Y3858D01*
X539Y9354D02*
X539Y9354D01*
X1988D01*
X6752Y5787D02*
X6988D01*
X2461Y5984D02*
X4567D01*
X2461Y5984D02*
X2461Y5984D01*
X6004Y5433D02*
X6339D01*
X1772Y4449D02*
X1772Y4449D01*
X2047D01*
X2136Y4360D01*
X2402D01*
X1772Y4016D02*
Y4449D01*
X1378Y3661D02*
X1378Y3661D01*
X1772D01*
X1772Y3661D02*
X1772Y3661D01*
X1772Y3228D02*
Y3661D01*
X539Y3354D02*
X547Y3346D01*
X984D01*
X2234Y3848D02*
X2402D01*
X2165Y3780D02*
X2234Y3848D01*
X2165Y3228D02*
Y3780D01*
X2165Y3228D02*
X2165Y3228D01*
X3642Y8957D02*
X5512Y7087D01*
X2343Y8957D02*
X3642D01*
X2343D02*
Y9350D01*
D30*
X7874Y492D02*
D03*
D32*
X8839Y7354D02*
D03*
X8484D02*
D03*
X8839Y8354D02*
D03*
X8484D02*
D03*
X1988Y7579D02*
D03*
X2343D02*
D03*
X7697Y2264D02*
D03*
X8051D02*
D03*
X7697Y1870D02*
D03*
X8051D02*
D03*
X4409Y4823D02*
D03*
X4055D02*
D03*
X2343Y8957D02*
D03*
X1988D02*
D03*
Y9354D02*
D03*
X2343D02*
D03*
X4410Y3543D02*
D03*
X4054D02*
D03*
X7992Y5217D02*
D03*
X8346D02*
D03*
Y5610D02*
D03*
X7992D02*
D03*
Y4429D02*
D03*
X8346D02*
D03*
X7992Y4823D02*
D03*
X8346D02*
D03*
D35*
X1378Y3661D02*
D03*
Y4016D02*
D03*
X1772Y2874D02*
D03*
Y3228D02*
D03*
X2165Y2874D02*
D03*
Y3228D02*
D03*
X1772Y4016D02*
D03*
Y3661D02*
D03*
Y4803D02*
D03*
Y4449D02*
D03*
X4055Y4213D02*
D03*
Y3858D02*
D03*
X6988Y3228D02*
D03*
Y2874D02*
D03*
X7382Y3228D02*
D03*
Y2874D02*
D03*
X6398Y5787D02*
D03*
Y5433D02*
D03*
X6004Y5787D02*
D03*
Y5433D02*
D03*
X6988D02*
D03*
Y5787D02*
D03*
D42*
X2165Y3228D02*
X3327D01*
X3642Y3543D01*
X984Y3346D02*
X1102Y3228D01*
X976Y3354D02*
X984Y3346D01*
X539Y3354D02*
X976D01*
X1772Y3228D02*
X2165D01*
X1102D02*
X1772D01*
X8457Y3354D02*
X9539D01*
X8268Y3543D02*
X8457Y3354D01*
X6988Y5787D02*
Y5925D01*
X7362Y6299D01*
D43*
X4528Y3858D02*
Y4035D01*
X4410Y3741D02*
X4528Y3858D01*
X4410Y3543D02*
Y3741D01*
D44*
X1378Y846D02*
D03*
Y1516D02*
D03*
D45*
X539Y8354D02*
D03*
Y4354D02*
D03*
Y5354D02*
D03*
Y6354D02*
D03*
Y7354D02*
D03*
Y9354D02*
D03*
Y10354D02*
D03*
X9539Y8354D02*
D03*
Y4354D02*
D03*
Y5354D02*
D03*
Y6354D02*
D03*
Y7354D02*
D03*
Y9354D02*
D03*
Y10354D02*
D03*
D46*
X539Y3354D02*
D03*
X9539D02*
D03*
D47*
X3642Y3543D02*
D03*
X1181Y2854D02*
D03*
X1476D02*
D03*
X1575Y2461D02*
D03*
X8563Y413D02*
D03*
X2657Y2854D02*
D03*
X7677Y886D02*
D03*
Y1476D02*
D03*
X5413Y3346D02*
D03*
X5512Y4626D02*
D03*
X5709Y4331D02*
D03*
X3543Y5512D02*
D03*
Y5217D02*
D03*
X4528Y4035D02*
D03*
X3937Y5118D02*
D03*
X2461Y9744D02*
D03*
X2657Y8661D02*
D03*
X1673Y8957D02*
D03*
X8563Y11024D02*
D03*
X5906Y10532D02*
D03*
X7382D02*
D03*
X5118Y10335D02*
D03*
X3937Y9154D02*
D03*
X3445Y8661D02*
D03*
X2657Y7972D02*
D03*
X2264Y6398D02*
D03*
X2756D02*
D03*
X3543Y7382D02*
D03*
X4134Y7874D02*
D03*
X4724Y8465D02*
D03*
X5906Y8563D02*
D03*
Y9744D02*
D03*
X7382D02*
D03*
Y8563D02*
D03*
Y6791D02*
D03*
X7677Y7382D02*
D03*
X6004D02*
D03*
X6398Y6791D02*
D03*
X5413Y6693D02*
D03*
X5709Y5709D02*
D03*
X5413D02*
D03*
X4429Y5217D02*
D03*
Y5610D02*
D03*
X295Y7874D02*
D03*
X9843Y4921D02*
D03*
Y5807D02*
D03*
Y6890D02*
D03*
Y8858D02*
D03*
Y7776D02*
D03*
Y9843D02*
D03*
Y11220D02*
D03*
X2067Y11024D02*
D03*
Y11614D02*
D03*
X295Y11122D02*
D03*
Y12008D02*
D03*
Y9843D02*
D03*
Y8858D02*
D03*
Y6890D02*
D03*
Y5807D02*
D03*
Y4823D02*
D03*
X2461Y1181D02*
D03*
Y2461D02*
D03*
X689Y2362D02*
D03*
X8563Y1181D02*
D03*
X7677D02*
D03*
X9843Y2461D02*
D03*
X8563Y2953D02*
D03*
X8858Y2461D02*
D03*
X2953Y2717D02*
D03*
X3445Y2736D02*
D03*
X3839D02*
D03*
X6398Y3051D02*
D03*
Y3346D02*
D03*
X5906Y3937D02*
D03*
X8071Y6004D02*
D03*
X7382Y5217D02*
D03*
X8268Y3543D02*
D03*
X9252Y1772D02*
D03*
X9646Y1772D02*
D03*
X7362Y6299D02*
D03*
X1988Y7874D02*
D03*
X4567Y5984D02*
D03*
X2559Y7283D02*
D03*
X2953D02*
D03*
Y4232D02*
D03*
X2795Y4016D02*
D03*
X3110D02*
D03*
Y4449D02*
D03*
X2795D02*
D03*
X6693Y4134D02*
D03*
X7087D02*
D03*
Y4528D02*
D03*
X6693D02*
D03*
X6890Y4331D02*
D03*
X5512Y7087D02*
D03*
X1083Y4724D02*
D03*
X1476Y4331D02*
D03*
X2461Y5984D02*
D03*
D48*
X6890Y4331D02*
D03*
D49*
X6594Y3760D02*
D03*
X6791D02*
D03*
X6988D02*
D03*
X7185D02*
D03*
Y4902D02*
D03*
X6988D02*
D03*
X6791D02*
D03*
X6594D02*
D03*
D50*
X7382Y3839D02*
D03*
D51*
X7461Y4035D02*
D03*
Y4232D02*
D03*
Y4429D02*
D03*
Y4626D02*
D03*
X6319D02*
D03*
Y4429D02*
D03*
Y4232D02*
D03*
Y4035D02*
D03*
D52*
X7382Y4823D02*
D03*
X6398D02*
D03*
Y3839D02*
D03*
D53*
X2825Y4724D02*
D03*
X3081D02*
D03*
X2825Y3740D02*
D03*
X3081D02*
D03*
D54*
X2953Y4232D02*
D03*
D55*
X2402Y3848D02*
D03*
Y4104D02*
D03*
Y4360D02*
D03*
Y4616D02*
D03*
X3504D02*
D03*
Y4360D02*
D03*
Y3848D02*
D03*
Y4104D02*
D03*
D56*
X5925Y2736D02*
D03*
X5728D02*
D03*
X5531D02*
D03*
X5335D02*
D03*
X5138D02*
D03*
X4941D02*
D03*
X4744D02*
D03*
X4547D02*
D03*
X4154D02*
D03*
X4350D02*
D03*
D57*
X3169Y1161D02*
D03*
X6909D02*
D03*
M02*
