M48
;Layer_Color=9474304
;FILE_FORMAT=2:4
INCH,LZ
;TYPE=PLATED
T1F00S00C0.0118
T2F00S00C0.0394
;TYPE=NON_PLATED
T3F00S00C0.0197
T4F00S00C0.0276
%
T01
X000689Y002362
X001181Y002854
X001476
X001575Y002461
X002461
X002657Y002854
X002953Y002717
X003445Y002736
X003839
X003642Y003543
X00311Y004016
X002795
X002953Y004232
X00311Y004449
X002795
X001476Y004331
X001083Y004724
X000295Y004823
Y005807
Y00689
X002264Y006398
X002756
X002461Y005984
X003543Y005512
Y005217
X003937Y005118
X004429Y005217
Y00561
X004567Y005984
X005413Y005709
X005709
X005512Y004626
X005709Y004331
X005906Y003937
X006693Y004134
X007087
Y004528
X00689Y004331
X006693Y004528
X007382Y005217
X007362Y006299
X007382Y006791
X006398
X005413Y006693
Y003346
X006398
Y003051
X008563Y002953
X008858Y002461
X009843
X009646Y001772
X009252Y001772
X008563Y001181
Y000413
X007677Y000886
Y001181
Y001476
X008268Y003543
X008071Y006004
X009843Y005807
Y004921
Y00689
X004528Y004035
X002461Y001181
X002559Y007283
X002953
X003543Y007382
X004134Y007874
X004724Y008465
X005906Y008563
Y009744
Y010532
X005118Y010335
X003937Y009154
X003445Y008661
X002657
Y007972
X001988Y007874
X001673Y008957
X000295Y008858
Y007874
Y009843
Y011122
Y012008
X002067Y011614
Y011024
X002461Y009744
X007382
Y010532
X008563Y011024
X009843Y01122
Y009843
Y008858
Y007776
X007677Y007382
X007382Y008563
X006004Y007382
X005512Y007087
T02
X000539Y003354
Y004354
Y005354
Y006354
X009539
Y005354
Y004354
Y003354
Y007354
Y008354
Y009354
Y010354
X000539
Y009354
Y008354
Y007354
T03
X004252Y001929
X005827
T04
X001378Y000846
Y001516
M30
