G04*
G04 #@! TF.GenerationSoftware,Altium Limited,Altium Designer,19.1.9 (167)*
G04*
G04 Layer_Color=16711935*
%FSLAX24Y24*%
%MOIN*%
G70*
G01*
G75*
%ADD13R,0.0335X0.0335*%
G04:AMPARAMS|DCode=15|XSize=25.6mil|YSize=19.7mil|CornerRadius=5.4mil|HoleSize=0mil|Usage=FLASHONLY|Rotation=270.000|XOffset=0mil|YOffset=0mil|HoleType=Round|Shape=RoundedRectangle|*
%AMROUNDEDRECTD15*
21,1,0.0256,0.0089,0,0,270.0*
21,1,0.0148,0.0197,0,0,270.0*
1,1,0.0108,-0.0044,-0.0074*
1,1,0.0108,-0.0044,0.0074*
1,1,0.0108,0.0044,0.0074*
1,1,0.0108,0.0044,-0.0074*
%
%ADD15ROUNDEDRECTD15*%
G04:AMPARAMS|DCode=21|XSize=25.6mil|YSize=19.7mil|CornerRadius=5.4mil|HoleSize=0mil|Usage=FLASHONLY|Rotation=180.000|XOffset=0mil|YOffset=0mil|HoleType=Round|Shape=RoundedRectangle|*
%AMROUNDEDRECTD21*
21,1,0.0256,0.0089,0,0,180.0*
21,1,0.0148,0.0197,0,0,180.0*
1,1,0.0108,-0.0074,0.0044*
1,1,0.0108,0.0074,0.0044*
1,1,0.0108,0.0074,-0.0044*
1,1,0.0108,-0.0074,-0.0044*
%
%ADD21ROUNDEDRECTD21*%
%ADD26C,0.0059*%
%ADD27C,0.0020*%
%ADD28C,0.0610*%
%ADD29R,0.0610X0.0610*%
G04:AMPARAMS|DCode=58|XSize=27.6mil|YSize=21.7mil|CornerRadius=6.4mil|HoleSize=0mil|Usage=FLASHONLY|Rotation=270.000|XOffset=0mil|YOffset=0mil|HoleType=Round|Shape=RoundedRectangle|*
%AMROUNDEDRECTD58*
21,1,0.0276,0.0089,0,0,270.0*
21,1,0.0148,0.0217,0,0,270.0*
1,1,0.0128,-0.0044,-0.0074*
1,1,0.0128,-0.0044,0.0074*
1,1,0.0128,0.0044,0.0074*
1,1,0.0128,0.0044,-0.0074*
%
%ADD58ROUNDEDRECTD58*%
%ADD59R,0.0728X0.0728*%
G04:AMPARAMS|DCode=60|XSize=13.8mil|YSize=29.5mil|CornerRadius=3.9mil|HoleSize=0mil|Usage=FLASHONLY|Rotation=0.000|XOffset=0mil|YOffset=0mil|HoleType=Round|Shape=RoundedRectangle|*
%AMROUNDEDRECTD60*
21,1,0.0138,0.0217,0,0,0.0*
21,1,0.0059,0.0295,0,0,0.0*
1,1,0.0079,0.0030,-0.0108*
1,1,0.0079,-0.0030,-0.0108*
1,1,0.0079,-0.0030,0.0108*
1,1,0.0079,0.0030,0.0108*
%
%ADD60ROUNDEDRECTD60*%
G04:AMPARAMS|DCode=61|XSize=15.7mil|YSize=15.7mil|CornerRadius=4.4mil|HoleSize=0mil|Usage=FLASHONLY|Rotation=0.000|XOffset=0mil|YOffset=0mil|HoleType=Round|Shape=RoundedRectangle|*
%AMROUNDEDRECTD61*
21,1,0.0157,0.0069,0,0,0.0*
21,1,0.0069,0.0157,0,0,0.0*
1,1,0.0089,0.0034,-0.0034*
1,1,0.0089,-0.0034,-0.0034*
1,1,0.0089,-0.0034,0.0034*
1,1,0.0089,0.0034,0.0034*
%
%ADD61ROUNDEDRECTD61*%
G04:AMPARAMS|DCode=62|XSize=13.8mil|YSize=29.5mil|CornerRadius=3.9mil|HoleSize=0mil|Usage=FLASHONLY|Rotation=270.000|XOffset=0mil|YOffset=0mil|HoleType=Round|Shape=RoundedRectangle|*
%AMROUNDEDRECTD62*
21,1,0.0138,0.0217,0,0,270.0*
21,1,0.0059,0.0295,0,0,270.0*
1,1,0.0079,-0.0108,-0.0030*
1,1,0.0079,-0.0108,0.0030*
1,1,0.0079,0.0108,0.0030*
1,1,0.0079,0.0108,-0.0030*
%
%ADD62ROUNDEDRECTD62*%
G04:AMPARAMS|DCode=63|XSize=15.7mil|YSize=15.7mil|CornerRadius=4.4mil|HoleSize=0mil|Usage=FLASHONLY|Rotation=270.000|XOffset=0mil|YOffset=0mil|HoleType=Round|Shape=RoundedRectangle|*
%AMROUNDEDRECTD63*
21,1,0.0157,0.0069,0,0,270.0*
21,1,0.0069,0.0157,0,0,270.0*
1,1,0.0089,-0.0034,-0.0034*
1,1,0.0089,-0.0034,0.0034*
1,1,0.0089,0.0034,0.0034*
1,1,0.0089,0.0034,-0.0034*
%
%ADD63ROUNDEDRECTD63*%
%ADD64R,0.0110X0.0344*%
%ADD65R,0.0610X0.0709*%
G04:AMPARAMS|DCode=66|XSize=14.2mil|YSize=25.6mil|CornerRadius=4mil|HoleSize=0mil|Usage=FLASHONLY|Rotation=270.000|XOffset=0mil|YOffset=0mil|HoleType=Round|Shape=RoundedRectangle|*
%AMROUNDEDRECTD66*
21,1,0.0142,0.0175,0,0,270.0*
21,1,0.0061,0.0256,0,0,270.0*
1,1,0.0081,-0.0088,-0.0031*
1,1,0.0081,-0.0088,0.0031*
1,1,0.0081,0.0088,0.0031*
1,1,0.0081,0.0088,-0.0031*
%
%ADD66ROUNDEDRECTD66*%
%ADD67R,0.0118X0.0453*%
%ADD68R,0.0689X0.0610*%
D13*
X7874Y492D02*
D03*
D15*
X8839Y7354D02*
D03*
X8484D02*
D03*
X8839Y8354D02*
D03*
X8484D02*
D03*
X1988Y7579D02*
D03*
X2343D02*
D03*
X7697Y2264D02*
D03*
X8051D02*
D03*
X7697Y1870D02*
D03*
X8051D02*
D03*
X4409Y4823D02*
D03*
X4055D02*
D03*
X2343Y8957D02*
D03*
X1988D02*
D03*
Y9354D02*
D03*
X2343D02*
D03*
X7992Y5217D02*
D03*
X8346D02*
D03*
Y5610D02*
D03*
X7992D02*
D03*
Y4429D02*
D03*
X8346D02*
D03*
X7992Y4823D02*
D03*
X8346D02*
D03*
D21*
X1378Y3661D02*
D03*
Y4016D02*
D03*
X1772Y2874D02*
D03*
Y3228D02*
D03*
X2165Y2874D02*
D03*
Y3228D02*
D03*
X1772Y4016D02*
D03*
Y3661D02*
D03*
Y4803D02*
D03*
Y4449D02*
D03*
X4055Y4213D02*
D03*
Y3858D02*
D03*
X6988Y3228D02*
D03*
Y2874D02*
D03*
X7382Y3228D02*
D03*
Y2874D02*
D03*
X6398Y5787D02*
D03*
Y5433D02*
D03*
X6004Y5787D02*
D03*
Y5433D02*
D03*
X6988D02*
D03*
Y5787D02*
D03*
D26*
X1378Y846D02*
D03*
Y1516D02*
D03*
D27*
X5827Y1929D02*
D03*
X4252D02*
D03*
D28*
X539Y8354D02*
D03*
Y4354D02*
D03*
Y5354D02*
D03*
Y6354D02*
D03*
Y7354D02*
D03*
Y9354D02*
D03*
Y10354D02*
D03*
X9539Y8354D02*
D03*
Y4354D02*
D03*
Y5354D02*
D03*
Y6354D02*
D03*
Y7354D02*
D03*
Y9354D02*
D03*
Y10354D02*
D03*
D29*
X539Y3354D02*
D03*
X9539D02*
D03*
D58*
X4410Y3543D02*
D03*
X4054D02*
D03*
D59*
X6890Y4331D02*
D03*
D60*
X6594Y3760D02*
D03*
X6791D02*
D03*
X6988D02*
D03*
X7185D02*
D03*
Y4902D02*
D03*
X6988D02*
D03*
X6791D02*
D03*
X6594D02*
D03*
D61*
X7382Y3839D02*
D03*
D62*
X7461Y4035D02*
D03*
Y4232D02*
D03*
Y4429D02*
D03*
Y4626D02*
D03*
X6319D02*
D03*
Y4429D02*
D03*
Y4232D02*
D03*
Y4035D02*
D03*
D63*
X7382Y4823D02*
D03*
X6398D02*
D03*
Y3839D02*
D03*
D64*
X2825Y4724D02*
D03*
X3081D02*
D03*
X2825Y3740D02*
D03*
X3081D02*
D03*
D65*
X2953Y4232D02*
D03*
D66*
X2402Y3848D02*
D03*
Y4104D02*
D03*
Y4360D02*
D03*
Y4616D02*
D03*
X3504D02*
D03*
Y4360D02*
D03*
Y3848D02*
D03*
Y4104D02*
D03*
D67*
X5925Y2736D02*
D03*
X5728D02*
D03*
X5531D02*
D03*
X5335D02*
D03*
X5138D02*
D03*
X4941D02*
D03*
X4744D02*
D03*
X4547D02*
D03*
X4154D02*
D03*
X4350D02*
D03*
D68*
X3169Y1161D02*
D03*
X6909D02*
D03*
M02*
