M48
;Layer_Color=9474304
;FILE_FORMAT=2:4
INCH,LZ
;TYPE=PLATED
T1F00S00C0.0118
T2F00S00C0.0394
;TYPE=NON_PLATED
T3F00S00C0.0197
T4F00S00C0.0276
%
T01
X001083Y001181
X00187
X002461
X002362Y000492
X002657Y000197
X002756Y002559
X002461
X002362Y003248
X003071Y003504
X003445Y003346
X003642Y003642
X00374Y003051
X003976Y004902
X004291
X004134Y005118
X003976Y005335
X004291
X00563Y005512
Y005118
X005748Y004803
X006496Y004921
Y005315
X006693Y005118
X00689Y005315
Y004921
X006594Y004232
X006201
X006398Y003543
X006496Y002854
X005551Y003425
X005315Y003917
X007283Y004035
X007382Y003642
X007776Y00315
X008563
X008268Y002559
X008858
Y001969
X008268
Y00128
X007874Y001575
Y000886
X008268Y000591
X00748Y00128
Y001969
X007874Y002264
X009252Y002205
X009646Y002756
X009213Y003898
X009252Y004823
X008268Y004724
Y004331
X008563Y006004
X009843Y006791
X006988
X006594
X006201
X005807
X005413
X004823
X002756Y006831
X001575Y006496
X000197Y006791
Y005807
Y004823
Y003937
X00126Y00378
X001476Y002559
X000787
X000295Y002756
X002874Y005079
X002756Y007421
X002854Y007972
X003839
X004331Y007795
X004626Y008071
X005413Y008169
Y008563
X005807Y008169
X006201Y007874
X006398Y008661
Y009449
Y010236
X006791Y010827
X006594Y011319
X007382
X008268
X008957
X009744
X009843Y009843
Y008858
Y007874
X009134Y007992
X008858Y007795
X008465Y008602
Y009193
Y009646
Y01063
X005807Y011319
X00502
X004232
X003445
X002657
X00187
X001083
X000295
X000197Y009941
Y008858
X001083
X001673
X002165Y009154
X001378Y009941
X001083Y010335
X002657Y010433
X003937Y007283
X00689Y00748
X007283Y007087
X000197Y007776
T02
X000539Y003354
Y004354
Y005354
Y006354
X009539
Y005354
Y004354
Y003354
Y007354
Y008354
Y009354
Y010354
X000539
Y009354
Y008354
Y007354
T03
X004252Y001929
X005827
T04
X001378Y000846
Y001516
M30
