G04*
G04 #@! TF.GenerationSoftware,Altium Limited,Altium Designer,19.1.9 (167)*
G04*
G04 Layer_Physical_Order=2*
G04 Layer_Color=16711680*
%FSLAX24Y24*%
%MOIN*%
G70*
G01*
G75*
%ADD10C,0.0059*%
%ADD11C,0.0079*%
%ADD12C,0.0098*%
G04:AMPARAMS|DCode=31|XSize=23.6mil|YSize=17.7mil|CornerRadius=4.4mil|HoleSize=0mil|Usage=FLASHONLY|Rotation=270.000|XOffset=0mil|YOffset=0mil|HoleType=Round|Shape=RoundedRectangle|*
%AMROUNDEDRECTD31*
21,1,0.0236,0.0089,0,0,270.0*
21,1,0.0148,0.0177,0,0,270.0*
1,1,0.0089,-0.0044,-0.0074*
1,1,0.0089,-0.0044,0.0074*
1,1,0.0089,0.0044,0.0074*
1,1,0.0089,0.0044,-0.0074*
%
%ADD31ROUNDEDRECTD31*%
%ADD32R,0.0315X0.0315*%
G04:AMPARAMS|DCode=35|XSize=23.6mil|YSize=17.7mil|CornerRadius=4.4mil|HoleSize=0mil|Usage=FLASHONLY|Rotation=180.000|XOffset=0mil|YOffset=0mil|HoleType=Round|Shape=RoundedRectangle|*
%AMROUNDEDRECTD35*
21,1,0.0236,0.0089,0,0,180.0*
21,1,0.0148,0.0177,0,0,180.0*
1,1,0.0089,-0.0074,0.0044*
1,1,0.0089,0.0074,0.0044*
1,1,0.0089,0.0074,-0.0044*
1,1,0.0089,-0.0074,-0.0044*
%
%ADD35ROUNDEDRECTD35*%
%ADD44C,0.0157*%
%ADD45C,0.0039*%
%ADD46C,0.0591*%
%ADD47R,0.0591X0.0591*%
%ADD48C,0.0236*%
%ADD49R,0.0709X0.0709*%
G04:AMPARAMS|DCode=50|XSize=11.8mil|YSize=27.6mil|CornerRadius=3mil|HoleSize=0mil|Usage=FLASHONLY|Rotation=0.000|XOffset=0mil|YOffset=0mil|HoleType=Round|Shape=RoundedRectangle|*
%AMROUNDEDRECTD50*
21,1,0.0118,0.0217,0,0,0.0*
21,1,0.0059,0.0276,0,0,0.0*
1,1,0.0059,0.0030,-0.0108*
1,1,0.0059,-0.0030,-0.0108*
1,1,0.0059,-0.0030,0.0108*
1,1,0.0059,0.0030,0.0108*
%
%ADD50ROUNDEDRECTD50*%
G04:AMPARAMS|DCode=51|XSize=13.8mil|YSize=13.8mil|CornerRadius=3.4mil|HoleSize=0mil|Usage=FLASHONLY|Rotation=0.000|XOffset=0mil|YOffset=0mil|HoleType=Round|Shape=RoundedRectangle|*
%AMROUNDEDRECTD51*
21,1,0.0138,0.0069,0,0,0.0*
21,1,0.0069,0.0138,0,0,0.0*
1,1,0.0069,0.0034,-0.0034*
1,1,0.0069,-0.0034,-0.0034*
1,1,0.0069,-0.0034,0.0034*
1,1,0.0069,0.0034,0.0034*
%
%ADD51ROUNDEDRECTD51*%
G04:AMPARAMS|DCode=52|XSize=11.8mil|YSize=27.6mil|CornerRadius=3mil|HoleSize=0mil|Usage=FLASHONLY|Rotation=270.000|XOffset=0mil|YOffset=0mil|HoleType=Round|Shape=RoundedRectangle|*
%AMROUNDEDRECTD52*
21,1,0.0118,0.0217,0,0,270.0*
21,1,0.0059,0.0276,0,0,270.0*
1,1,0.0059,-0.0108,-0.0030*
1,1,0.0059,-0.0108,0.0030*
1,1,0.0059,0.0108,0.0030*
1,1,0.0059,0.0108,-0.0030*
%
%ADD52ROUNDEDRECTD52*%
G04:AMPARAMS|DCode=53|XSize=13.8mil|YSize=13.8mil|CornerRadius=3.4mil|HoleSize=0mil|Usage=FLASHONLY|Rotation=270.000|XOffset=0mil|YOffset=0mil|HoleType=Round|Shape=RoundedRectangle|*
%AMROUNDEDRECTD53*
21,1,0.0138,0.0069,0,0,270.0*
21,1,0.0069,0.0138,0,0,270.0*
1,1,0.0069,-0.0034,-0.0034*
1,1,0.0069,-0.0034,0.0034*
1,1,0.0069,0.0034,0.0034*
1,1,0.0069,0.0034,-0.0034*
%
%ADD53ROUNDEDRECTD53*%
%ADD54R,0.0091X0.0325*%
%ADD55R,0.0591X0.0689*%
G04:AMPARAMS|DCode=56|XSize=12.2mil|YSize=23.6mil|CornerRadius=3.1mil|HoleSize=0mil|Usage=FLASHONLY|Rotation=270.000|XOffset=0mil|YOffset=0mil|HoleType=Round|Shape=RoundedRectangle|*
%AMROUNDEDRECTD56*
21,1,0.0122,0.0175,0,0,270.0*
21,1,0.0061,0.0236,0,0,270.0*
1,1,0.0061,-0.0088,-0.0031*
1,1,0.0061,-0.0088,0.0031*
1,1,0.0061,0.0088,0.0031*
1,1,0.0061,0.0088,-0.0031*
%
%ADD56ROUNDEDRECTD56*%
%ADD57R,0.0098X0.0433*%
%ADD58R,0.0669X0.0591*%
G36*
X9998Y5788D02*
X9952Y5769D01*
X9770Y5951D01*
X9734Y5976D01*
X9730Y5994D01*
X9728Y6020D01*
X9729Y6029D01*
X9806Y6088D01*
X9866Y6166D01*
X9904Y6257D01*
X9917Y6354D01*
X9904Y6452D01*
X9866Y6543D01*
X9806Y6621D01*
X9728Y6681D01*
X9637Y6719D01*
X9539Y6732D01*
X9442Y6719D01*
X9351Y6681D01*
X9273Y6621D01*
X9213Y6543D01*
X9181Y6467D01*
X9129Y6472D01*
X9127Y6483D01*
X9101Y6522D01*
X9101Y6522D01*
X8435Y7188D01*
X8454Y7234D01*
X9075D01*
X9076Y7234D01*
X9087Y7231D01*
X9101Y7226D01*
X9118Y7218D01*
X9138Y7206D01*
X9161Y7190D01*
X9185Y7171D01*
X9241Y7121D01*
X9265Y7098D01*
X9273Y7088D01*
X9351Y7028D01*
X9442Y6990D01*
X9539Y6977D01*
X9637Y6990D01*
X9728Y7028D01*
X9806Y7088D01*
X9866Y7166D01*
X9904Y7257D01*
X9917Y7354D01*
X9904Y7452D01*
X9866Y7543D01*
X9806Y7621D01*
X9728Y7681D01*
X9637Y7719D01*
X9539Y7732D01*
X9503Y7727D01*
X9480Y7774D01*
X9625Y7919D01*
X9651Y7958D01*
X9659Y7999D01*
X9728Y8028D01*
X9806Y8088D01*
X9866Y8166D01*
X9904Y8257D01*
X9917Y8354D01*
X9904Y8452D01*
X9866Y8543D01*
X9806Y8621D01*
X9728Y8681D01*
X9637Y8719D01*
X9539Y8732D01*
X9442Y8719D01*
X9351Y8681D01*
X9273Y8621D01*
X9213Y8543D01*
X9175Y8452D01*
X9162Y8354D01*
X9175Y8257D01*
X9187Y8227D01*
X9155Y8189D01*
X9134Y8193D01*
X9124Y8191D01*
X9120Y8191D01*
X9115Y8192D01*
X9110Y8193D01*
X9106Y8195D01*
X9103Y8196D01*
X9099Y8198D01*
X9096Y8200D01*
X8861Y8436D01*
Y8917D01*
X8851Y8963D01*
X8825Y9002D01*
X8672Y9155D01*
X8670Y9159D01*
X8669Y9162D01*
X8667Y9165D01*
X8666Y9169D01*
X8665Y9174D01*
X8664Y9179D01*
X8663Y9183D01*
X8665Y9193D01*
X8650Y9270D01*
X8606Y9335D01*
X8541Y9378D01*
X8465Y9394D01*
X8388Y9378D01*
X8323Y9335D01*
X8279Y9270D01*
X8264Y9193D01*
X8279Y9116D01*
X8323Y9051D01*
X8388Y9007D01*
X8465Y8992D01*
X8475Y8994D01*
X8479Y8994D01*
X8484Y8993D01*
X8488Y8992D01*
X8492Y8991D01*
X8496Y8989D01*
X8499Y8987D01*
X8502Y8985D01*
X8620Y8867D01*
Y8796D01*
X8570Y8769D01*
X8541Y8788D01*
X8465Y8803D01*
X8388Y8788D01*
X8323Y8744D01*
X8279Y8679D01*
X8264Y8602D01*
X8279Y8526D01*
X8323Y8460D01*
X8342Y8447D01*
X8343Y8447D01*
X8343Y8446D01*
X8344Y8443D01*
X8344Y8439D01*
Y8425D01*
X8344Y8425D01*
X8353Y8379D01*
X8379Y8340D01*
X8729Y7991D01*
X8719Y7939D01*
X8716Y7937D01*
X8673Y7872D01*
X8658Y7795D01*
X8671Y7729D01*
X8643Y7679D01*
X8436D01*
X7676Y8439D01*
X7637Y8466D01*
X7591Y8475D01*
X7591Y8475D01*
X6066D01*
X6030Y8510D01*
X5991Y8536D01*
X5945Y8546D01*
X5945Y8546D01*
X5669D01*
X5669Y8546D01*
X5623Y8536D01*
X5584Y8510D01*
X5584Y8510D01*
X5451Y8377D01*
X5448Y8375D01*
X5444Y8373D01*
X5441Y8372D01*
X5437Y8370D01*
X5433Y8369D01*
X5428Y8368D01*
X5423Y8368D01*
X5413Y8370D01*
X5337Y8355D01*
X5271Y8311D01*
X5228Y8246D01*
X5213Y8169D01*
X5228Y8092D01*
X5256Y8051D01*
X5251Y7987D01*
X5224Y7947D01*
X5214Y7899D01*
Y7810D01*
X5224Y7762D01*
X5251Y7721D01*
X5275Y7705D01*
X5276Y7702D01*
Y7652D01*
X5275Y7649D01*
X5252Y7634D01*
X5247Y7633D01*
X5239Y7631D01*
X5231Y7631D01*
X4974Y7888D01*
X4932Y7916D01*
X4882Y7926D01*
X4494D01*
X4490Y7926D01*
X4486Y7927D01*
X4482Y7929D01*
X4479Y7930D01*
X4477Y7931D01*
X4477Y7931D01*
X4473Y7937D01*
X4408Y7981D01*
X4331Y7996D01*
X4254Y7981D01*
X4189Y7937D01*
X4145Y7872D01*
X4139Y7840D01*
X4094Y7798D01*
X4094Y7798D01*
X1969D01*
X1922Y7788D01*
X1883Y7762D01*
X1883Y7762D01*
X1596Y7475D01*
X1004D01*
X1002Y7475D01*
X992Y7477D01*
X978Y7483D01*
X961Y7491D01*
X940Y7503D01*
X918Y7519D01*
X894Y7537D01*
X837Y7588D01*
X814Y7611D01*
X806Y7621D01*
X728Y7681D01*
X637Y7719D01*
X539Y7732D01*
X442Y7719D01*
X351Y7681D01*
X273Y7621D01*
X213Y7543D01*
X175Y7452D01*
X162Y7354D01*
X175Y7257D01*
X213Y7166D01*
X273Y7088D01*
X351Y7028D01*
X442Y6990D01*
X539Y6977D01*
X637Y6990D01*
X728Y7028D01*
X806Y7088D01*
X814Y7098D01*
X837Y7121D01*
X894Y7171D01*
X918Y7190D01*
X940Y7206D01*
X961Y7218D01*
X978Y7226D01*
X992Y7231D01*
X1002Y7234D01*
X1004Y7234D01*
X1646D01*
X1646Y7234D01*
X1692Y7243D01*
X1731Y7269D01*
X2018Y7557D01*
X2557D01*
X2580Y7513D01*
X2570Y7498D01*
X2555Y7421D01*
X2557Y7411D01*
X2557Y7407D01*
X2556Y7402D01*
X2555Y7398D01*
X2554Y7394D01*
X2552Y7390D01*
X2550Y7387D01*
X2548Y7384D01*
X2435Y7270D01*
X2408Y7231D01*
X2399Y7185D01*
X2399Y7185D01*
Y6614D01*
X2399Y6614D01*
X2408Y6568D01*
X2435Y6529D01*
X3064Y5899D01*
X3064Y5899D01*
X3104Y5873D01*
X3150Y5864D01*
X4320D01*
X4467Y5717D01*
X4467Y5717D01*
X4506Y5691D01*
X4544Y5683D01*
X4551Y5651D01*
X4550Y5632D01*
X4519Y5611D01*
X4495Y5575D01*
X4486Y5532D01*
Y5471D01*
X4495Y5429D01*
X4519Y5393D01*
X4555Y5369D01*
X4597Y5360D01*
X4614D01*
X4624Y5354D01*
X4685Y5341D01*
X4766D01*
X4780Y5327D01*
Y4895D01*
X4685D01*
X4624Y4883D01*
X4614Y4876D01*
X4597D01*
X4555Y4868D01*
X4519Y4844D01*
X4495Y4807D01*
X4486Y4765D01*
Y4704D01*
X4495Y4661D01*
X4519Y4625D01*
X4555Y4601D01*
X4597Y4592D01*
X4614D01*
X4624Y4586D01*
X4685Y4574D01*
X4780D01*
Y4515D01*
X4463Y4197D01*
X4455Y4198D01*
X4445Y4200D01*
X4440Y4201D01*
X4403Y4225D01*
X4355Y4235D01*
X4267D01*
X4219Y4225D01*
X4178Y4198D01*
X4151Y4157D01*
X4141Y4109D01*
Y3962D01*
X4146Y3938D01*
X4150Y3818D01*
Y3802D01*
X4100Y3787D01*
X4089Y3804D01*
X4048Y3831D01*
X4000Y3841D01*
X3912D01*
X3884Y3836D01*
X3883Y3836D01*
X3882Y3835D01*
X3864Y3831D01*
X3855Y3826D01*
X3854Y3825D01*
X3846Y3820D01*
X3839Y3817D01*
X3831Y3814D01*
X3820Y3811D01*
X3807Y3808D01*
X3793Y3806D01*
X3755Y3803D01*
X3719Y3827D01*
X3642Y3842D01*
X3565Y3827D01*
X3500Y3784D01*
X3456Y3719D01*
X3441Y3642D01*
X3456Y3565D01*
X3500Y3500D01*
X3565Y3456D01*
X3642Y3441D01*
X3719Y3456D01*
X3754Y3480D01*
X3763Y3481D01*
X3792Y3478D01*
X3807Y3475D01*
X3820Y3472D01*
X3831Y3469D01*
X3839Y3466D01*
X3846Y3463D01*
X3854Y3458D01*
X3855Y3458D01*
X3864Y3452D01*
X3882Y3448D01*
X3883Y3448D01*
X3884Y3448D01*
X3912Y3442D01*
X4000D01*
X4048Y3452D01*
X4089Y3479D01*
X4106Y3505D01*
X4111Y3507D01*
X4157D01*
X4162Y3505D01*
X4179Y3479D01*
X4220Y3452D01*
X4268Y3442D01*
X4356D01*
X4404Y3452D01*
X4445Y3479D01*
X4472Y3520D01*
X4482Y3568D01*
Y3716D01*
X4477Y3740D01*
X4473Y3831D01*
X4518Y3875D01*
X4528D01*
X4528Y3875D01*
X4589Y3887D01*
X4641Y3922D01*
X4755Y4035D01*
X4801Y4016D01*
Y3445D01*
X4801Y3445D01*
X4810Y3399D01*
X4836Y3360D01*
X5098Y3097D01*
X5079Y3051D01*
X4990D01*
Y3031D01*
X4498D01*
Y3051D01*
X4429D01*
Y3032D01*
X4419D01*
Y2736D01*
Y2441D01*
X4429D01*
Y2421D01*
X4498D01*
Y2441D01*
X4990D01*
Y2421D01*
X5059D01*
Y2441D01*
X5069D01*
Y2736D01*
X5207D01*
Y2441D01*
X5217D01*
Y2421D01*
X5285D01*
Y2441D01*
X5384D01*
Y2421D01*
X5453D01*
Y2441D01*
X5463D01*
Y2736D01*
X5600D01*
Y2441D01*
X5610D01*
Y2421D01*
X5679D01*
Y2441D01*
X5805D01*
Y2345D01*
X5804Y2326D01*
X3610D01*
X2818Y3118D01*
Y4349D01*
X2822Y4384D01*
X2822Y4385D01*
X2874Y4387D01*
X2907D01*
X2936Y4385D01*
X2940Y4385D01*
X2977Y4378D01*
X3125D01*
X3171Y4387D01*
X3248D01*
X3248Y4387D01*
X3309Y4399D01*
X3362Y4434D01*
X3502Y4574D01*
X3583D01*
X3644Y4586D01*
X3654Y4592D01*
X3670D01*
X3713Y4601D01*
X3749Y4625D01*
X3773Y4661D01*
X3782Y4704D01*
Y4765D01*
X3773Y4807D01*
X3749Y4844D01*
X3713Y4868D01*
X3670Y4876D01*
X3654D01*
X3644Y4883D01*
X3583Y4895D01*
X3435D01*
X3374Y4883D01*
X3322Y4848D01*
X3322Y4848D01*
X3182Y4708D01*
X3171D01*
X3125Y4717D01*
X2977D01*
X2953Y4712D01*
X2834Y4708D01*
X2802D01*
X2773Y4709D01*
X2769Y4709D01*
X2731Y4717D01*
X2584D01*
X2560Y4712D01*
X2441Y4708D01*
X2425D01*
X2410Y4758D01*
X2426Y4769D01*
X2453Y4809D01*
X2463Y4857D01*
Y4946D01*
X2453Y4994D01*
X2426Y5035D01*
X2386Y5062D01*
X2384Y5062D01*
Y5174D01*
X2386Y5174D01*
X2408Y5190D01*
X2409Y5190D01*
X2410Y5191D01*
X2426Y5202D01*
X2432Y5210D01*
X2432Y5210D01*
X2433Y5212D01*
X2435Y5212D01*
X2439Y5213D01*
X2445Y5214D01*
X2446Y5214D01*
X2982D01*
X3035Y5161D01*
X3035Y5161D01*
X3074Y5135D01*
X3120Y5126D01*
X3410D01*
X3425Y5124D01*
X3430Y5123D01*
X3435Y5122D01*
X3438Y5121D01*
X3440Y5121D01*
X3440Y5120D01*
X3443Y5119D01*
X3444Y5119D01*
X3452Y5113D01*
X3471Y5109D01*
X3472Y5108D01*
X3473Y5109D01*
X3495Y5104D01*
X3670D01*
X3713Y5113D01*
X3749Y5137D01*
X3773Y5173D01*
X3782Y5216D01*
Y5277D01*
X3773Y5319D01*
X3749Y5355D01*
X3713Y5379D01*
X3670Y5388D01*
X3495D01*
X3473Y5384D01*
X3472Y5384D01*
X3471Y5383D01*
X3452Y5379D01*
X3444Y5374D01*
X3443Y5373D01*
X3440Y5372D01*
X3440Y5372D01*
X3438Y5371D01*
X3435Y5370D01*
X3430Y5369D01*
X3426Y5368D01*
X3405Y5366D01*
X3170D01*
X3117Y5420D01*
X3078Y5446D01*
X3031Y5455D01*
X3031Y5455D01*
X2446D01*
X2445Y5455D01*
X2439Y5456D01*
X2435Y5457D01*
X2433Y5458D01*
X2432Y5459D01*
X2432Y5459D01*
X2426Y5468D01*
X2410Y5479D01*
X2409Y5480D01*
X2408Y5480D01*
X2402Y5484D01*
X2401Y5487D01*
Y5537D01*
X2402Y5540D01*
X2426Y5556D01*
X2453Y5597D01*
X2463Y5645D01*
Y5650D01*
X2065D01*
Y5645D01*
X2074Y5597D01*
X2101Y5556D01*
X2126Y5540D01*
X2127Y5537D01*
Y5487D01*
X2126Y5484D01*
X2101Y5468D01*
X2074Y5427D01*
X2065Y5379D01*
Y5290D01*
X2074Y5242D01*
X2101Y5202D01*
X2142Y5174D01*
X2143Y5174D01*
Y5062D01*
X2142Y5062D01*
X2101Y5035D01*
X2074Y4994D01*
X2065Y4946D01*
Y4857D01*
X2074Y4809D01*
X2101Y4769D01*
X2126Y4752D01*
X2127Y4749D01*
Y4699D01*
X2126Y4697D01*
X2101Y4680D01*
X2074Y4640D01*
X2065Y4592D01*
Y4503D01*
X2070Y4476D01*
X2070Y4475D01*
X2070Y4473D01*
X2074Y4455D01*
X2080Y4446D01*
X2080Y4445D01*
X2085Y4437D01*
X2088Y4431D01*
X2091Y4422D01*
X2094Y4411D01*
X2097Y4398D01*
X2100Y4385D01*
X2103Y4339D01*
Y4004D01*
X1615Y3515D01*
X956D01*
X944Y3516D01*
X927Y3519D01*
X915Y3522D01*
X913Y3523D01*
Y3728D01*
X165D01*
Y2980D01*
X913D01*
Y3186D01*
X915Y3187D01*
X927Y3190D01*
X944Y3193D01*
X956Y3194D01*
X1681D01*
X1681Y3194D01*
X1743Y3206D01*
X1795Y3241D01*
X2377Y3823D01*
X2377Y3823D01*
X2412Y3876D01*
X2424Y3937D01*
X2424Y3937D01*
Y4349D01*
X2428Y4384D01*
X2428Y4385D01*
X2481Y4387D01*
X2493D01*
X2493Y4385D01*
X2497Y4339D01*
Y3051D01*
X2497Y3051D01*
X2509Y2990D01*
X2544Y2938D01*
X3430Y2052D01*
X3430Y2052D01*
X3482Y2017D01*
X3543Y2005D01*
X3543Y2005D01*
X4035D01*
X4076Y1955D01*
X4071Y1929D01*
X4085Y1860D01*
X4124Y1801D01*
X4183Y1762D01*
X4252Y1749D01*
X4321Y1762D01*
X4380Y1801D01*
X4419Y1860D01*
X4433Y1929D01*
X4428Y1955D01*
X4469Y2005D01*
X5610D01*
X5651Y1955D01*
X5646Y1929D01*
X5660Y1860D01*
X5699Y1801D01*
X5758Y1762D01*
X5827Y1749D01*
X5896Y1762D01*
X5954Y1801D01*
X5994Y1860D01*
X6007Y1929D01*
X6002Y1955D01*
X6043Y2005D01*
X6791D01*
X6791Y2005D01*
X6853Y2017D01*
X6905Y2052D01*
X7808Y2955D01*
X7852Y2964D01*
X7918Y3008D01*
X7961Y3073D01*
X7976Y3150D01*
X7961Y3226D01*
X7918Y3292D01*
X7915Y3293D01*
X7930Y3343D01*
X8142D01*
X8369Y3117D01*
X8378Y3073D01*
X8421Y3008D01*
X8486Y2964D01*
X8563Y2949D01*
X8640Y2964D01*
X8675Y2988D01*
X8695Y2989D01*
X8819D01*
X8819Y2989D01*
X8880Y3001D01*
X8932Y3036D01*
X9090Y3194D01*
X9123D01*
X9135Y3193D01*
X9152Y3190D01*
X9164Y3187D01*
X9165Y3186D01*
Y2980D01*
X9830D01*
Y2599D01*
X9556Y2325D01*
X9425D01*
X9422Y2326D01*
X9418Y2327D01*
X9415Y2328D01*
X9411Y2330D01*
X9407Y2333D01*
X9403Y2336D01*
X9400Y2338D01*
X9394Y2347D01*
X9329Y2390D01*
X9252Y2405D01*
X9175Y2390D01*
X9110Y2347D01*
X9067Y2282D01*
X9051Y2205D01*
X9067Y2128D01*
X9110Y2063D01*
X9175Y2019D01*
X9252Y2004D01*
X9329Y2019D01*
X9394Y2063D01*
X9400Y2071D01*
X9403Y2074D01*
X9407Y2077D01*
X9411Y2079D01*
X9415Y2081D01*
X9418Y2082D01*
X9422Y2084D01*
X9425Y2084D01*
X9606D01*
X9606Y2084D01*
X9652Y2093D01*
X9691Y2120D01*
X9952Y2380D01*
X9998Y2361D01*
Y80D01*
X7041D01*
X6395Y726D01*
X6395Y726D01*
X6369Y743D01*
X6339Y750D01*
X3740D01*
X3709Y743D01*
X3683Y726D01*
X3038Y80D01*
X907D01*
Y1870D01*
X901Y1901D01*
X884Y1927D01*
X80Y2730D01*
Y11516D01*
X2067D01*
Y11516D01*
X7972Y11516D01*
X9998D01*
Y5788D01*
D02*
G37*
G36*
X8583Y9180D02*
X8584Y9168D01*
X8586Y9157D01*
X8589Y9147D01*
X8592Y9136D01*
X8596Y9127D01*
X8601Y9117D01*
X8607Y9108D01*
X8614Y9100D01*
X8621Y9092D01*
X8566Y9036D01*
X8558Y9044D01*
X8549Y9050D01*
X8540Y9056D01*
X8531Y9061D01*
X8521Y9065D01*
X8511Y9069D01*
X8500Y9072D01*
X8489Y9073D01*
X8478Y9075D01*
X8466Y9075D01*
X8583Y9192D01*
X8583Y9180D01*
D02*
G37*
G36*
X8528Y8502D02*
X8523Y8496D01*
X8518Y8490D01*
X8515Y8483D01*
X8511Y8476D01*
X8509Y8467D01*
X8507Y8458D01*
X8505Y8448D01*
X8504Y8437D01*
X8504Y8425D01*
X8425D01*
X8425Y8437D01*
X8424Y8448D01*
X8423Y8458D01*
X8420Y8467D01*
X8418Y8476D01*
X8415Y8483D01*
X8411Y8490D01*
X8406Y8496D01*
X8401Y8502D01*
X8396Y8506D01*
X8533D01*
X8528Y8502D01*
D02*
G37*
G36*
X5570Y8270D02*
X5563Y8262D01*
X5556Y8254D01*
X5550Y8245D01*
X5545Y8236D01*
X5541Y8226D01*
X5537Y8216D01*
X5535Y8205D01*
X5533Y8194D01*
X5532Y8182D01*
X5531Y8170D01*
X5415Y8287D01*
X5426Y8288D01*
X5438Y8289D01*
X5449Y8291D01*
X5460Y8293D01*
X5470Y8297D01*
X5480Y8301D01*
X5489Y8306D01*
X5498Y8312D01*
X5506Y8319D01*
X5514Y8326D01*
X5570Y8270D01*
D02*
G37*
G36*
X5900Y8244D02*
X5909Y8236D01*
X5918Y8230D01*
X5927Y8224D01*
X5937Y8219D01*
X5947Y8216D01*
X5957Y8213D01*
X5968Y8210D01*
X5978Y8209D01*
X5989Y8209D01*
Y8130D01*
X5978Y8129D01*
X5968Y8128D01*
X5957Y8126D01*
X5947Y8123D01*
X5937Y8119D01*
X5927Y8114D01*
X5918Y8109D01*
X5909Y8102D01*
X5900Y8095D01*
X5891Y8087D01*
Y8252D01*
X5900Y8244D01*
D02*
G37*
G36*
X9599Y8065D02*
X9595Y8062D01*
X9591Y8058D01*
X9588Y8054D01*
X9585Y8048D01*
X9583Y8041D01*
X9581Y8033D01*
X9580Y8025D01*
X9579Y8015D01*
X9579Y8004D01*
X9500D01*
X9500Y8015D01*
X9499Y8025D01*
X9498Y8033D01*
X9496Y8041D01*
X9494Y8048D01*
X9491Y8054D01*
X9488Y8058D01*
X9484Y8062D01*
X9480Y8065D01*
X9475Y8066D01*
X9604D01*
X9599Y8065D01*
D02*
G37*
G36*
X9041Y8141D02*
X9049Y8135D01*
X9058Y8129D01*
X9068Y8124D01*
X9077Y8120D01*
X9088Y8116D01*
X9098Y8113D01*
X9109Y8112D01*
X9121Y8111D01*
X9133Y8110D01*
X9016Y7993D01*
X9015Y8005D01*
X9014Y8017D01*
X9013Y8028D01*
X9010Y8038D01*
X9006Y8049D01*
X9002Y8058D01*
X8997Y8068D01*
X8991Y8077D01*
X8985Y8085D01*
X8977Y8093D01*
X9033Y8149D01*
X9041Y8141D01*
D02*
G37*
G36*
X5882Y8076D02*
X5874Y8067D01*
X5868Y8058D01*
X5862Y8049D01*
X5857Y8039D01*
X5853Y8029D01*
X5850Y8019D01*
X5848Y8009D01*
X5847Y8001D01*
X5848Y7992D01*
X5850Y7980D01*
X5853Y7970D01*
X5856Y7961D01*
X5861Y7953D01*
X5866Y7948D01*
X5871Y7944D01*
X5878Y7941D01*
X5886Y7940D01*
X5729Y7940D01*
X5736Y7941D01*
X5743Y7944D01*
X5749Y7948D01*
X5754Y7953D01*
X5758Y7961D01*
X5761Y7970D01*
X5764Y7980D01*
X5766Y7992D01*
X5767Y8001D01*
X5766Y8009D01*
X5764Y8019D01*
X5761Y8029D01*
X5757Y8039D01*
X5752Y8049D01*
X5746Y8058D01*
X5740Y8067D01*
X5733Y8076D01*
X5724Y8085D01*
X5890D01*
X5882Y8076D01*
D02*
G37*
G36*
X5488D02*
X5480Y8067D01*
X5474Y8058D01*
X5468Y8049D01*
X5464Y8039D01*
X5460Y8029D01*
X5457Y8019D01*
X5454Y8009D01*
X5454Y8001D01*
X5454Y7992D01*
X5456Y7980D01*
X5459Y7970D01*
X5463Y7961D01*
X5467Y7953D01*
X5472Y7948D01*
X5478Y7944D01*
X5484Y7941D01*
X5492Y7940D01*
X5335Y7940D01*
X5342Y7941D01*
X5349Y7944D01*
X5355Y7948D01*
X5360Y7953D01*
X5364Y7961D01*
X5368Y7970D01*
X5370Y7980D01*
X5372Y7992D01*
X5373Y8001D01*
X5372Y8009D01*
X5370Y8019D01*
X5367Y8029D01*
X5363Y8039D01*
X5358Y8049D01*
X5353Y8058D01*
X5346Y8067D01*
X5339Y8076D01*
X5331Y8085D01*
X5496D01*
X5488Y8076D01*
D02*
G37*
G36*
X8898Y7967D02*
X8899Y7956D01*
X8902Y7945D01*
X8905Y7935D01*
X8908Y7925D01*
X8913Y7916D01*
X8919Y7906D01*
X8925Y7897D01*
X8933Y7888D01*
X8941Y7880D01*
X8776D01*
X8784Y7888D01*
X8791Y7897D01*
X8798Y7906D01*
X8803Y7916D01*
X8808Y7925D01*
X8812Y7935D01*
X8815Y7945D01*
X8817Y7956D01*
X8818Y7967D01*
X8819Y7977D01*
X8898D01*
X8898Y7967D01*
D02*
G37*
G36*
X6294Y7948D02*
X6303Y7941D01*
X6312Y7935D01*
X6321Y7929D01*
X6331Y7924D01*
X6341Y7920D01*
X6351Y7917D01*
X6361Y7915D01*
X6372Y7914D01*
X6383Y7913D01*
Y7835D01*
X6372Y7834D01*
X6361Y7833D01*
X6351Y7831D01*
X6341Y7828D01*
X6331Y7824D01*
X6321Y7819D01*
X6312Y7813D01*
X6303Y7807D01*
X6294Y7800D01*
X6285Y7791D01*
Y7957D01*
X6294Y7948D01*
D02*
G37*
G36*
X4422Y7872D02*
X4429Y7866D01*
X4437Y7861D01*
X4446Y7857D01*
X4455Y7853D01*
X4465Y7850D01*
X4475Y7847D01*
X4486Y7846D01*
X4497Y7845D01*
X4509Y7844D01*
Y7746D01*
X4497Y7746D01*
X4486Y7745D01*
X4475Y7743D01*
X4465Y7741D01*
X4455Y7738D01*
X4446Y7734D01*
X4437Y7730D01*
X4429Y7725D01*
X4422Y7719D01*
X4415Y7713D01*
Y7878D01*
X4422Y7872D01*
D02*
G37*
G36*
X5702Y7425D02*
X5698Y7430D01*
X5692Y7434D01*
X5685Y7438D01*
X5676Y7441D01*
X5666Y7444D01*
X5654Y7447D01*
X5641Y7448D01*
X5610Y7450D01*
X5580Y7448D01*
X5566Y7447D01*
X5555Y7444D01*
X5544Y7441D01*
X5536Y7438D01*
X5528Y7434D01*
X5523Y7430D01*
X5518Y7425D01*
Y7575D01*
X5523Y7570D01*
X5528Y7566D01*
X5536Y7562D01*
X5544Y7559D01*
X5555Y7556D01*
X5566Y7553D01*
X5580Y7552D01*
X5610Y7550D01*
X5641Y7552D01*
X5654Y7553D01*
X5666Y7556D01*
X5676Y7559D01*
X5685Y7562D01*
X5692Y7566D01*
X5698Y7570D01*
X5702Y7575D01*
Y7425D01*
D02*
G37*
G36*
X5308D02*
X5304Y7430D01*
X5298Y7434D01*
X5291Y7438D01*
X5282Y7441D01*
X5272Y7444D01*
X5260Y7447D01*
X5247Y7448D01*
X5216Y7451D01*
X5198Y7451D01*
Y7549D01*
X5216Y7549D01*
X5247Y7552D01*
X5260Y7553D01*
X5272Y7556D01*
X5282Y7559D01*
X5291Y7562D01*
X5298Y7566D01*
X5304Y7570D01*
X5308Y7575D01*
Y7425D01*
D02*
G37*
G36*
X6983Y7555D02*
X6992Y7547D01*
X7001Y7541D01*
X7010Y7535D01*
X7020Y7531D01*
X7030Y7527D01*
X7040Y7524D01*
X7050Y7521D01*
X7061Y7520D01*
X7072Y7520D01*
Y7441D01*
X7061Y7441D01*
X7050Y7439D01*
X7040Y7437D01*
X7030Y7434D01*
X7020Y7430D01*
X7010Y7425D01*
X7001Y7420D01*
X6992Y7413D01*
X6983Y7406D01*
X6974Y7398D01*
Y7563D01*
X6983Y7555D01*
D02*
G37*
G36*
X6805Y7398D02*
X6797Y7406D01*
X6788Y7413D01*
X6779Y7420D01*
X6769Y7425D01*
X6760Y7430D01*
X6750Y7434D01*
X6740Y7437D01*
X6729Y7439D01*
X6719Y7441D01*
X6708Y7441D01*
Y7520D01*
X6719Y7520D01*
X6729Y7521D01*
X6740Y7524D01*
X6750Y7527D01*
X6760Y7531D01*
X6769Y7535D01*
X6779Y7541D01*
X6788Y7547D01*
X6797Y7555D01*
X6805Y7563D01*
Y7398D01*
D02*
G37*
G36*
X2849Y7496D02*
X2858Y7488D01*
X2867Y7482D01*
X2876Y7476D01*
X2886Y7471D01*
X2896Y7468D01*
X2906Y7465D01*
X2916Y7462D01*
X2927Y7461D01*
X2938Y7461D01*
Y7382D01*
X2927Y7381D01*
X2916Y7380D01*
X2906Y7378D01*
X2896Y7375D01*
X2886Y7371D01*
X2876Y7366D01*
X2867Y7361D01*
X2858Y7354D01*
X2849Y7347D01*
X2840Y7339D01*
Y7504D01*
X2849Y7496D01*
D02*
G37*
G36*
X8049Y6938D02*
Y6735D01*
X8047Y6735D01*
X8007Y6708D01*
X8003Y6701D01*
X7942D01*
X7938Y6708D01*
X7897Y6735D01*
X7849Y6745D01*
X7815D01*
Y6575D01*
X7736D01*
Y6745D01*
X7702D01*
X7654Y6735D01*
X7613Y6708D01*
X7609Y6701D01*
X7549D01*
X7544Y6708D01*
X7504Y6735D01*
X7456Y6745D01*
X7308D01*
X7260Y6735D01*
X7237Y6720D01*
X7237Y6720D01*
X7236Y6719D01*
X7232Y6716D01*
X7184Y6734D01*
X7180Y6745D01*
X7189Y6791D01*
X7174Y6868D01*
X7130Y6933D01*
X7065Y6977D01*
X6988Y6992D01*
X6981Y6991D01*
X6981Y6991D01*
X6978Y6991D01*
X6975Y6993D01*
X6972Y6994D01*
X6968Y6997D01*
X6965Y6999D01*
X6785Y7179D01*
X6743Y7207D01*
X6693Y7217D01*
X6468D01*
X6449Y7263D01*
X6546Y7360D01*
X6716D01*
X6720Y7359D01*
X6724Y7358D01*
X6727Y7357D01*
X6731Y7355D01*
X6735Y7352D01*
X6739Y7350D01*
X6742Y7347D01*
X6748Y7338D01*
X6813Y7295D01*
X6890Y7280D01*
X6967Y7295D01*
X7032Y7338D01*
X7037Y7347D01*
X7041Y7350D01*
X7045Y7352D01*
X7049Y7355D01*
X7052Y7357D01*
X7056Y7358D01*
X7060Y7359D01*
X7063Y7360D01*
X7627D01*
X8049Y6938D01*
D02*
G37*
G36*
X2755Y7303D02*
X2743Y7303D01*
X2731Y7302D01*
X2720Y7300D01*
X2710Y7297D01*
X2699Y7294D01*
X2690Y7290D01*
X2680Y7285D01*
X2671Y7279D01*
X2663Y7272D01*
X2655Y7265D01*
X2599Y7320D01*
X2607Y7328D01*
X2613Y7337D01*
X2619Y7346D01*
X2624Y7355D01*
X2628Y7365D01*
X2632Y7375D01*
X2635Y7386D01*
X2636Y7397D01*
X2638Y7408D01*
X2638Y7420D01*
X2755Y7303D01*
D02*
G37*
G36*
X9329Y7148D02*
X9296Y7179D01*
X9236Y7233D01*
X9208Y7255D01*
X9182Y7273D01*
X9157Y7288D01*
X9133Y7300D01*
X9110Y7308D01*
X9089Y7313D01*
X9070Y7315D01*
Y7394D01*
X9089Y7395D01*
X9110Y7400D01*
X9133Y7409D01*
X9157Y7420D01*
X9182Y7436D01*
X9208Y7454D01*
X9236Y7476D01*
X9296Y7529D01*
X9329Y7561D01*
Y7148D01*
D02*
G37*
G36*
X782Y7529D02*
X842Y7476D01*
X870Y7454D01*
X897Y7436D01*
X922Y7420D01*
X946Y7409D01*
X968Y7400D01*
X989Y7395D01*
X1009Y7394D01*
Y7315D01*
X989Y7313D01*
X968Y7308D01*
X946Y7300D01*
X922Y7288D01*
X897Y7273D01*
X870Y7255D01*
X842Y7233D01*
X782Y7179D01*
X750Y7148D01*
Y7561D01*
X782Y7529D01*
D02*
G37*
G36*
X4013Y7192D02*
X4008Y7185D01*
X4003Y7177D01*
X3998Y7168D01*
X3995Y7159D01*
X3992Y7150D01*
X3989Y7139D01*
X3988Y7129D01*
X3987Y7117D01*
X3986Y7105D01*
X3888D01*
X3887Y7117D01*
X3886Y7129D01*
X3885Y7139D01*
X3882Y7150D01*
X3879Y7159D01*
X3876Y7168D01*
X3871Y7177D01*
X3866Y7185D01*
X3861Y7192D01*
X3854Y7199D01*
X4020D01*
X4013Y7192D01*
D02*
G37*
G36*
X3681Y7120D02*
X3683Y7106D01*
X3685Y7094D01*
X3687Y7084D01*
X3691Y7075D01*
X3695Y7068D01*
X3700Y7062D01*
X3706Y7058D01*
X3713Y7055D01*
X3720Y7055D01*
X3563D01*
X3571Y7055D01*
X3577Y7058D01*
X3583Y7062D01*
X3588Y7068D01*
X3593Y7075D01*
X3596Y7084D01*
X3599Y7094D01*
X3601Y7106D01*
X3602Y7120D01*
X3602Y7135D01*
X3681D01*
X3681Y7120D01*
D02*
G37*
G36*
X3143Y6893D02*
X3138Y6900D01*
X3132Y6906D01*
X3125Y6912D01*
X3117Y6916D01*
X3108Y6920D01*
X3099Y6923D01*
X3088Y6926D01*
X3077Y6928D01*
X3065Y6929D01*
X3052Y6929D01*
Y7008D01*
X3065Y7008D01*
X3077Y7009D01*
X3088Y7011D01*
X3099Y7014D01*
X3108Y7017D01*
X3117Y7021D01*
X3125Y7026D01*
X3132Y7031D01*
X3138Y7037D01*
X3143Y7044D01*
Y6893D01*
D02*
G37*
G36*
X2913Y6932D02*
X2905Y6924D01*
X2899Y6915D01*
X2893Y6906D01*
X2888Y6897D01*
X2883Y6887D01*
X2880Y6877D01*
X2877Y6866D01*
X2875Y6855D01*
X2874Y6844D01*
X2874Y6832D01*
X2757Y6949D01*
X2769Y6949D01*
X2780Y6950D01*
X2792Y6952D01*
X2802Y6955D01*
X2812Y6958D01*
X2822Y6962D01*
X2831Y6967D01*
X2840Y6973D01*
X2849Y6980D01*
X2857Y6987D01*
X2913Y6932D01*
D02*
G37*
G36*
X6906Y6944D02*
X6914Y6937D01*
X6923Y6930D01*
X6932Y6925D01*
X6941Y6920D01*
X6950Y6916D01*
X6959Y6913D01*
X6968Y6911D01*
X6978Y6910D01*
X6987Y6909D01*
X6870Y6793D01*
X6870Y6802D01*
X6869Y6811D01*
X6866Y6820D01*
X6863Y6829D01*
X6860Y6838D01*
X6855Y6847D01*
X6849Y6856D01*
X6843Y6865D01*
X6836Y6874D01*
X6827Y6883D01*
X6897Y6952D01*
X6906Y6944D01*
D02*
G37*
G36*
X6434Y6906D02*
X6409Y6868D01*
X6394Y6791D01*
X6405Y6736D01*
X6376Y6716D01*
X6359Y6711D01*
X6323Y6735D01*
X6275Y6745D01*
X6240D01*
Y6575D01*
X6201D01*
Y6535D01*
X6002D01*
Y6531D01*
X6011Y6483D01*
X6038Y6442D01*
X6055Y6431D01*
X6058Y6379D01*
X6024Y6347D01*
X5974D01*
X5970Y6353D01*
X5929Y6381D01*
X5881Y6390D01*
X5733D01*
X5685Y6381D01*
X5663Y6366D01*
X5662Y6365D01*
X5661Y6364D01*
X5645Y6353D01*
X5639Y6345D01*
X5638Y6345D01*
X5638Y6344D01*
X5635Y6343D01*
X5632Y6342D01*
X5626Y6341D01*
X5625Y6341D01*
X5596D01*
X5594Y6341D01*
X5589Y6342D01*
X5585Y6343D01*
X5583Y6344D01*
X5582Y6345D01*
X5581Y6345D01*
X5576Y6353D01*
X5559Y6364D01*
X5558Y6365D01*
X5558Y6366D01*
X5551Y6370D01*
X5550Y6373D01*
Y6423D01*
X5551Y6425D01*
X5576Y6442D01*
X5603Y6483D01*
X5613Y6531D01*
Y6535D01*
X5413D01*
Y6575D01*
X5374D01*
Y6745D01*
X5340D01*
X5310Y6739D01*
X5265Y6770D01*
X5263Y6810D01*
X5408Y6956D01*
X6408D01*
X6434Y6906D01*
D02*
G37*
G36*
X7028Y6726D02*
X7029Y6713D01*
X7030Y6707D01*
X7071Y6707D01*
X7063Y6698D01*
X7055Y6689D01*
X7049Y6680D01*
X7044Y6672D01*
X7047Y6668D01*
X7053Y6664D01*
X7059Y6662D01*
X7067Y6661D01*
X7038D01*
X7034Y6651D01*
X7031Y6641D01*
X7029Y6631D01*
X7028Y6620D01*
X7028Y6609D01*
X6949Y6609D01*
X6948Y6620D01*
X6947Y6631D01*
X6945Y6641D01*
X6942Y6651D01*
X6938Y6661D01*
X6910D01*
X6917Y6662D01*
X6924Y6664D01*
X6930Y6668D01*
X6933Y6672D01*
X6928Y6680D01*
X6921Y6689D01*
X6914Y6698D01*
X6906Y6707D01*
X6946Y6707D01*
X6947Y6713D01*
X6948Y6726D01*
X6949Y6742D01*
X7028D01*
X7028Y6726D01*
D02*
G37*
G36*
X3987Y6743D02*
X3990Y6726D01*
X3995Y6712D01*
X4002Y6699D01*
X4011Y6688D01*
X4022Y6679D01*
X4034Y6672D01*
X4049Y6667D01*
X4066Y6664D01*
X4085Y6663D01*
X3937Y6565D01*
X3857Y6618D01*
Y6565D01*
X3839Y6565D01*
X3808Y6563D01*
X3795Y6561D01*
X3783Y6558D01*
X3773Y6556D01*
X3764Y6552D01*
X3757Y6548D01*
X3751Y6544D01*
X3747Y6539D01*
Y6690D01*
X3751Y6685D01*
X3757Y6680D01*
X3764Y6676D01*
X3773Y6673D01*
X3783Y6670D01*
X3795Y6668D01*
X3808Y6666D01*
X3814Y6665D01*
X3825Y6667D01*
X3840Y6672D01*
X3852Y6679D01*
X3863Y6688D01*
X3872Y6699D01*
X3879Y6712D01*
X3884Y6726D01*
X3887Y6743D01*
X3888Y6762D01*
X3986D01*
X3987Y6743D01*
D02*
G37*
G36*
X8209Y6726D02*
X8210Y6713D01*
X8212Y6701D01*
X8215Y6690D01*
X8218Y6681D01*
X8223Y6674D01*
X8228Y6668D01*
X8234Y6664D01*
X8240Y6662D01*
X8248Y6661D01*
X8091D01*
X8098Y6662D01*
X8105Y6664D01*
X8111Y6668D01*
X8116Y6674D01*
X8120Y6681D01*
X8124Y6690D01*
X8126Y6701D01*
X8128Y6713D01*
X8130Y6726D01*
X8130Y6742D01*
X8209D01*
X8209Y6726D01*
D02*
G37*
G36*
X4863D02*
X4864Y6713D01*
X4865Y6707D01*
X4906D01*
X4897Y6698D01*
X4890Y6689D01*
X4883Y6680D01*
X4878Y6672D01*
X4881Y6668D01*
X4887Y6664D01*
X4894Y6662D01*
X4901Y6661D01*
X4873D01*
X4869Y6651D01*
X4866Y6641D01*
X4864Y6631D01*
X4863Y6620D01*
X4862Y6609D01*
X4783D01*
X4783Y6620D01*
X4782Y6631D01*
X4780Y6641D01*
X4777Y6651D01*
X4773Y6661D01*
X4744D01*
X4752Y6662D01*
X4758Y6664D01*
X4764Y6668D01*
X4767Y6672D01*
X4762Y6680D01*
X4756Y6689D01*
X4748Y6698D01*
X4740Y6707D01*
X4781D01*
X4782Y6713D01*
X4783Y6726D01*
X4783Y6742D01*
X4862D01*
X4863Y6726D01*
D02*
G37*
G36*
X2830Y6738D02*
X2823Y6729D01*
X2816Y6720D01*
X2811Y6710D01*
X2806Y6701D01*
X2802Y6691D01*
X2799Y6681D01*
X2797Y6670D01*
X2796Y6659D01*
X2795Y6648D01*
X2717D01*
X2716Y6659D01*
X2715Y6670D01*
X2713Y6681D01*
X2710Y6691D01*
X2706Y6701D01*
X2701Y6710D01*
X2695Y6720D01*
X2689Y6729D01*
X2681Y6738D01*
X2673Y6746D01*
X2839D01*
X2830Y6738D01*
D02*
G37*
G36*
X6634Y6726D02*
X6635Y6713D01*
X6636Y6707D01*
X6677D01*
X6669Y6698D01*
X6662Y6689D01*
X6655Y6680D01*
X6650Y6672D01*
X6653Y6668D01*
X6659Y6664D01*
X6666Y6662D01*
X6673Y6661D01*
X6645D01*
X6641Y6651D01*
X6638Y6641D01*
X6636Y6631D01*
X6634Y6620D01*
X6634Y6609D01*
X6555D01*
X6555Y6620D01*
X6553Y6631D01*
X6551Y6641D01*
X6548Y6651D01*
X6544Y6661D01*
X6516D01*
X6523Y6662D01*
X6530Y6664D01*
X6536Y6668D01*
X6539Y6672D01*
X6534Y6680D01*
X6527Y6689D01*
X6520Y6698D01*
X6512Y6707D01*
X6553D01*
X6554Y6713D01*
X6555Y6726D01*
X6555Y6742D01*
X6634D01*
X6634Y6726D01*
D02*
G37*
G36*
X3537Y6539D02*
X3532Y6546D01*
X3525Y6552D01*
X3519Y6557D01*
X3511Y6562D01*
X3502Y6566D01*
X3492Y6569D01*
X3482Y6572D01*
X3471Y6573D01*
X3458Y6574D01*
X3445Y6575D01*
Y6654D01*
X3458Y6654D01*
X3471Y6655D01*
X3482Y6657D01*
X3492Y6659D01*
X3502Y6663D01*
X3511Y6666D01*
X3519Y6671D01*
X3525Y6677D01*
X3532Y6683D01*
X3537Y6690D01*
Y6539D01*
D02*
G37*
G36*
X3358Y6683D02*
X3364Y6677D01*
X3371Y6671D01*
X3379Y6666D01*
X3388Y6663D01*
X3397Y6659D01*
X3408Y6657D01*
X3419Y6655D01*
X3431Y6654D01*
X3445Y6654D01*
Y6575D01*
X3431Y6574D01*
X3419Y6573D01*
X3408Y6572D01*
X3397Y6569D01*
X3388Y6566D01*
X3379Y6562D01*
X3371Y6557D01*
X3364Y6552D01*
X3358Y6546D01*
X3353Y6539D01*
Y6690D01*
X3358Y6683D01*
D02*
G37*
G36*
X7277Y6499D02*
X7272Y6506D01*
X7266Y6512D01*
X7259Y6518D01*
X7251Y6522D01*
X7242Y6526D01*
X7232Y6530D01*
X7222Y6532D01*
X7211Y6534D01*
X7198Y6535D01*
X7185Y6535D01*
Y6614D01*
X7198Y6615D01*
X7211Y6616D01*
X7222Y6617D01*
X7232Y6620D01*
X7242Y6623D01*
X7251Y6627D01*
X7259Y6632D01*
X7266Y6637D01*
X7272Y6643D01*
X7277Y6650D01*
Y6499D01*
D02*
G37*
G36*
X7098Y6643D02*
X7104Y6637D01*
X7111Y6632D01*
X7119Y6627D01*
X7128Y6623D01*
X7138Y6620D01*
X7148Y6617D01*
X7159Y6616D01*
X7172Y6615D01*
X7185Y6614D01*
Y6535D01*
X7172Y6535D01*
X7159Y6534D01*
X7148Y6532D01*
X7138Y6530D01*
X7128Y6526D01*
X7119Y6522D01*
X7111Y6518D01*
X7104Y6512D01*
X7098Y6506D01*
X7093Y6499D01*
Y6650D01*
X7098Y6643D01*
D02*
G37*
G36*
X5168Y6349D02*
X5171Y6333D01*
X5176Y6318D01*
X5183Y6305D01*
X5192Y6294D01*
X5203Y6285D01*
X5216Y6279D01*
X5230Y6274D01*
X5241Y6272D01*
X5247Y6272D01*
X5260Y6274D01*
X5272Y6276D01*
X5282Y6279D01*
X5291Y6283D01*
X5299Y6286D01*
X5304Y6291D01*
X5308Y6296D01*
Y6145D01*
X5304Y6150D01*
X5299Y6155D01*
X5291Y6158D01*
X5282Y6162D01*
X5272Y6165D01*
X5260Y6167D01*
X5247Y6169D01*
X5216Y6171D01*
X5198Y6171D01*
Y6225D01*
X5118Y6171D01*
X5038Y6225D01*
Y6171D01*
X5020Y6171D01*
X4989Y6169D01*
X4976Y6167D01*
X4964Y6165D01*
X4954Y6162D01*
X4945Y6158D01*
X4938Y6155D01*
X4932Y6150D01*
X4928Y6145D01*
Y6296D01*
X4932Y6291D01*
X4938Y6286D01*
X4945Y6283D01*
X4954Y6279D01*
X4964Y6276D01*
X4976Y6274D01*
X4989Y6272D01*
X4995Y6272D01*
X5006Y6274D01*
X5021Y6279D01*
X5033Y6285D01*
X5044Y6294D01*
X5053Y6305D01*
X5060Y6318D01*
X5065Y6333D01*
X5068Y6349D01*
X5069Y6368D01*
X5167D01*
X5168Y6349D01*
D02*
G37*
G36*
X4709Y6161D02*
X4709Y6163D01*
X4707Y6165D01*
X4704Y6166D01*
X4699Y6168D01*
X4693Y6169D01*
X4686Y6170D01*
X4669Y6171D01*
X4646Y6171D01*
Y6270D01*
X4658Y6270D01*
X4693Y6272D01*
X4699Y6273D01*
X4704Y6275D01*
X4707Y6276D01*
X4709Y6278D01*
X4709Y6280D01*
Y6161D01*
D02*
G37*
G36*
X7671Y6145D02*
X7665Y6152D01*
X7659Y6158D01*
X7652Y6163D01*
X7645Y6168D01*
X7636Y6172D01*
X7626Y6175D01*
X7616Y6178D01*
X7604Y6180D01*
X7592Y6181D01*
X7579Y6181D01*
Y6260D01*
X7592Y6260D01*
X7604Y6261D01*
X7616Y6263D01*
X7626Y6266D01*
X7636Y6269D01*
X7645Y6273D01*
X7652Y6277D01*
X7659Y6283D01*
X7665Y6289D01*
X7671Y6296D01*
Y6145D01*
D02*
G37*
G36*
X7492Y6289D02*
X7498Y6283D01*
X7505Y6277D01*
X7513Y6273D01*
X7522Y6269D01*
X7531Y6266D01*
X7542Y6263D01*
X7553Y6261D01*
X7565Y6260D01*
X7578Y6260D01*
Y6181D01*
X7565Y6181D01*
X7553Y6180D01*
X7542Y6178D01*
X7531Y6175D01*
X7522Y6172D01*
X7513Y6168D01*
X7505Y6163D01*
X7498Y6158D01*
X7492Y6152D01*
X7487Y6145D01*
Y6296D01*
X7492Y6289D01*
D02*
G37*
G36*
X6490Y6145D02*
X6484Y6152D01*
X6478Y6158D01*
X6471Y6163D01*
X6463Y6168D01*
X6455Y6172D01*
X6445Y6175D01*
X6435Y6178D01*
X6423Y6180D01*
X6411Y6181D01*
X6398Y6181D01*
Y6260D01*
X6411Y6260D01*
X6423Y6261D01*
X6435Y6263D01*
X6445Y6266D01*
X6455Y6269D01*
X6463Y6273D01*
X6471Y6277D01*
X6478Y6283D01*
X6484Y6289D01*
X6490Y6296D01*
Y6145D01*
D02*
G37*
G36*
X6311Y6289D02*
X6317Y6283D01*
X6324Y6277D01*
X6332Y6273D01*
X6341Y6269D01*
X6350Y6266D01*
X6361Y6263D01*
X6372Y6261D01*
X6384Y6260D01*
X6397Y6260D01*
Y6181D01*
X6384Y6181D01*
X6372Y6180D01*
X6361Y6178D01*
X6350Y6175D01*
X6341Y6172D01*
X6332Y6168D01*
X6324Y6163D01*
X6317Y6158D01*
X6311Y6152D01*
X6306Y6145D01*
Y6296D01*
X6311Y6289D01*
D02*
G37*
G36*
X5702Y6145D02*
X5697Y6152D01*
X5691Y6158D01*
X5684Y6163D01*
X5676Y6168D01*
X5667Y6172D01*
X5658Y6175D01*
X5647Y6178D01*
X5636Y6180D01*
X5624Y6181D01*
X5611Y6181D01*
Y6260D01*
X5624Y6260D01*
X5636Y6261D01*
X5647Y6263D01*
X5658Y6266D01*
X5667Y6269D01*
X5676Y6273D01*
X5684Y6277D01*
X5691Y6283D01*
X5697Y6289D01*
X5702Y6296D01*
Y6145D01*
D02*
G37*
G36*
X5524Y6289D02*
X5530Y6283D01*
X5537Y6277D01*
X5544Y6273D01*
X5553Y6269D01*
X5563Y6266D01*
X5573Y6263D01*
X5585Y6261D01*
X5597Y6260D01*
X5610Y6260D01*
Y6181D01*
X5597Y6181D01*
X5585Y6180D01*
X5573Y6178D01*
X5563Y6175D01*
X5553Y6172D01*
X5544Y6168D01*
X5537Y6163D01*
X5530Y6158D01*
X5524Y6152D01*
X5518Y6145D01*
Y6296D01*
X5524Y6289D01*
D02*
G37*
G36*
X7036Y6133D02*
X7034Y6131D01*
X7033Y6129D01*
X7031Y6125D01*
X7030Y6121D01*
X7029Y6115D01*
X7028Y6109D01*
X7028Y6092D01*
X7028Y6083D01*
X6949D01*
X6949Y6092D01*
X6947Y6115D01*
X6946Y6121D01*
X6945Y6125D01*
X6944Y6129D01*
X6942Y6131D01*
X6941Y6133D01*
X6939Y6133D01*
X7038D01*
X7036Y6133D01*
D02*
G37*
G36*
X5871Y6133D02*
X5866Y6131D01*
X5861Y6127D01*
X5857Y6122D01*
X5854Y6116D01*
X5851Y6108D01*
X5849Y6099D01*
X5848Y6088D01*
X5847Y6076D01*
X5846Y6063D01*
X5768D01*
X5767Y6076D01*
X5767Y6088D01*
X5765Y6099D01*
X5763Y6108D01*
X5760Y6116D01*
X5757Y6122D01*
X5753Y6127D01*
X5749Y6131D01*
X5744Y6133D01*
X5738Y6133D01*
X5876D01*
X5871Y6133D01*
D02*
G37*
G36*
X5477D02*
X5472Y6131D01*
X5467Y6127D01*
X5464Y6122D01*
X5460Y6116D01*
X5458Y6108D01*
X5455Y6099D01*
X5454Y6088D01*
X5453Y6076D01*
X5453Y6063D01*
X5374D01*
X5374Y6076D01*
X5373Y6088D01*
X5371Y6099D01*
X5369Y6108D01*
X5367Y6116D01*
X5363Y6122D01*
X5359Y6127D01*
X5355Y6131D01*
X5350Y6133D01*
X5344Y6133D01*
X5483D01*
X5477Y6133D01*
D02*
G37*
G36*
X8240Y6134D02*
X8234Y6131D01*
X8228Y6127D01*
X8223Y6121D01*
X8218Y6114D01*
X8215Y6105D01*
X8212Y6095D01*
X8210Y6083D01*
X8209Y6069D01*
X8209Y6054D01*
X8130D01*
X8130Y6069D01*
X8128Y6083D01*
X8126Y6095D01*
X8124Y6105D01*
X8120Y6114D01*
X8116Y6121D01*
X8111Y6127D01*
X8105Y6131D01*
X8098Y6134D01*
X8091Y6134D01*
X8248D01*
X8240Y6134D01*
D02*
G37*
G36*
X7847D02*
X7840Y6131D01*
X7834Y6127D01*
X7829Y6121D01*
X7825Y6114D01*
X7821Y6105D01*
X7818Y6095D01*
X7817Y6083D01*
X7815Y6069D01*
X7815Y6054D01*
X7736D01*
X7736Y6069D01*
X7735Y6083D01*
X7733Y6095D01*
X7730Y6105D01*
X7726Y6114D01*
X7722Y6121D01*
X7717Y6127D01*
X7711Y6131D01*
X7705Y6134D01*
X7697Y6134D01*
X7854D01*
X7847Y6134D01*
D02*
G37*
G36*
X6673Y6134D02*
X6666Y6134D01*
X6659Y6131D01*
X6653Y6127D01*
X6648Y6121D01*
X6644Y6114D01*
X6640Y6105D01*
X6637Y6095D01*
X6635Y6083D01*
X6634Y6069D01*
X6634Y6054D01*
X6555D01*
X6555Y6069D01*
X6554Y6083D01*
X6552Y6095D01*
X6549Y6105D01*
X6545Y6114D01*
X6541Y6121D01*
X6536Y6127D01*
X6530Y6131D01*
X6523Y6134D01*
X6516Y6134D01*
X6673Y6134D01*
D02*
G37*
G36*
X7595Y6100D02*
X7600Y6099D01*
X7604Y6098D01*
X7606Y6097D01*
X7607Y6096D01*
X7607Y6096D01*
X7613Y6087D01*
X7630Y6076D01*
X7631Y6076D01*
X7631Y6075D01*
X7654Y6060D01*
X7655Y6060D01*
Y5463D01*
X7562Y5370D01*
X7493Y5372D01*
X7491Y5374D01*
X7264D01*
Y5453D01*
X7480D01*
X7474Y5485D01*
X7450Y5521D01*
X7414Y5545D01*
X7381Y5552D01*
X7335Y5576D01*
Y5645D01*
X7326Y5689D01*
X7301Y5726D01*
X7264Y5751D01*
X7219Y5760D01*
X7151D01*
X7126Y5806D01*
X7120Y5839D01*
X7096Y5875D01*
X7060Y5899D01*
X7048Y5902D01*
X7032Y5956D01*
X7073Y5998D01*
X7099Y6037D01*
X7104Y6059D01*
X7110Y6060D01*
X7151Y6087D01*
X7155Y6094D01*
X7215D01*
X7219Y6087D01*
X7260Y6060D01*
X7308Y6051D01*
X7456D01*
X7504Y6060D01*
X7526Y6075D01*
X7527Y6076D01*
X7528Y6076D01*
X7544Y6087D01*
X7550Y6096D01*
X7550Y6096D01*
X7551Y6097D01*
X7554Y6098D01*
X7557Y6099D01*
X7563Y6100D01*
X7564Y6100D01*
X7593D01*
X7595Y6100D01*
D02*
G37*
G36*
X6831Y5874D02*
X6833Y5838D01*
X6835Y5832D01*
X6836Y5827D01*
X6837Y5823D01*
X6839Y5820D01*
X6841Y5818D01*
X6741D01*
X6743Y5820D01*
X6745Y5823D01*
X6747Y5827D01*
X6748Y5832D01*
X6749Y5838D01*
X6750Y5846D01*
X6752Y5864D01*
X6752Y5886D01*
X6831D01*
X6831Y5874D01*
D02*
G37*
G36*
X6437Y5874D02*
X6440Y5838D01*
X6441Y5832D01*
X6442Y5827D01*
X6444Y5823D01*
X6446Y5820D01*
X6448Y5818D01*
X6348D01*
X6350Y5820D01*
X6352Y5823D01*
X6353Y5827D01*
X6354Y5832D01*
X6356Y5838D01*
X6357Y5846D01*
X6358Y5864D01*
X6358Y5886D01*
X6437D01*
X6437Y5874D01*
D02*
G37*
G36*
X6634Y5889D02*
X6637Y5854D01*
X6638Y5845D01*
X6642Y5827D01*
X6645Y5820D01*
X6647Y5814D01*
X6651Y5808D01*
X6538D01*
X6541Y5814D01*
X6544Y5820D01*
X6547Y5827D01*
X6549Y5836D01*
X6551Y5845D01*
X6554Y5865D01*
X6554Y5877D01*
X6555Y5903D01*
X6634D01*
X6634Y5889D01*
D02*
G37*
G36*
X6153Y5544D02*
X6145Y5549D01*
X6137Y5554D01*
X6128Y5558D01*
X6119Y5561D01*
X6109Y5564D01*
X6099Y5567D01*
X6088Y5568D01*
X6078Y5570D01*
X6055Y5571D01*
Y5650D01*
X6066Y5650D01*
X6088Y5652D01*
X6099Y5654D01*
X6109Y5656D01*
X6119Y5659D01*
X6128Y5663D01*
X6137Y5666D01*
X6145Y5671D01*
X6153Y5676D01*
Y5544D01*
D02*
G37*
G36*
X5748Y5496D02*
X5751Y5470D01*
X5753Y5457D01*
X5756Y5446D01*
X5760Y5436D01*
X5764Y5426D01*
X5769Y5417D01*
X5775Y5409D01*
X5782Y5402D01*
X5740Y5360D01*
X5733Y5367D01*
X5725Y5372D01*
X5716Y5377D01*
X5706Y5382D01*
X5696Y5386D01*
X5684Y5389D01*
X5672Y5391D01*
X5659Y5393D01*
X5646Y5393D01*
X5631Y5394D01*
X5748Y5511D01*
X5748Y5496D01*
D02*
G37*
G36*
X7047Y5470D02*
X7050Y5468D01*
X7055Y5467D01*
X7062Y5466D01*
X7071Y5465D01*
X7080Y5464D01*
X7141Y5468D01*
X7144Y5470D01*
Y5463D01*
X7144D01*
Y5364D01*
X7144D01*
Y5357D01*
X7141Y5359D01*
X7137Y5360D01*
X7130Y5361D01*
X7112Y5362D01*
X7111Y5362D01*
X7109Y5362D01*
X7094Y5360D01*
X7081Y5356D01*
X7070Y5352D01*
X7061Y5346D01*
X7054Y5340D01*
X7049Y5333D01*
X7046Y5324D01*
X7045Y5315D01*
X7045Y5364D01*
X7036Y5364D01*
Y5463D01*
X7046Y5463D01*
X7046Y5471D01*
X7047Y5470D01*
D02*
G37*
G36*
X2374Y5403D02*
X2380Y5397D01*
X2387Y5392D01*
X2395Y5387D01*
X2404Y5383D01*
X2413Y5380D01*
X2424Y5377D01*
X2435Y5375D01*
X2447Y5374D01*
X2460Y5374D01*
Y5295D01*
X2447Y5295D01*
X2435Y5294D01*
X2424Y5292D01*
X2413Y5290D01*
X2404Y5286D01*
X2395Y5282D01*
X2387Y5278D01*
X2380Y5272D01*
X2374Y5266D01*
X2369Y5259D01*
Y5410D01*
X2374Y5403D01*
D02*
G37*
G36*
X3484Y5188D02*
X3478Y5192D01*
X3471Y5195D01*
X3463Y5197D01*
X3455Y5200D01*
X3446Y5202D01*
X3436Y5204D01*
X3414Y5206D01*
X3401Y5207D01*
X3388Y5207D01*
Y5285D01*
X3401Y5286D01*
X3436Y5288D01*
X3446Y5290D01*
X3455Y5292D01*
X3463Y5295D01*
X3471Y5297D01*
X3478Y5301D01*
X3484Y5304D01*
Y5188D01*
D02*
G37*
G36*
X2335Y5248D02*
X2328Y5245D01*
X2322Y5241D01*
X2317Y5236D01*
X2313Y5228D01*
X2309Y5219D01*
X2307Y5209D01*
X2305Y5197D01*
X2304Y5183D01*
X2303Y5168D01*
X2224D01*
X2224Y5183D01*
X2223Y5197D01*
X2221Y5209D01*
X2218Y5219D01*
X2215Y5228D01*
X2210Y5236D01*
X2205Y5241D01*
X2199Y5245D01*
X2193Y5248D01*
X2185Y5249D01*
X2342D01*
X2335Y5248D01*
D02*
G37*
G36*
X7389Y5270D02*
X7395Y5267D01*
X7402Y5264D01*
X7410Y5262D01*
X7419Y5260D01*
X7440Y5257D01*
X7452Y5257D01*
X7478Y5256D01*
Y5177D01*
X7464Y5177D01*
X7429Y5174D01*
X7419Y5173D01*
X7402Y5169D01*
X7395Y5166D01*
X7389Y5164D01*
X7383Y5160D01*
Y5273D01*
X7389Y5270D01*
D02*
G37*
G36*
X5782Y5228D02*
X5775Y5221D01*
X5769Y5213D01*
X5764Y5204D01*
X5760Y5194D01*
X5756Y5184D01*
X5753Y5172D01*
X5751Y5160D01*
X5749Y5147D01*
X5748Y5134D01*
X5748Y5119D01*
X5631Y5236D01*
X5646Y5236D01*
X5672Y5239D01*
X5684Y5241D01*
X5696Y5244D01*
X5706Y5248D01*
X5716Y5252D01*
X5725Y5258D01*
X5733Y5263D01*
X5740Y5270D01*
X5782Y5228D01*
D02*
G37*
G36*
X6341Y5069D02*
X6350Y5069D01*
Y4970D01*
X6341Y4970D01*
Y4921D01*
X6340Y4931D01*
X6337Y4939D01*
X6332Y4946D01*
X6325Y4953D01*
X6316Y4958D01*
X6305Y4963D01*
X6292Y4966D01*
X6284Y4967D01*
X6244Y4965D01*
X6241Y4963D01*
Y4970D01*
X6241D01*
Y5069D01*
X6241D01*
Y5076D01*
X6244Y5075D01*
X6249Y5073D01*
X6256Y5072D01*
X6274Y5071D01*
X6274Y5071D01*
X6277Y5071D01*
X6292Y5073D01*
X6305Y5077D01*
X6316Y5081D01*
X6325Y5087D01*
X6332Y5093D01*
X6337Y5100D01*
X6340Y5109D01*
X6341Y5118D01*
Y5069D01*
D02*
G37*
G36*
X2304Y5053D02*
X2305Y5039D01*
X2307Y5027D01*
X2309Y5017D01*
X2313Y5008D01*
X2317Y5001D01*
X2322Y4995D01*
X2328Y4991D01*
X2335Y4988D01*
X2342Y4988D01*
X2185D01*
X2193Y4988D01*
X2199Y4991D01*
X2205Y4995D01*
X2210Y5001D01*
X2215Y5008D01*
X2218Y5017D01*
X2221Y5027D01*
X2223Y5039D01*
X2224Y5053D01*
X2224Y5069D01*
X2303D01*
X2304Y5053D01*
D02*
G37*
G36*
X5912Y5091D02*
X5905Y5059D01*
X6122D01*
Y4980D01*
X5905D01*
X5912Y4948D01*
X5930Y4921D01*
X5912Y4895D01*
X5903Y4852D01*
Y4793D01*
X5912Y4751D01*
X5936Y4715D01*
X5972Y4691D01*
X6005Y4685D01*
X6051Y4660D01*
Y4592D01*
X6060Y4547D01*
X6085Y4510D01*
X6122Y4485D01*
X6166Y4476D01*
X6235D01*
X6260Y4430D01*
X6266Y4397D01*
X6290Y4361D01*
X6326Y4337D01*
X6366Y4329D01*
X6369Y4328D01*
X6403Y4279D01*
X6394Y4232D01*
X6409Y4155D01*
X6453Y4090D01*
X6471Y4078D01*
X6451Y4031D01*
X6417Y4038D01*
X6417Y4038D01*
X5488D01*
X5485Y4039D01*
X5481Y4040D01*
X5477Y4041D01*
X5474Y4043D01*
X5470Y4045D01*
X5466Y4048D01*
X5463Y4051D01*
X5457Y4059D01*
X5392Y4103D01*
X5339Y4113D01*
X5321Y4166D01*
X5361Y4206D01*
X5361Y4206D01*
X5387Y4245D01*
X5396Y4291D01*
Y5023D01*
X5442Y5040D01*
X5446Y5039D01*
X5488Y4976D01*
X5553Y4933D01*
X5630Y4917D01*
X5707Y4933D01*
X5772Y4976D01*
X5815Y5041D01*
X5824Y5084D01*
X5871Y5121D01*
X5912Y5091D01*
D02*
G37*
G36*
X8895Y6387D02*
Y6142D01*
X8895Y6142D01*
X8904Y6096D01*
X8931Y6057D01*
X9206Y5781D01*
X9245Y5755D01*
X9291Y5746D01*
X9376D01*
X9386Y5696D01*
X9351Y5681D01*
X9273Y5621D01*
X9213Y5543D01*
X9175Y5452D01*
X9162Y5354D01*
X9175Y5257D01*
X9213Y5166D01*
X9273Y5088D01*
X9351Y5028D01*
X9442Y4990D01*
X9539Y4977D01*
X9637Y4990D01*
X9728Y5028D01*
X9780Y5068D01*
X9830Y5043D01*
Y4690D01*
X9780Y4666D01*
X9738Y4698D01*
X9642Y4738D01*
X9618Y4741D01*
Y4354D01*
X9539D01*
Y4276D01*
X9153D01*
X9156Y4252D01*
X9195Y4156D01*
X9195Y4156D01*
X9160Y4121D01*
X9121Y4147D01*
X9075Y4156D01*
X9075Y4156D01*
X7546D01*
X7526Y4206D01*
X8254Y4935D01*
X8281Y4974D01*
X8290Y5020D01*
Y6060D01*
X8291Y6060D01*
X8332Y6087D01*
X8359Y6128D01*
X8369Y6176D01*
Y6265D01*
X8359Y6313D01*
X8332Y6353D01*
X8307Y6370D01*
X8306Y6373D01*
Y6423D01*
X8307Y6425D01*
X8332Y6442D01*
X8359Y6483D01*
X8369Y6531D01*
Y6619D01*
X8359Y6667D01*
X8332Y6708D01*
X8291Y6735D01*
X8290Y6735D01*
Y6922D01*
X8340Y6943D01*
X8895Y6387D01*
D02*
G37*
G36*
X2961Y4462D02*
X2957Y4464D01*
X2951Y4465D01*
X2942Y4465D01*
X2896Y4468D01*
X2890Y4468D01*
X2760Y4463D01*
X2759Y4462D01*
X2754Y4447D01*
X2749Y4431D01*
X2745Y4414D01*
X2742Y4394D01*
X2738Y4352D01*
X2737Y4328D01*
X2736Y4303D01*
X2579Y4303D01*
X2578Y4328D01*
X2573Y4394D01*
X2570Y4414D01*
X2566Y4431D01*
X2561Y4447D01*
X2556Y4462D01*
X2554Y4465D01*
X2548Y4465D01*
X2502Y4468D01*
X2496Y4468D01*
X2366Y4463D01*
X2365Y4462D01*
X2360Y4447D01*
X2355Y4431D01*
X2351Y4414D01*
X2348Y4394D01*
X2344Y4352D01*
X2343Y4328D01*
X2343Y4303D01*
X2185D01*
X2185Y4328D01*
X2179Y4394D01*
X2176Y4414D01*
X2172Y4431D01*
X2168Y4447D01*
X2162Y4462D01*
X2156Y4475D01*
X2149Y4486D01*
X2354D01*
Y4632D01*
X2358Y4631D01*
X2364Y4630D01*
X2373Y4629D01*
X2419Y4627D01*
X2425Y4627D01*
X2567Y4632D01*
Y4486D01*
X2748D01*
Y4632D01*
X2751Y4631D01*
X2758Y4630D01*
X2767Y4629D01*
X2813Y4627D01*
X2819Y4627D01*
X2961Y4632D01*
Y4462D01*
D02*
G37*
G36*
X6839Y4417D02*
X6837Y4414D01*
X6836Y4409D01*
X6835Y4404D01*
X6833Y4398D01*
X6832Y4391D01*
X6831Y4373D01*
X6831Y4350D01*
X6752D01*
X6752Y4362D01*
X6749Y4398D01*
X6748Y4404D01*
X6747Y4409D01*
X6745Y4414D01*
X6743Y4417D01*
X6741Y4419D01*
X6841D01*
X6839Y4417D01*
D02*
G37*
G36*
X6647Y4422D02*
X6645Y4416D01*
X6642Y4409D01*
X6640Y4401D01*
X6638Y4392D01*
X6637Y4385D01*
X6638Y4382D01*
X6641Y4372D01*
X6645Y4362D01*
X6649Y4353D01*
X6655Y4343D01*
X6662Y4334D01*
X6669Y4325D01*
X6677Y4317D01*
X6512D01*
X6520Y4325D01*
X6527Y4334D01*
X6534Y4343D01*
X6540Y4353D01*
X6544Y4362D01*
X6548Y4372D01*
X6551Y4382D01*
X6552Y4385D01*
X6551Y4392D01*
X6547Y4409D01*
X6544Y4416D01*
X6541Y4422D01*
X6538Y4428D01*
X6651D01*
X6647Y4422D01*
D02*
G37*
G36*
X7028Y4069D02*
X7029Y4055D01*
X7031Y4043D01*
X7034Y4033D01*
X7037Y4024D01*
X7042Y4016D01*
X7047Y4011D01*
X7053Y4007D01*
X7059Y4004D01*
X7067Y4003D01*
X6910D01*
X6917Y4004D01*
X6924Y4007D01*
X6930Y4011D01*
X6935Y4016D01*
X6939Y4024D01*
X6943Y4033D01*
X6945Y4043D01*
X6947Y4055D01*
X6948Y4069D01*
X6949Y4084D01*
X7028D01*
X7028Y4069D01*
D02*
G37*
G36*
X7376Y4110D02*
X7385Y4103D01*
X7394Y4096D01*
X7404Y4090D01*
X7414Y4086D01*
X7423Y4082D01*
X7434Y4079D01*
X7444Y4077D01*
X7455Y4075D01*
X7466Y4075D01*
Y3996D01*
X7455Y3996D01*
X7444Y3994D01*
X7434Y3992D01*
X7423Y3989D01*
X7414Y3985D01*
X7404Y3980D01*
X7394Y3975D01*
X7385Y3968D01*
X7376Y3961D01*
X7368Y3953D01*
Y4118D01*
X7376Y4110D01*
D02*
G37*
G36*
X9120Y4047D02*
X9128Y4040D01*
X9137Y4034D01*
X9146Y4029D01*
X9156Y4025D01*
X9166Y4022D01*
X9177Y4019D01*
X9188Y4017D01*
X9200Y4016D01*
X9211Y4016D01*
X9094Y3899D01*
X9094Y3911D01*
X9093Y3922D01*
X9091Y3933D01*
X9089Y3944D01*
X9085Y3954D01*
X9081Y3964D01*
X9076Y3973D01*
X9070Y3982D01*
X9063Y3991D01*
X9056Y3999D01*
X9112Y4054D01*
X9120Y4047D01*
D02*
G37*
G36*
X9012Y3898D02*
X9027Y3821D01*
X9071Y3756D01*
X9136Y3712D01*
X9165Y3706D01*
Y3523D01*
X9164Y3522D01*
X9152Y3519D01*
X9135Y3516D01*
X9123Y3515D01*
X9024D01*
X9024Y3515D01*
X8962Y3503D01*
X8910Y3468D01*
X8910Y3468D01*
X8752Y3310D01*
X8677D01*
X8640Y3335D01*
X8598Y3343D01*
X8583Y3356D01*
X8322Y3617D01*
X8270Y3652D01*
X8209Y3665D01*
X8209Y3665D01*
X7638D01*
X7638Y3665D01*
X7576Y3652D01*
X7524Y3617D01*
X7524Y3617D01*
X7296Y3389D01*
X7179D01*
X7167Y3406D01*
X7157Y3439D01*
X7178Y3471D01*
X7187Y3519D01*
Y3607D01*
X7178Y3655D01*
X7151Y3696D01*
X7126Y3712D01*
X7125Y3715D01*
Y3765D01*
X7126Y3768D01*
X7151Y3784D01*
X7171Y3814D01*
X7207Y3850D01*
X7283Y3835D01*
X7360Y3850D01*
X7425Y3894D01*
X7431Y3902D01*
X7434Y3905D01*
X7438Y3908D01*
X7442Y3910D01*
X7446Y3912D01*
X7450Y3913D01*
X7453Y3914D01*
X7457Y3915D01*
X8964D01*
X9012Y3898D01*
D02*
G37*
G36*
X5408Y3992D02*
X5417Y3984D01*
X5426Y3978D01*
X5435Y3972D01*
X5445Y3968D01*
X5455Y3964D01*
X5465Y3961D01*
X5476Y3958D01*
X5486Y3957D01*
X5497Y3957D01*
Y3878D01*
X5486Y3878D01*
X5476Y3876D01*
X5465Y3874D01*
X5455Y3871D01*
X5445Y3867D01*
X5435Y3862D01*
X5426Y3857D01*
X5417Y3850D01*
X5408Y3843D01*
X5399Y3835D01*
Y4000D01*
X5408Y3992D01*
D02*
G37*
G36*
X4391Y4135D02*
X4398Y4131D01*
X4406Y4127D01*
X4417Y4124D01*
X4430Y4121D01*
X4446Y4118D01*
X4482Y4115D01*
X4528Y4114D01*
Y3957D01*
X4504Y3956D01*
X4446Y3953D01*
X4430Y3950D01*
X4417Y3947D01*
X4406Y3944D01*
X4398Y3940D01*
X4394Y3938D01*
X4394Y3935D01*
X4393Y3926D01*
X4391Y3880D01*
X4391Y3877D01*
X4397Y3732D01*
X4227D01*
X4228Y3735D01*
X4229Y3742D01*
X4230Y3751D01*
X4231Y3803D01*
X4226Y3945D01*
X4386D01*
Y4140D01*
X4391Y4135D01*
D02*
G37*
G36*
X3895Y3527D02*
X3883Y3534D01*
X3870Y3540D01*
X3856Y3546D01*
X3840Y3550D01*
X3822Y3554D01*
X3803Y3557D01*
X3765Y3561D01*
X3726Y3559D01*
Y3563D01*
X3711Y3563D01*
Y3720D01*
X3726Y3721D01*
Y3724D01*
X3728Y3724D01*
X3730Y3723D01*
X3734Y3722D01*
X3745Y3722D01*
X3803Y3726D01*
X3822Y3729D01*
X3840Y3733D01*
X3856Y3738D01*
X3870Y3743D01*
X3883Y3749D01*
X3895Y3756D01*
Y3527D01*
D02*
G37*
G36*
X6686Y3478D02*
X6686Y3478D01*
X6726Y3452D01*
X6769Y3443D01*
X6772Y3442D01*
X6776Y3439D01*
X6769Y3413D01*
X6748Y3389D01*
X6326D01*
X6177Y3539D01*
X6124Y3574D01*
X6063Y3586D01*
X6063Y3586D01*
X5665D01*
X5628Y3611D01*
X5551Y3626D01*
X5474Y3611D01*
X5409Y3567D01*
X5366Y3502D01*
X5362Y3482D01*
X5307Y3465D01*
X5199Y3574D01*
Y3702D01*
X5249Y3730D01*
X5315Y3717D01*
X5392Y3732D01*
X5457Y3775D01*
X5463Y3784D01*
X5466Y3787D01*
X5470Y3789D01*
X5474Y3792D01*
X5477Y3794D01*
X5481Y3795D01*
X5485Y3796D01*
X5488Y3797D01*
X6367D01*
X6686Y3478D01*
D02*
G37*
G36*
X6883Y3488D02*
X6878Y3494D01*
X6872Y3501D01*
X6865Y3506D01*
X6857Y3511D01*
X6848Y3515D01*
X6839Y3518D01*
X6828Y3520D01*
X6817Y3522D01*
X6805Y3523D01*
X6792Y3524D01*
Y3602D01*
X6805Y3603D01*
X6817Y3604D01*
X6828Y3606D01*
X6839Y3608D01*
X6848Y3611D01*
X6857Y3615D01*
X6865Y3620D01*
X6872Y3625D01*
X6878Y3632D01*
X6883Y3638D01*
Y3488D01*
D02*
G37*
G36*
X5637Y3507D02*
X5640Y3506D01*
X5644Y3506D01*
X5656Y3505D01*
X5697Y3504D01*
X5710Y3504D01*
Y3346D01*
X5636Y3343D01*
Y3508D01*
X5637Y3507D01*
D02*
G37*
G36*
X9246Y3197D02*
X9245Y3212D01*
X9240Y3225D01*
X9232Y3237D01*
X9221Y3247D01*
X9207Y3256D01*
X9189Y3263D01*
X9169Y3268D01*
X9145Y3272D01*
X9118Y3275D01*
X9088Y3276D01*
Y3433D01*
X9118Y3434D01*
X9145Y3436D01*
X9169Y3440D01*
X9189Y3446D01*
X9207Y3453D01*
X9221Y3461D01*
X9232Y3472D01*
X9240Y3483D01*
X9245Y3497D01*
X9246Y3512D01*
Y3197D01*
D02*
G37*
G36*
X834Y3497D02*
X839Y3483D01*
X847Y3472D01*
X858Y3461D01*
X872Y3453D01*
X889Y3446D01*
X910Y3440D01*
X934Y3436D01*
X961Y3434D01*
X991Y3433D01*
Y3276D01*
X961Y3275D01*
X934Y3272D01*
X910Y3268D01*
X889Y3263D01*
X872Y3256D01*
X858Y3247D01*
X847Y3237D01*
X839Y3225D01*
X834Y3212D01*
X832Y3197D01*
Y3512D01*
X834Y3497D01*
D02*
G37*
G36*
X8562Y3268D02*
X8445Y3151D01*
X8444Y3152D01*
X8443Y3155D01*
X8440Y3158D01*
X8432Y3167D01*
X8404Y3197D01*
X8395Y3206D01*
X8506Y3318D01*
X8562Y3268D01*
D02*
G37*
G36*
X8649Y3232D02*
X8652Y3231D01*
X8656Y3230D01*
X8668Y3229D01*
X8708Y3228D01*
X8722Y3228D01*
Y3071D01*
X8647Y3067D01*
Y3232D01*
X8649Y3232D01*
D02*
G37*
G36*
X7774Y3032D02*
X7773Y3031D01*
X7770Y3030D01*
X7767Y3027D01*
X7758Y3019D01*
X7728Y2991D01*
X7719Y2982D01*
X7608Y3093D01*
X7657Y3148D01*
X7774Y3032D01*
D02*
G37*
G36*
X5768Y3015D02*
X5771Y2964D01*
X5772Y2959D01*
X5773Y2955D01*
X5775Y2952D01*
X5776Y2952D01*
X5680D01*
X5682Y2952D01*
X5683Y2955D01*
X5685Y2959D01*
X5686Y2964D01*
X5687Y2971D01*
X5688Y2990D01*
X5689Y3030D01*
X5768D01*
X5768Y3015D01*
D02*
G37*
G36*
X5374D02*
X5377Y2964D01*
X5378Y2959D01*
X5380Y2955D01*
X5381Y2952D01*
X5383Y2952D01*
X5287D01*
X5288Y2952D01*
X5290Y2955D01*
X5291Y2959D01*
X5292Y2964D01*
X5293Y2971D01*
X5294Y2990D01*
X5295Y3030D01*
X5374D01*
X5374Y3015D01*
D02*
G37*
G36*
X5972Y2520D02*
X5970Y2518D01*
X5969Y2514D01*
X5968Y2508D01*
X5967Y2501D01*
X5965Y2482D01*
X5965Y2442D01*
X5886D01*
X5886Y2457D01*
X5883Y2508D01*
X5882Y2514D01*
X5880Y2518D01*
X5879Y2520D01*
X5877Y2521D01*
X5973D01*
X5972Y2520D01*
D02*
G37*
G36*
X6146Y3115D02*
X6146Y3115D01*
X6198Y3080D01*
X6260Y3068D01*
X7362D01*
X7362Y3068D01*
X7404Y3076D01*
X7420Y3058D01*
X7429Y3030D01*
X6725Y2326D01*
X6048D01*
X6046Y2355D01*
Y2441D01*
X6053D01*
Y2519D01*
X6053Y2521D01*
X6053Y2523D01*
Y2524D01*
X6053Y2525D01*
X6053Y2526D01*
Y3031D01*
X5849D01*
X5840Y3078D01*
X5814Y3117D01*
X5735Y3195D01*
X5706Y3215D01*
X5716Y3265D01*
X5996D01*
X6146Y3115D01*
D02*
G37*
G36*
X5965Y2362D02*
X5973Y2243D01*
X5975Y2233D01*
X5978Y2226D01*
X5981Y2221D01*
X5869D01*
X5873Y2226D01*
X5875Y2233D01*
X5878Y2243D01*
X5880Y2256D01*
X5883Y2290D01*
X5886Y2362D01*
X5886Y2391D01*
X5965D01*
X5965Y2362D01*
D02*
G37*
G36*
X9345Y2279D02*
X9354Y2272D01*
X9363Y2265D01*
X9372Y2260D01*
X9382Y2255D01*
X9392Y2251D01*
X9402Y2248D01*
X9413Y2246D01*
X9423Y2245D01*
X9434Y2244D01*
Y2165D01*
X9423Y2165D01*
X9413Y2164D01*
X9402Y2161D01*
X9392Y2158D01*
X9382Y2155D01*
X9372Y2150D01*
X9363Y2144D01*
X9354Y2138D01*
X9345Y2130D01*
X9336Y2122D01*
Y2287D01*
X9345Y2279D01*
D02*
G37*
%LPC*%
G36*
X9539Y10732D02*
X9442Y10719D01*
X9351Y10681D01*
X9273Y10621D01*
X9213Y10543D01*
X9175Y10452D01*
X9162Y10354D01*
X9175Y10257D01*
X9213Y10166D01*
X9273Y10088D01*
X9351Y10028D01*
X9442Y9990D01*
X9539Y9977D01*
X9637Y9990D01*
X9728Y10028D01*
X9806Y10088D01*
X9866Y10166D01*
X9904Y10257D01*
X9917Y10354D01*
X9904Y10452D01*
X9866Y10543D01*
X9806Y10621D01*
X9728Y10681D01*
X9637Y10719D01*
X9539Y10732D01*
D02*
G37*
G36*
X539D02*
X442Y10719D01*
X351Y10681D01*
X273Y10621D01*
X213Y10543D01*
X175Y10452D01*
X162Y10354D01*
X175Y10257D01*
X213Y10166D01*
X273Y10088D01*
X351Y10028D01*
X442Y9990D01*
X539Y9977D01*
X637Y9990D01*
X728Y10028D01*
X806Y10088D01*
X866Y10166D01*
X904Y10257D01*
X917Y10354D01*
X904Y10452D01*
X866Y10543D01*
X806Y10621D01*
X728Y10681D01*
X637Y10719D01*
X539Y10732D01*
D02*
G37*
G36*
X9539Y9732D02*
X9442Y9719D01*
X9351Y9681D01*
X9273Y9621D01*
X9213Y9543D01*
X9175Y9452D01*
X9162Y9354D01*
X9175Y9257D01*
X9213Y9166D01*
X9273Y9088D01*
X9351Y9028D01*
X9442Y8990D01*
X9539Y8977D01*
X9637Y8990D01*
X9728Y9028D01*
X9806Y9088D01*
X9866Y9166D01*
X9904Y9257D01*
X9917Y9354D01*
X9904Y9452D01*
X9866Y9543D01*
X9806Y9621D01*
X9728Y9681D01*
X9637Y9719D01*
X9539Y9732D01*
D02*
G37*
G36*
X539D02*
X442Y9719D01*
X351Y9681D01*
X273Y9621D01*
X213Y9543D01*
X175Y9452D01*
X162Y9354D01*
X175Y9257D01*
X213Y9166D01*
X273Y9088D01*
X351Y9028D01*
X442Y8990D01*
X539Y8977D01*
X637Y8990D01*
X728Y9028D01*
X806Y9088D01*
X866Y9166D01*
X904Y9257D01*
X917Y9354D01*
X904Y9452D01*
X866Y9543D01*
X806Y9621D01*
X728Y9681D01*
X637Y9719D01*
X539Y9732D01*
D02*
G37*
G36*
Y8732D02*
X442Y8719D01*
X351Y8681D01*
X273Y8621D01*
X213Y8543D01*
X175Y8452D01*
X162Y8354D01*
X175Y8257D01*
X213Y8166D01*
X273Y8088D01*
X351Y8028D01*
X442Y7990D01*
X539Y7977D01*
X637Y7990D01*
X728Y8028D01*
X806Y8088D01*
X866Y8166D01*
X904Y8257D01*
X917Y8354D01*
X904Y8452D01*
X866Y8543D01*
X806Y8621D01*
X728Y8681D01*
X637Y8719D01*
X539Y8732D01*
D02*
G37*
G36*
Y6732D02*
X442Y6719D01*
X351Y6681D01*
X273Y6621D01*
X213Y6543D01*
X175Y6452D01*
X162Y6354D01*
X175Y6257D01*
X213Y6166D01*
X273Y6088D01*
X351Y6028D01*
X442Y5990D01*
X539Y5977D01*
X637Y5990D01*
X728Y6028D01*
X806Y6088D01*
X866Y6166D01*
X904Y6257D01*
X917Y6354D01*
X904Y6452D01*
X866Y6543D01*
X806Y6621D01*
X728Y6681D01*
X637Y6719D01*
X539Y6732D01*
D02*
G37*
G36*
X2338Y5859D02*
X2303D01*
Y5728D01*
X2463D01*
Y5733D01*
X2453Y5781D01*
X2426Y5822D01*
X2386Y5849D01*
X2338Y5859D01*
D02*
G37*
G36*
X2224D02*
X2190D01*
X2142Y5849D01*
X2101Y5822D01*
X2074Y5781D01*
X2065Y5733D01*
Y5728D01*
X2224D01*
Y5859D01*
D02*
G37*
G36*
X539Y5732D02*
X442Y5719D01*
X351Y5681D01*
X273Y5621D01*
X213Y5543D01*
X175Y5452D01*
X162Y5354D01*
X175Y5257D01*
X213Y5166D01*
X273Y5088D01*
X351Y5028D01*
X442Y4990D01*
X539Y4977D01*
X637Y4990D01*
X728Y5028D01*
X806Y5088D01*
X866Y5166D01*
X904Y5257D01*
X917Y5354D01*
X904Y5452D01*
X866Y5543D01*
X806Y5621D01*
X728Y5681D01*
X637Y5719D01*
X539Y5732D01*
D02*
G37*
G36*
X1575Y6697D02*
X1498Y6681D01*
X1433Y6638D01*
X1389Y6573D01*
X1374Y6496D01*
X1389Y6419D01*
X1433Y6354D01*
X1413Y6307D01*
X1391Y6286D01*
X1365Y6247D01*
X1356Y6201D01*
X1356Y6201D01*
Y4046D01*
X1297Y3987D01*
X1294Y3985D01*
X1291Y3983D01*
X1287Y3982D01*
X1283Y3981D01*
X1279Y3979D01*
X1274Y3979D01*
X1270Y3978D01*
X1260Y3980D01*
X1183Y3965D01*
X1118Y3921D01*
X1074Y3856D01*
X1059Y3780D01*
X1074Y3703D01*
X1118Y3638D01*
X1183Y3594D01*
X1260Y3579D01*
X1337Y3594D01*
X1402Y3638D01*
X1445Y3703D01*
X1461Y3780D01*
X1459Y3789D01*
X1459Y3794D01*
X1460Y3799D01*
X1461Y3803D01*
X1462Y3807D01*
X1464Y3811D01*
X1466Y3814D01*
X1468Y3817D01*
X1562Y3911D01*
X1562Y3911D01*
X1588Y3950D01*
X1597Y3996D01*
X1597Y3996D01*
Y6151D01*
X1660Y6214D01*
X1686Y6253D01*
X1695Y6299D01*
X1695Y6299D01*
Y6323D01*
X1696Y6326D01*
X1697Y6330D01*
X1698Y6334D01*
X1700Y6337D01*
X1703Y6341D01*
X1706Y6345D01*
X1708Y6348D01*
X1717Y6354D01*
X1760Y6419D01*
X1776Y6496D01*
X1760Y6573D01*
X1717Y6638D01*
X1652Y6681D01*
X1575Y6697D01*
D02*
G37*
G36*
X539Y4732D02*
X442Y4719D01*
X351Y4681D01*
X273Y4621D01*
X213Y4543D01*
X175Y4452D01*
X162Y4354D01*
X175Y4257D01*
X213Y4166D01*
X273Y4088D01*
X351Y4028D01*
X442Y3990D01*
X539Y3977D01*
X637Y3990D01*
X728Y4028D01*
X806Y4088D01*
X866Y4166D01*
X904Y4257D01*
X917Y4354D01*
X904Y4452D01*
X866Y4543D01*
X806Y4621D01*
X728Y4681D01*
X637Y4719D01*
X539Y4732D01*
D02*
G37*
G36*
X3071Y3705D02*
X2994Y3689D01*
X2929Y3646D01*
X2885Y3581D01*
X2870Y3504D01*
X2885Y3427D01*
X2929Y3362D01*
X2949Y3349D01*
X2949Y3348D01*
X2949Y3348D01*
X2950Y3345D01*
X2950Y3341D01*
Y3327D01*
X2950Y3327D01*
X2960Y3281D01*
X2986Y3242D01*
X3576Y2651D01*
X3576Y2651D01*
X3615Y2625D01*
X3661Y2616D01*
X4026D01*
Y2441D01*
X4203D01*
Y2421D01*
X4272D01*
Y2441D01*
X4282D01*
Y2736D01*
Y3032D01*
X4272D01*
Y3051D01*
X4203D01*
Y3031D01*
X4026D01*
Y2857D01*
X3711D01*
X3212Y3356D01*
X3213Y3362D01*
X3256Y3427D01*
X3272Y3504D01*
X3256Y3581D01*
X3213Y3646D01*
X3148Y3689D01*
X3071Y3705D01*
D02*
G37*
G36*
X1378Y1737D02*
X1293Y1720D01*
X1222Y1672D01*
X1174Y1600D01*
X1157Y1516D01*
X1174Y1431D01*
X1222Y1360D01*
X1293Y1312D01*
X1378Y1295D01*
X1462Y1312D01*
X1534Y1360D01*
X1582Y1431D01*
X1599Y1516D01*
X1582Y1600D01*
X1534Y1672D01*
X1462Y1720D01*
X1378Y1737D01*
D02*
G37*
G36*
X7323Y1535D02*
X6496D01*
Y787D01*
X7323D01*
Y1535D01*
D02*
G37*
G36*
X3583D02*
X2756D01*
Y787D01*
X3583D01*
Y1535D01*
D02*
G37*
G36*
X1378Y1067D02*
X1293Y1050D01*
X1222Y1003D01*
X1174Y931D01*
X1157Y846D01*
X1174Y762D01*
X1222Y690D01*
X1293Y642D01*
X1378Y626D01*
X1462Y642D01*
X1534Y690D01*
X1582Y762D01*
X1599Y846D01*
X1582Y931D01*
X1534Y1003D01*
X1462Y1050D01*
X1378Y1067D01*
D02*
G37*
G36*
X8130Y748D02*
X7953D01*
Y571D01*
X8130D01*
Y748D01*
D02*
G37*
G36*
X7795D02*
X7618D01*
Y571D01*
X7795D01*
Y748D01*
D02*
G37*
G36*
X8130Y413D02*
X7953D01*
Y236D01*
X8130D01*
Y413D01*
D02*
G37*
G36*
X7795D02*
X7618D01*
Y236D01*
X7795D01*
Y413D01*
D02*
G37*
%LPD*%
G36*
X1649Y6403D02*
X1642Y6394D01*
X1635Y6385D01*
X1630Y6376D01*
X1625Y6366D01*
X1621Y6356D01*
X1618Y6346D01*
X1616Y6335D01*
X1615Y6325D01*
X1614Y6314D01*
X1535D01*
X1535Y6325D01*
X1534Y6335D01*
X1532Y6346D01*
X1529Y6356D01*
X1525Y6366D01*
X1520Y6376D01*
X1514Y6385D01*
X1508Y6394D01*
X1500Y6403D01*
X1492Y6412D01*
X1657D01*
X1649Y6403D01*
D02*
G37*
G36*
X1417Y3881D02*
X1409Y3872D01*
X1402Y3864D01*
X1397Y3855D01*
X1392Y3846D01*
X1387Y3836D01*
X1384Y3826D01*
X1381Y3815D01*
X1379Y3804D01*
X1378Y3793D01*
X1378Y3781D01*
X1261Y3898D01*
X1273Y3898D01*
X1284Y3899D01*
X1295Y3901D01*
X1306Y3904D01*
X1316Y3907D01*
X1326Y3911D01*
X1335Y3916D01*
X1344Y3922D01*
X1353Y3929D01*
X1361Y3936D01*
X1417Y3881D01*
D02*
G37*
G36*
X3134Y3403D02*
X3129Y3398D01*
X3125Y3392D01*
X3121Y3385D01*
X3118Y3377D01*
X3115Y3369D01*
X3113Y3359D01*
X3111Y3349D01*
X3111Y3338D01*
X3110Y3327D01*
X3031D01*
X3031Y3338D01*
X3030Y3349D01*
X3029Y3359D01*
X3027Y3369D01*
X3024Y3377D01*
X3021Y3385D01*
X3017Y3392D01*
X3013Y3398D01*
X3008Y3403D01*
X3002Y3408D01*
X3140D01*
X3134Y3403D01*
D02*
G37*
G36*
X4107Y2657D02*
X4106Y2665D01*
X4104Y2672D01*
X4100Y2678D01*
X4094Y2683D01*
X4087Y2687D01*
X4078Y2691D01*
X4068Y2693D01*
X4056Y2695D01*
X4042Y2696D01*
X4027Y2697D01*
Y2776D01*
X4042Y2776D01*
X4056Y2777D01*
X4068Y2779D01*
X4078Y2782D01*
X4087Y2785D01*
X4094Y2790D01*
X4100Y2795D01*
X4104Y2801D01*
X4106Y2807D01*
X4107Y2815D01*
Y2657D01*
D02*
G37*
%LPC*%
G36*
X6161Y6745D02*
X6127D01*
X6079Y6735D01*
X6038Y6708D01*
X6011Y6667D01*
X6002Y6619D01*
Y6614D01*
X6161D01*
Y6745D01*
D02*
G37*
G36*
X5487Y6745D02*
X5453D01*
Y6614D01*
X5613D01*
Y6619D01*
X5603Y6667D01*
X5576Y6708D01*
X5535Y6735D01*
X5487Y6745D01*
D02*
G37*
G36*
X9461Y4741D02*
X9437Y4738D01*
X9341Y4698D01*
X9259Y4635D01*
X9195Y4553D01*
X9156Y4457D01*
X9153Y4433D01*
X9461D01*
Y4741D01*
D02*
G37*
%LPD*%
D10*
X6093Y5384D02*
X6122Y5413D01*
X5989Y5384D02*
X6093D01*
X5768Y5374D02*
X5896D01*
X5630Y5512D02*
X5768Y5374D01*
X5979Y5374D02*
X5989Y5384D01*
X5896Y5374D02*
X5979D01*
X5896Y5374D02*
X5896Y5374D01*
X5989Y5246D02*
X6093D01*
X5979Y5256D02*
X5989Y5246D01*
X6093D02*
X6122Y5217D01*
X5847Y5256D02*
X5847Y5256D01*
X5768Y5256D02*
X5847D01*
X5847Y5256D02*
X5979D01*
X5630Y5118D02*
X5768Y5256D01*
D11*
X4823Y6575D02*
X4823Y6575D01*
Y6791D01*
X6299Y7283D02*
X6496Y7480D01*
X4488Y7283D02*
X6299D01*
X4094Y7677D02*
X4488Y7283D01*
X4882Y5945D02*
X5276Y5551D01*
X4646Y5945D02*
X4882D01*
X4449Y6142D02*
X4646Y5945D01*
X2756Y6614D02*
X3228Y6142D01*
X4449D01*
X2520Y6614D02*
X3150Y5984D01*
X4818Y5802D02*
X5118Y5502D01*
X3150Y5984D02*
X4370D01*
X4552Y5802D01*
X4818D01*
X5276Y4291D02*
Y5551D01*
X5118Y4331D02*
Y5502D01*
X9016Y6142D02*
Y6437D01*
Y6142D02*
X9291Y5866D01*
X9685D01*
X9951Y5600D01*
Y2549D02*
Y5600D01*
X9606Y2205D02*
X9951Y2549D01*
X9252Y2205D02*
X9606D01*
X9075Y4035D02*
X9213Y3898D01*
X7283Y4035D02*
X9075D01*
X7579Y7874D02*
X9016Y6437D01*
X5315Y3917D02*
X6417D01*
X6772Y3563D01*
X6988D01*
X6988Y6575D02*
Y6791D01*
X7677Y7480D02*
X8169Y6988D01*
Y6575D02*
Y6988D01*
X1969Y7677D02*
X4094D01*
X6496Y7480D02*
X6890D01*
X7677D01*
X3071Y3327D02*
Y3504D01*
Y3327D02*
X3661Y2736D01*
X1476Y3996D02*
Y6201D01*
X1260Y3780D02*
X1476Y3996D01*
X8858Y7795D02*
Y8031D01*
X8465Y8425D02*
X8858Y8031D01*
X8465Y8425D02*
Y8602D01*
Y9193D02*
X8740Y8917D01*
Y8386D02*
Y8917D01*
Y8386D02*
X9134Y7992D01*
X9539Y8004D02*
Y8354D01*
X9094Y7559D02*
X9539Y8004D01*
X8386Y7559D02*
X9094D01*
X6016Y8354D02*
X7591D01*
X8386Y7559D01*
X8315Y7354D02*
X9539D01*
X7500Y8169D02*
X8315Y7354D01*
X5807Y8169D02*
X7500D01*
X6201Y7874D02*
X7579D01*
X6594Y6575D02*
X6594Y6575D01*
X6594Y6575D02*
Y6791D01*
X5079Y3524D02*
Y4094D01*
X5650Y3110D02*
X5728Y3031D01*
X5492Y3110D02*
X5650D01*
X5079Y3524D02*
X5492Y3110D01*
X5079Y4094D02*
X5276Y4291D01*
X5335Y2736D02*
Y3031D01*
X4921Y4134D02*
X5118Y4331D01*
X4921Y3445D02*
Y4134D01*
Y3445D02*
X5335Y3031D01*
X5945Y8425D02*
X6016Y8354D01*
X5669Y8425D02*
X5945D01*
X5413Y8169D02*
X5669Y8425D01*
X8169Y6575D02*
X8169Y6575D01*
X1646Y7354D02*
X1969Y7677D01*
X539Y7354D02*
X1646D01*
X3248Y6614D02*
X3642D01*
Y6969D02*
Y7185D01*
X3406Y7421D02*
X3642Y7185D01*
X2756Y7421D02*
X3406D01*
X2756Y6831D02*
X2894Y6969D01*
X3248D01*
X2520Y7185D02*
X2756Y7421D01*
X2520Y6614D02*
Y7185D01*
X2756Y6614D02*
Y6831D01*
X5807Y7854D02*
X5807Y7854D01*
Y8169D01*
X5413Y7854D02*
X5413Y7854D01*
Y8169D01*
X6988Y6575D02*
X7382D01*
X5413Y6220D02*
X5807D01*
X5413Y6063D02*
Y6220D01*
Y6063D02*
X5866Y5610D01*
X6201D01*
X5807Y6063D02*
Y6220D01*
Y6063D02*
X5886Y5984D01*
X6299D01*
X6398Y5886D01*
Y5689D02*
Y5886D01*
X6201Y6220D02*
X6594D01*
X6594Y6220D02*
X6594Y6220D01*
X6594Y5689D02*
Y6220D01*
X6791Y5886D02*
X6988Y6083D01*
Y6220D01*
X6791Y5689D02*
Y5886D01*
X7382Y6220D02*
X7776D01*
X7579Y5217D02*
X7776Y5413D01*
Y6220D01*
X7264Y5217D02*
X7579D01*
X6791Y4350D02*
X6988Y4154D01*
Y3917D02*
Y4154D01*
X7126Y4252D02*
X7402D01*
X6988Y4390D02*
X7126Y4252D01*
X6988Y4390D02*
Y4547D01*
X7402Y4252D02*
X8169Y5020D01*
Y6220D01*
X6791Y4350D02*
Y4547D01*
X6594Y4232D02*
Y4547D01*
X2264Y4902D02*
Y5335D01*
X3031D01*
X3120Y5246D01*
X3583D01*
X5925Y2165D02*
Y2736D01*
X5728D02*
Y3031D01*
X1575Y6299D02*
Y6496D01*
X1476Y6201D02*
X1575Y6299D01*
X3661Y2736D02*
X4154D01*
D12*
X6093Y5020D02*
X6368D01*
X6988Y5413D02*
X7264D01*
X6693Y7087D02*
X6988Y6791D01*
X5354Y7087D02*
X6693D01*
X5118Y6850D02*
X5354Y7087D01*
X4331Y7795D02*
X4882D01*
X5177Y7500D01*
X3937Y6614D02*
Y7283D01*
Y6614D02*
X4252D01*
X3642D02*
X3937D01*
X4252D02*
X4646Y6220D01*
X4823D01*
X4823Y6220D01*
X5118D01*
X5413D01*
X5118D02*
Y6850D01*
X6988Y6791D02*
X6988Y6791D01*
X5177Y7500D02*
X5413D01*
X5807D01*
D31*
X3957Y4035D02*
D03*
X4311D02*
D03*
X3956Y3642D02*
D03*
X4312D02*
D03*
D32*
X7874Y492D02*
D03*
D35*
X5807Y7854D02*
D03*
Y7500D02*
D03*
X5413Y7854D02*
D03*
Y7500D02*
D03*
X4823Y6220D02*
D03*
Y6575D02*
D03*
X3248Y6969D02*
D03*
Y6614D02*
D03*
X3642Y6969D02*
D03*
Y6614D02*
D03*
X2657Y4902D02*
D03*
Y4547D02*
D03*
X3051Y4902D02*
D03*
Y4547D02*
D03*
X2264Y4902D02*
D03*
Y4547D02*
D03*
Y5689D02*
D03*
Y5335D02*
D03*
X6594Y6575D02*
D03*
Y6220D02*
D03*
X6201Y6575D02*
D03*
Y6220D02*
D03*
X6988Y3917D02*
D03*
Y3563D02*
D03*
X8169Y6220D02*
D03*
Y6575D02*
D03*
X5807Y6575D02*
D03*
Y6220D02*
D03*
X5413Y6575D02*
D03*
Y6220D02*
D03*
X6988Y6220D02*
D03*
Y6575D02*
D03*
X7382Y6220D02*
D03*
Y6575D02*
D03*
X7776D02*
D03*
Y6220D02*
D03*
D44*
X7638Y3504D02*
X8209D01*
X7362Y3228D02*
X7638Y3504D01*
X6260Y3228D02*
X7362D01*
X9024Y3354D02*
X9539D01*
X8819Y3150D02*
X9024Y3354D01*
X8563Y3150D02*
X8819D01*
X8209Y3504D02*
X8563Y3150D01*
X6063Y3425D02*
X6260Y3228D01*
X5551Y3425D02*
X6063D01*
X3642Y3642D02*
X3642Y3642D01*
X3956D01*
X539Y3354D02*
X1681D01*
X4311Y3643D02*
X4312Y3642D01*
X4311Y3643D02*
Y4035D01*
X4941Y4743D02*
Y5394D01*
Y4449D02*
Y4743D01*
X4932Y4734D02*
X4941Y4743D01*
X4685Y4734D02*
X4932D01*
X4311Y4035D02*
X4528D01*
X4941Y4449D01*
X4833Y5502D02*
X4941Y5394D01*
X4685Y5502D02*
X4833D01*
X3051Y4547D02*
X3248D01*
X3435Y4734D01*
X3583D01*
X2657Y4547D02*
X3051D01*
X5925Y2165D02*
X6791D01*
X3543D02*
X5925D01*
X6791D02*
X7776Y3150D01*
X2657Y3051D02*
X3543Y2165D01*
X2264Y3937D02*
Y4547D01*
X1681Y3354D02*
X2264Y3937D01*
Y4547D02*
X2657D01*
X2657Y3051D02*
Y4547D01*
X2657Y4547D01*
D45*
X1378Y846D02*
D03*
Y1516D02*
D03*
D46*
X539Y8354D02*
D03*
Y4354D02*
D03*
Y5354D02*
D03*
Y6354D02*
D03*
Y7354D02*
D03*
Y9354D02*
D03*
Y10354D02*
D03*
X9539Y8354D02*
D03*
Y4354D02*
D03*
Y5354D02*
D03*
Y6354D02*
D03*
Y7354D02*
D03*
Y9354D02*
D03*
Y10354D02*
D03*
D47*
X539Y3354D02*
D03*
X9539D02*
D03*
D48*
X2362Y492D02*
D03*
X7874Y886D02*
D03*
Y2264D02*
D03*
Y1575D02*
D03*
X197Y9941D02*
D03*
Y8858D02*
D03*
Y7776D02*
D03*
Y6791D02*
D03*
Y5807D02*
D03*
Y4823D02*
D03*
Y3937D02*
D03*
X787Y2559D02*
D03*
X1476D02*
D03*
X2756D02*
D03*
X7480Y1969D02*
D03*
Y1280D02*
D03*
X8268Y591D02*
D03*
Y1280D02*
D03*
X8858Y2559D02*
D03*
Y1969D02*
D03*
X8268D02*
D03*
Y2559D02*
D03*
X9646Y2756D02*
D03*
X8268Y4331D02*
D03*
Y4724D02*
D03*
X9252Y4823D02*
D03*
X8563Y6004D02*
D03*
X8465Y10630D02*
D03*
Y9646D02*
D03*
X9843Y9843D02*
D03*
Y8858D02*
D03*
Y7874D02*
D03*
Y6791D02*
D03*
X5413Y8563D02*
D03*
X3839Y7972D02*
D03*
X4626Y8071D02*
D03*
X2657Y10433D02*
D03*
X2165Y9154D02*
D03*
X2854Y7972D02*
D03*
X6791Y10827D02*
D03*
X6398Y8661D02*
D03*
Y9449D02*
D03*
Y10236D02*
D03*
X8957Y11319D02*
D03*
X9744D02*
D03*
X7382D02*
D03*
X8268D02*
D03*
X5807D02*
D03*
X6594D02*
D03*
X4232D02*
D03*
X5020D02*
D03*
X2657D02*
D03*
X3445D02*
D03*
X1870D02*
D03*
X1083D02*
D03*
X295D02*
D03*
X1083Y10335D02*
D03*
X1378Y9941D02*
D03*
X1673Y8858D02*
D03*
X1083D02*
D03*
X2874Y5079D02*
D03*
X1870Y1181D02*
D03*
X295Y2756D02*
D03*
X1083Y1181D02*
D03*
X2657Y197D02*
D03*
X2461Y1181D02*
D03*
Y2559D02*
D03*
X2362Y3248D02*
D03*
X3445Y3346D02*
D03*
X3740Y3051D02*
D03*
X6398Y3543D02*
D03*
X7382Y3642D02*
D03*
X6496Y2854D02*
D03*
X5748Y4803D02*
D03*
X6201Y4232D02*
D03*
X7283Y7087D02*
D03*
X5413Y6791D02*
D03*
X6201D02*
D03*
X5807D02*
D03*
X4823D02*
D03*
X4331Y7795D02*
D03*
X9213Y3898D02*
D03*
X7283Y4035D02*
D03*
X5551Y3425D02*
D03*
X5630Y5512D02*
D03*
Y5118D02*
D03*
X3642Y3642D02*
D03*
X6988Y6791D02*
D03*
X3937Y7283D02*
D03*
X6890Y7480D02*
D03*
X3071Y3504D02*
D03*
X1260Y3780D02*
D03*
X8465Y8602D02*
D03*
Y9193D02*
D03*
X9134Y7992D02*
D03*
X8858Y7795D02*
D03*
X6201Y7874D02*
D03*
X9252Y2205D02*
D03*
X6594Y6791D02*
D03*
X5315Y3917D02*
D03*
X2756Y7421D02*
D03*
Y6831D02*
D03*
X6594Y4232D02*
D03*
X1575Y6496D02*
D03*
X5413Y8169D02*
D03*
X5807D02*
D03*
X8563Y3150D02*
D03*
X7776D02*
D03*
X4134Y5118D02*
D03*
X3976Y5335D02*
D03*
X4291D02*
D03*
Y4902D02*
D03*
X3976D02*
D03*
X6693Y5118D02*
D03*
X6496Y5315D02*
D03*
X6890D02*
D03*
Y4921D02*
D03*
X6496D02*
D03*
D49*
X6693Y5118D02*
D03*
D50*
X6398Y4547D02*
D03*
X6594D02*
D03*
X6791D02*
D03*
X6988D02*
D03*
Y5689D02*
D03*
X6791D02*
D03*
X6594D02*
D03*
X6398D02*
D03*
D51*
X7185Y4626D02*
D03*
D52*
X7264Y4823D02*
D03*
Y5020D02*
D03*
Y5217D02*
D03*
Y5413D02*
D03*
X6122D02*
D03*
Y5217D02*
D03*
Y5020D02*
D03*
Y4823D02*
D03*
D53*
X7185Y5610D02*
D03*
X6201D02*
D03*
Y4626D02*
D03*
D54*
X4006Y5610D02*
D03*
X4262D02*
D03*
X4006Y4626D02*
D03*
X4262D02*
D03*
D55*
X4134Y5118D02*
D03*
D56*
X3583Y4734D02*
D03*
Y4990D02*
D03*
Y5246D02*
D03*
Y5502D02*
D03*
X4685D02*
D03*
Y5246D02*
D03*
Y4734D02*
D03*
Y4990D02*
D03*
D57*
X5925Y2736D02*
D03*
X5728D02*
D03*
X5531D02*
D03*
X5335D02*
D03*
X5138D02*
D03*
X4941D02*
D03*
X4744D02*
D03*
X4547D02*
D03*
X4154D02*
D03*
X4350D02*
D03*
D58*
X3169Y1161D02*
D03*
X6909D02*
D03*
M02*
