G04*
G04 #@! TF.GenerationSoftware,Altium Limited,Altium Designer,19.1.9 (167)*
G04*
G04 Layer_Color=8388736*
%FSLAX24Y24*%
%MOIN*%
G70*
G01*
G75*
G04:AMPARAMS|DCode=13|XSize=25.6mil|YSize=19.7mil|CornerRadius=5.4mil|HoleSize=0mil|Usage=FLASHONLY|Rotation=270.000|XOffset=0mil|YOffset=0mil|HoleType=Round|Shape=RoundedRectangle|*
%AMROUNDEDRECTD13*
21,1,0.0256,0.0089,0,0,270.0*
21,1,0.0148,0.0197,0,0,270.0*
1,1,0.0108,-0.0044,-0.0074*
1,1,0.0108,-0.0044,0.0074*
1,1,0.0108,0.0044,0.0074*
1,1,0.0108,0.0044,-0.0074*
%
%ADD13ROUNDEDRECTD13*%
%ADD14R,0.0335X0.0335*%
%ADD15R,0.0177X0.0551*%
%ADD16C,0.0217*%
G04:AMPARAMS|DCode=17|XSize=25.6mil|YSize=19.7mil|CornerRadius=5.4mil|HoleSize=0mil|Usage=FLASHONLY|Rotation=180.000|XOffset=0mil|YOffset=0mil|HoleType=Round|Shape=RoundedRectangle|*
%AMROUNDEDRECTD17*
21,1,0.0256,0.0089,0,0,180.0*
21,1,0.0148,0.0197,0,0,180.0*
1,1,0.0108,-0.0074,0.0044*
1,1,0.0108,0.0074,0.0044*
1,1,0.0108,0.0074,-0.0044*
1,1,0.0108,-0.0074,-0.0044*
%
%ADD17ROUNDEDRECTD17*%
%ADD18O,0.0807X0.0413*%
%ADD19O,0.0610X0.0413*%
%ADD20R,0.0492X0.0256*%
%ADD21R,0.0335X0.0374*%
G04:AMPARAMS|DCode=22|XSize=27.6mil|YSize=21.7mil|CornerRadius=6.4mil|HoleSize=0mil|Usage=FLASHONLY|Rotation=0.000|XOffset=0mil|YOffset=0mil|HoleType=Round|Shape=RoundedRectangle|*
%AMROUNDEDRECTD22*
21,1,0.0276,0.0089,0,0,0.0*
21,1,0.0148,0.0217,0,0,0.0*
1,1,0.0128,0.0074,-0.0044*
1,1,0.0128,-0.0074,-0.0044*
1,1,0.0128,-0.0074,0.0044*
1,1,0.0128,0.0074,0.0044*
%
%ADD22ROUNDEDRECTD22*%
G04:AMPARAMS|DCode=23|XSize=37.4mil|YSize=29.5mil|CornerRadius=7.9mil|HoleSize=0mil|Usage=FLASHONLY|Rotation=180.000|XOffset=0mil|YOffset=0mil|HoleType=Round|Shape=RoundedRectangle|*
%AMROUNDEDRECTD23*
21,1,0.0374,0.0138,0,0,180.0*
21,1,0.0217,0.0295,0,0,180.0*
1,1,0.0157,-0.0108,0.0069*
1,1,0.0157,0.0108,0.0069*
1,1,0.0157,0.0108,-0.0069*
1,1,0.0157,-0.0108,-0.0069*
%
%ADD23ROUNDEDRECTD23*%
G04:AMPARAMS|DCode=24|XSize=37.4mil|YSize=29.5mil|CornerRadius=7.9mil|HoleSize=0mil|Usage=FLASHONLY|Rotation=90.000|XOffset=0mil|YOffset=0mil|HoleType=Round|Shape=RoundedRectangle|*
%AMROUNDEDRECTD24*
21,1,0.0374,0.0138,0,0,90.0*
21,1,0.0217,0.0295,0,0,90.0*
1,1,0.0157,0.0069,0.0108*
1,1,0.0157,0.0069,-0.0108*
1,1,0.0157,-0.0069,-0.0108*
1,1,0.0157,-0.0069,0.0108*
%
%ADD24ROUNDEDRECTD24*%
%ADD25R,0.0591X0.0531*%
%ADD26R,0.0650X0.0571*%
%ADD27C,0.0059*%
%ADD28C,0.0020*%
%ADD29C,0.0610*%
%ADD30R,0.0610X0.0610*%
D13*
X1791Y2953D02*
D03*
X2146D02*
D03*
X2835Y2953D02*
D03*
X2480D02*
D03*
X2146Y2559D02*
D03*
X1791D02*
D03*
D14*
X6988Y2756D02*
D03*
D15*
X4783Y2146D02*
D03*
X5039D02*
D03*
X5551D02*
D03*
X5295D02*
D03*
X4528D02*
D03*
D16*
X7776Y2559D02*
D03*
X5020Y3720D02*
D03*
D17*
X8169Y3720D02*
D03*
Y3366D02*
D03*
X8563Y3720D02*
D03*
Y3366D02*
D03*
X7776D02*
D03*
Y3720D02*
D03*
X9646Y1201D02*
D03*
Y1555D02*
D03*
X9252Y1201D02*
D03*
Y1555D02*
D03*
X8858Y1201D02*
D03*
Y1555D02*
D03*
D18*
X2165Y5059D02*
D03*
Y5650D02*
D03*
Y6240D02*
D03*
Y6831D02*
D03*
Y7421D02*
D03*
Y8012D02*
D03*
Y8602D02*
D03*
X7874Y10965D02*
D03*
Y10374D02*
D03*
X2165Y10965D02*
D03*
Y9783D02*
D03*
Y4469D02*
D03*
X7874D02*
D03*
Y5059D02*
D03*
Y5650D02*
D03*
Y6240D02*
D03*
Y6831D02*
D03*
Y7421D02*
D03*
Y8012D02*
D03*
Y8602D02*
D03*
Y9193D02*
D03*
Y9783D02*
D03*
D19*
X2067Y10374D02*
D03*
D20*
X1142Y2087D02*
D03*
Y276D02*
D03*
D21*
X1929Y512D02*
D03*
Y1850D02*
D03*
D22*
X9646Y413D02*
D03*
Y769D02*
D03*
X8858Y413D02*
D03*
Y769D02*
D03*
X9252Y413D02*
D03*
Y769D02*
D03*
D23*
X4035Y3169D02*
D03*
Y3720D02*
D03*
X4528D02*
D03*
Y3169D02*
D03*
D24*
X2480Y2067D02*
D03*
X3031D02*
D03*
Y1575D02*
D03*
X2480D02*
D03*
D25*
X3701Y1083D02*
D03*
X6378D02*
D03*
D26*
X3760Y2067D02*
D03*
X6319D02*
D03*
D27*
X1378Y846D02*
D03*
Y1516D02*
D03*
D28*
X5827Y1929D02*
D03*
X4252D02*
D03*
D29*
X539Y8354D02*
D03*
Y4354D02*
D03*
Y5354D02*
D03*
Y6354D02*
D03*
Y7354D02*
D03*
Y9354D02*
D03*
Y10354D02*
D03*
X9539Y8354D02*
D03*
Y4354D02*
D03*
Y5354D02*
D03*
Y6354D02*
D03*
Y7354D02*
D03*
Y9354D02*
D03*
Y10354D02*
D03*
D30*
X539Y3354D02*
D03*
X9539D02*
D03*
M02*
