G04*
G04 #@! TF.GenerationSoftware,Altium Limited,Altium Designer,19.1.9 (167)*
G04*
G04 Layer_Physical_Order=1*
G04 Layer_Color=255*
%FSLAX24Y24*%
%MOIN*%
G70*
G01*
G75*
%ADD10C,0.0059*%
%ADD11C,0.0079*%
%ADD12C,0.0098*%
G04:AMPARAMS|DCode=31|XSize=23.6mil|YSize=17.7mil|CornerRadius=4.4mil|HoleSize=0mil|Usage=FLASHONLY|Rotation=270.000|XOffset=0mil|YOffset=0mil|HoleType=Round|Shape=RoundedRectangle|*
%AMROUNDEDRECTD31*
21,1,0.0236,0.0089,0,0,270.0*
21,1,0.0148,0.0177,0,0,270.0*
1,1,0.0089,-0.0044,-0.0074*
1,1,0.0089,-0.0044,0.0074*
1,1,0.0089,0.0044,0.0074*
1,1,0.0089,0.0044,-0.0074*
%
%ADD31ROUNDEDRECTD31*%
%ADD32R,0.0315X0.0315*%
%ADD33R,0.0157X0.0531*%
%ADD34C,0.0197*%
G04:AMPARAMS|DCode=35|XSize=23.6mil|YSize=17.7mil|CornerRadius=4.4mil|HoleSize=0mil|Usage=FLASHONLY|Rotation=180.000|XOffset=0mil|YOffset=0mil|HoleType=Round|Shape=RoundedRectangle|*
%AMROUNDEDRECTD35*
21,1,0.0236,0.0089,0,0,180.0*
21,1,0.0148,0.0177,0,0,180.0*
1,1,0.0089,-0.0074,0.0044*
1,1,0.0089,0.0074,0.0044*
1,1,0.0089,0.0074,-0.0044*
1,1,0.0089,-0.0074,-0.0044*
%
%ADD35ROUNDEDRECTD35*%
%ADD36O,0.0787X0.0394*%
%ADD37O,0.0591X0.0394*%
%ADD38R,0.0472X0.0236*%
%ADD39R,0.0315X0.0354*%
G04:AMPARAMS|DCode=40|XSize=35.4mil|YSize=27.6mil|CornerRadius=6.9mil|HoleSize=0mil|Usage=FLASHONLY|Rotation=180.000|XOffset=0mil|YOffset=0mil|HoleType=Round|Shape=RoundedRectangle|*
%AMROUNDEDRECTD40*
21,1,0.0354,0.0138,0,0,180.0*
21,1,0.0217,0.0276,0,0,180.0*
1,1,0.0138,-0.0108,0.0069*
1,1,0.0138,0.0108,0.0069*
1,1,0.0138,0.0108,-0.0069*
1,1,0.0138,-0.0108,-0.0069*
%
%ADD40ROUNDEDRECTD40*%
G04:AMPARAMS|DCode=41|XSize=35.4mil|YSize=27.6mil|CornerRadius=6.9mil|HoleSize=0mil|Usage=FLASHONLY|Rotation=90.000|XOffset=0mil|YOffset=0mil|HoleType=Round|Shape=RoundedRectangle|*
%AMROUNDEDRECTD41*
21,1,0.0354,0.0138,0,0,90.0*
21,1,0.0217,0.0276,0,0,90.0*
1,1,0.0138,0.0069,0.0108*
1,1,0.0138,0.0069,-0.0108*
1,1,0.0138,-0.0069,-0.0108*
1,1,0.0138,-0.0069,0.0108*
%
%ADD41ROUNDEDRECTD41*%
%ADD42R,0.0571X0.0512*%
%ADD43R,0.0630X0.0551*%
%ADD44C,0.0157*%
%ADD45C,0.0039*%
%ADD46C,0.0591*%
%ADD47R,0.0591X0.0591*%
%ADD48C,0.0236*%
G36*
X7499Y10886D02*
X7498Y10894D01*
X7495Y10900D01*
X7491Y10906D01*
X7484Y10911D01*
X7476Y10915D01*
X7466Y10919D01*
X7454Y10922D01*
X7440Y10924D01*
X7424Y10925D01*
X7406Y10925D01*
Y11004D01*
X7424Y11004D01*
X7454Y11007D01*
X7466Y11010D01*
X7476Y11014D01*
X7484Y11018D01*
X7491Y11023D01*
X7495Y11029D01*
X7498Y11035D01*
X7499Y11043D01*
Y10886D01*
D02*
G37*
G36*
Y10296D02*
X7498Y10303D01*
X7495Y10310D01*
X7491Y10316D01*
X7484Y10321D01*
X7476Y10325D01*
X7466Y10328D01*
X7454Y10331D01*
X7440Y10333D01*
X7424Y10334D01*
X7406Y10335D01*
Y10413D01*
X7424Y10414D01*
X7454Y10417D01*
X7466Y10420D01*
X7476Y10423D01*
X7484Y10427D01*
X7491Y10432D01*
X7495Y10438D01*
X7498Y10445D01*
X7499Y10452D01*
Y10296D01*
D02*
G37*
G36*
X9536Y10059D02*
X9491Y10059D01*
X9411Y10054D01*
X9376Y10050D01*
X9344Y10044D01*
X9315Y10037D01*
X9290Y10028D01*
X9269Y10018D01*
X9250Y10007D01*
X9235Y9994D01*
X9179Y10050D01*
X9192Y10065D01*
X9203Y10084D01*
X9213Y10105D01*
X9222Y10130D01*
X9229Y10159D01*
X9235Y10191D01*
X9239Y10226D01*
X9244Y10306D01*
X9244Y10351D01*
X9536Y10059D01*
D02*
G37*
G36*
X835Y10306D02*
X839Y10226D01*
X844Y10191D01*
X850Y10159D01*
X857Y10130D01*
X865Y10105D01*
X875Y10084D01*
X887Y10065D01*
X899Y10050D01*
X844Y9994D01*
X829Y10007D01*
X810Y10018D01*
X788Y10028D01*
X763Y10037D01*
X735Y10044D01*
X703Y10050D01*
X668Y10054D01*
X588Y10059D01*
X542Y10059D01*
X835Y10351D01*
X835Y10306D01*
D02*
G37*
G36*
X9998Y80D02*
X7265D01*
Y2343D01*
X7259Y2373D01*
X7242Y2399D01*
X7216Y2417D01*
X7185Y2423D01*
X6004D01*
X5996Y2421D01*
X5925D01*
Y2350D01*
X5924Y2343D01*
Y2133D01*
X5874Y2100D01*
X5827Y2110D01*
X5758Y2096D01*
X5699Y2057D01*
X5660Y1998D01*
X5646Y1929D01*
X5652Y1902D01*
X5611Y1852D01*
X5197D01*
Y2490D01*
X5081D01*
Y2563D01*
X5144Y2626D01*
X5561D01*
X5603Y2634D01*
X5639Y2658D01*
X6003Y3023D01*
X6027Y3058D01*
X6036Y3101D01*
Y4213D01*
X6027Y4255D01*
X6003Y4291D01*
X5307Y4987D01*
Y5072D01*
X5380Y5146D01*
X5387D01*
X5429Y5118D01*
X5444Y5041D01*
X5488Y4976D01*
X5553Y4933D01*
X5630Y4917D01*
X5707Y4933D01*
X5772Y4976D01*
X5815Y5041D01*
X5831Y5118D01*
X5815Y5195D01*
X5772Y5260D01*
X5735Y5285D01*
Y5345D01*
X5772Y5370D01*
X5815Y5435D01*
X5831Y5512D01*
X5815Y5589D01*
X5772Y5654D01*
X5728Y5683D01*
X5716Y5742D01*
X6557Y6584D01*
X6560Y6586D01*
X6563Y6587D01*
X6567Y6589D01*
X6571Y6590D01*
X6575Y6591D01*
X6580Y6592D01*
X6585Y6593D01*
X6594Y6591D01*
X6671Y6606D01*
X6736Y6649D01*
X6747Y6665D01*
X6805Y6667D01*
X6828Y6639D01*
Y6043D01*
X6828Y6043D01*
X6840Y5982D01*
X6875Y5930D01*
X7268Y5536D01*
X7268Y5536D01*
X7320Y5501D01*
X7382Y5489D01*
X7437D01*
X7454Y5488D01*
X7481Y5453D01*
X7538Y5409D01*
X7605Y5381D01*
X7617Y5380D01*
Y5329D01*
X7605Y5328D01*
X7538Y5300D01*
X7481Y5256D01*
X7436Y5198D01*
X7409Y5131D01*
X7399Y5059D01*
X7409Y4987D01*
X7436Y4920D01*
X7481Y4863D01*
X7538Y4818D01*
X7605Y4791D01*
X7677Y4781D01*
X8071D01*
X8143Y4791D01*
X8210Y4818D01*
X8267Y4863D01*
X8289Y4891D01*
X8306Y4894D01*
X8359Y4898D01*
X8402Y4855D01*
Y3919D01*
X8399Y3884D01*
X8399Y3883D01*
X8346Y3881D01*
X8314D01*
X8285Y3882D01*
X8281Y3883D01*
X8243Y3890D01*
X8095D01*
X8047Y3881D01*
X8007Y3853D01*
X7980Y3813D01*
X7970Y3765D01*
Y3676D01*
X7980Y3628D01*
X8007Y3587D01*
X8019Y3579D01*
X8005Y3529D01*
X7952Y3527D01*
X7920D01*
X7891Y3528D01*
X7887Y3528D01*
X7849Y3536D01*
X7702D01*
X7654Y3526D01*
X7613Y3499D01*
X7586Y3458D01*
X7576Y3410D01*
Y3322D01*
X7586Y3274D01*
X7604Y3247D01*
X7590Y3226D01*
X7575Y3150D01*
X7590Y3073D01*
X7634Y3008D01*
X7642Y3002D01*
X7645Y2999D01*
X7648Y2995D01*
X7650Y2991D01*
X7652Y2987D01*
X7653Y2983D01*
X7654Y2982D01*
X7655Y2960D01*
Y2717D01*
X7655Y2716D01*
X7654Y2710D01*
X7653Y2705D01*
X7651Y2699D01*
X7648Y2693D01*
X7645Y2687D01*
X7642Y2680D01*
X7638Y2673D01*
X7632Y2665D01*
X7628Y2657D01*
X7609Y2628D01*
X7595Y2559D01*
X7609Y2490D01*
X7648Y2431D01*
X7706Y2392D01*
X7776Y2378D01*
X7845Y2392D01*
X7903Y2431D01*
X7942Y2490D01*
X7956Y2559D01*
X7942Y2628D01*
X7923Y2657D01*
X7920Y2665D01*
X7913Y2673D01*
X7909Y2680D01*
X7906Y2687D01*
X7903Y2693D01*
X7900Y2699D01*
X7899Y2705D01*
X7897Y2710D01*
X7896Y2716D01*
X7896Y2717D01*
Y2970D01*
X7896Y2977D01*
X7897Y2980D01*
X7898Y2983D01*
X7899Y2987D01*
X7901Y2991D01*
X7903Y2995D01*
X7906Y2999D01*
X7909Y3002D01*
X7918Y3008D01*
X7959Y3069D01*
X7962Y3070D01*
X8009Y3040D01*
Y2953D01*
X8009Y2953D01*
X8021Y2891D01*
X8056Y2839D01*
X8154Y2741D01*
X8154Y2741D01*
X8206Y2706D01*
X8268Y2694D01*
X8268Y2694D01*
X8401D01*
X8413Y2693D01*
X8429Y2690D01*
X8441Y2687D01*
X8443Y2665D01*
Y492D01*
X8443Y492D01*
X8452Y446D01*
X8478Y407D01*
X8557Y327D01*
X8557Y327D01*
X8596Y301D01*
X8643Y292D01*
X8676D01*
X8677Y292D01*
X8683Y291D01*
X8687Y290D01*
X8689Y290D01*
X8690Y288D01*
X8690Y288D01*
X8696Y280D01*
X8712Y269D01*
X8713Y268D01*
X8714Y268D01*
X8736Y252D01*
X8784Y243D01*
X8932D01*
X8980Y252D01*
X9003Y268D01*
X9003Y268D01*
X9004Y269D01*
X9021Y280D01*
X9026Y288D01*
X9027Y288D01*
X9028Y289D01*
X9030Y290D01*
X9034Y291D01*
X9039Y292D01*
X9041Y292D01*
X9070D01*
X9071Y292D01*
X9076Y291D01*
X9080Y290D01*
X9083Y290D01*
X9083Y288D01*
X9084Y288D01*
X9089Y280D01*
X9106Y269D01*
X9107Y268D01*
X9108Y268D01*
X9130Y252D01*
X9178Y243D01*
X9326D01*
X9374Y252D01*
X9396Y268D01*
X9397Y268D01*
X9398Y269D01*
X9414Y280D01*
X9420Y288D01*
X9421Y288D01*
X9421Y289D01*
X9424Y290D01*
X9428Y291D01*
X9433Y292D01*
X9434Y292D01*
X9463D01*
X9465Y292D01*
X9470Y291D01*
X9474Y290D01*
X9476Y290D01*
X9477Y288D01*
X9478Y288D01*
X9483Y280D01*
X9500Y269D01*
X9501Y268D01*
X9501Y268D01*
X9524Y252D01*
X9572Y243D01*
X9719D01*
X9768Y252D01*
X9808Y280D01*
X9835Y320D01*
X9845Y368D01*
Y457D01*
X9835Y505D01*
X9808Y546D01*
X9782Y563D01*
X9781Y568D01*
Y613D01*
X9782Y618D01*
X9808Y636D01*
X9835Y676D01*
X9845Y724D01*
Y813D01*
X9835Y861D01*
X9808Y901D01*
X9768Y929D01*
X9766Y929D01*
Y1040D01*
X9767Y1041D01*
X9808Y1068D01*
X9835Y1108D01*
X9845Y1156D01*
Y1245D01*
X9835Y1293D01*
X9808Y1334D01*
X9784Y1350D01*
X9783Y1353D01*
Y1403D01*
X9784Y1406D01*
X9808Y1422D01*
X9835Y1463D01*
X9845Y1511D01*
Y1599D01*
X9835Y1647D01*
X9808Y1688D01*
X9767Y1715D01*
X9766Y1716D01*
Y2165D01*
X9757Y2211D01*
X9731Y2251D01*
X9731Y2251D01*
X9215Y2766D01*
Y2980D01*
X9913D01*
Y3728D01*
X9396D01*
X9370Y3778D01*
X9398Y3821D01*
X9413Y3898D01*
X9407Y3929D01*
X9418Y3945D01*
X9450Y3969D01*
X9461Y3968D01*
Y4276D01*
X9153D01*
X9156Y4252D01*
X9195Y4156D01*
X9202Y4147D01*
X9181Y4092D01*
X9136Y4083D01*
X9071Y4040D01*
X9069Y4037D01*
X9019Y4052D01*
Y5217D01*
X9019Y5217D01*
X9007Y5278D01*
X8972Y5330D01*
X8539Y5763D01*
X8487Y5798D01*
X8425Y5810D01*
X8425Y5810D01*
X8356D01*
X8335Y5811D01*
X8307Y5815D01*
X8289Y5818D01*
X8267Y5846D01*
X8210Y5890D01*
X8143Y5918D01*
X8131Y5920D01*
Y5970D01*
X8143Y5972D01*
X8210Y5999D01*
X8267Y6044D01*
X8312Y6101D01*
X8319Y6120D01*
X8327D01*
X8327Y6120D01*
X8373Y6129D01*
X8412Y6155D01*
X8688Y6431D01*
X8738Y6410D01*
Y6035D01*
X8738Y6035D01*
X8747Y5989D01*
X8773Y5950D01*
X9126Y5597D01*
X9127Y5596D01*
X9132Y5587D01*
X9139Y5574D01*
X9145Y5555D01*
X9151Y5533D01*
X9155Y5506D01*
X9159Y5476D01*
X9164Y5400D01*
X9164Y5367D01*
X9162Y5354D01*
X9175Y5257D01*
X9213Y5166D01*
X9273Y5088D01*
X9351Y5028D01*
X9442Y4990D01*
X9539Y4977D01*
X9637Y4990D01*
X9728Y5028D01*
X9806Y5088D01*
X9866Y5166D01*
X9904Y5257D01*
X9917Y5354D01*
X9904Y5452D01*
X9866Y5543D01*
X9806Y5621D01*
X9728Y5681D01*
X9637Y5719D01*
X9539Y5732D01*
X9527Y5730D01*
X9494Y5730D01*
X9418Y5734D01*
X9388Y5738D01*
X9361Y5743D01*
X9338Y5749D01*
X9320Y5755D01*
X9306Y5761D01*
X9297Y5767D01*
X9296Y5768D01*
X8979Y6085D01*
Y6696D01*
X8984Y6698D01*
X9029Y6705D01*
X9049Y6675D01*
X9126Y6597D01*
X9127Y6596D01*
X9132Y6587D01*
X9139Y6574D01*
X9145Y6555D01*
X9151Y6533D01*
X9155Y6506D01*
X9159Y6476D01*
X9164Y6400D01*
X9164Y6367D01*
X9162Y6354D01*
X9175Y6257D01*
X9213Y6166D01*
X9273Y6088D01*
X9351Y6028D01*
X9442Y5990D01*
X9539Y5977D01*
X9637Y5990D01*
X9728Y6028D01*
X9806Y6088D01*
X9866Y6166D01*
X9904Y6257D01*
X9917Y6354D01*
X9904Y6452D01*
X9866Y6543D01*
X9806Y6621D01*
X9728Y6681D01*
X9637Y6719D01*
X9539Y6732D01*
X9527Y6730D01*
X9494Y6730D01*
X9418Y6734D01*
X9388Y6738D01*
X9361Y6743D01*
X9338Y6749D01*
X9320Y6755D01*
X9306Y6761D01*
X9297Y6767D01*
X9296Y6768D01*
X9254Y6810D01*
Y7039D01*
X9304Y7063D01*
X9351Y7028D01*
X9442Y6990D01*
X9539Y6977D01*
X9637Y6990D01*
X9728Y7028D01*
X9806Y7088D01*
X9866Y7166D01*
X9904Y7257D01*
X9917Y7354D01*
X9904Y7452D01*
X9866Y7543D01*
X9806Y7621D01*
X9728Y7681D01*
X9637Y7719D01*
X9539Y7732D01*
X9442Y7719D01*
X9351Y7681D01*
X9304Y7645D01*
X9254Y7670D01*
Y7819D01*
X9255Y7822D01*
X9256Y7826D01*
X9258Y7830D01*
X9259Y7833D01*
X9262Y7837D01*
X9265Y7841D01*
X9267Y7845D01*
X9276Y7850D01*
X9319Y7915D01*
X9332Y7981D01*
X9364Y8007D01*
X9381Y8015D01*
X9442Y7990D01*
X9539Y7977D01*
X9637Y7990D01*
X9728Y8028D01*
X9806Y8088D01*
X9866Y8166D01*
X9904Y8257D01*
X9917Y8354D01*
X9904Y8452D01*
X9866Y8543D01*
X9806Y8621D01*
X9728Y8681D01*
X9637Y8719D01*
X9560Y8729D01*
X9541Y8780D01*
X9625Y8864D01*
X9625Y8864D01*
X9651Y8903D01*
X9660Y8949D01*
X9660Y8949D01*
Y8961D01*
X9661Y8969D01*
X9663Y8977D01*
X9666Y8983D01*
X9669Y8989D01*
X9673Y8994D01*
X9678Y9000D01*
X9684Y9005D01*
X9693Y9011D01*
X9706Y9018D01*
X9708Y9019D01*
X9728Y9028D01*
X9806Y9088D01*
X9866Y9166D01*
X9904Y9257D01*
X9917Y9354D01*
X9904Y9452D01*
X9866Y9543D01*
X9806Y9621D01*
X9728Y9681D01*
X9637Y9719D01*
X9539Y9732D01*
X9442Y9719D01*
X9351Y9681D01*
X9273Y9621D01*
X9262Y9608D01*
X9215Y9624D01*
Y9860D01*
X9296Y9941D01*
X9297Y9942D01*
X9306Y9947D01*
X9320Y9954D01*
X9338Y9960D01*
X9361Y9966D01*
X9388Y9970D01*
X9418Y9974D01*
X9494Y9979D01*
X9527Y9979D01*
X9539Y9977D01*
X9637Y9990D01*
X9728Y10028D01*
X9806Y10088D01*
X9866Y10166D01*
X9904Y10257D01*
X9917Y10354D01*
X9904Y10452D01*
X9866Y10543D01*
X9806Y10621D01*
X9728Y10681D01*
X9637Y10719D01*
X9539Y10732D01*
X9442Y10719D01*
X9351Y10681D01*
X9273Y10621D01*
X9213Y10543D01*
X9175Y10452D01*
X9162Y10354D01*
X9164Y10342D01*
X9164Y10309D01*
X9159Y10233D01*
X9155Y10203D01*
X9151Y10176D01*
X9145Y10153D01*
X9139Y10135D01*
X9132Y10121D01*
X9127Y10112D01*
X9126Y10111D01*
X9009Y9995D01*
X8983Y9956D01*
X8974Y9909D01*
X8974Y9909D01*
Y8790D01*
X8697Y8513D01*
X8653Y8539D01*
X8665Y8602D01*
X8650Y8679D01*
X8606Y8744D01*
X8541Y8788D01*
X8465Y8803D01*
X8388Y8788D01*
X8353Y8765D01*
X8320Y8746D01*
X8286Y8775D01*
X8267Y8799D01*
X8210Y8843D01*
X8143Y8871D01*
X8131Y8872D01*
Y8923D01*
X8143Y8924D01*
X8210Y8952D01*
X8267Y8996D01*
X8286Y9020D01*
X8320Y9049D01*
X8353Y9030D01*
X8388Y9007D01*
X8465Y8992D01*
X8541Y9007D01*
X8606Y9051D01*
X8650Y9116D01*
X8665Y9193D01*
X8650Y9270D01*
X8606Y9335D01*
X8541Y9378D01*
X8465Y9394D01*
X8388Y9378D01*
X8353Y9355D01*
X8320Y9337D01*
X8286Y9366D01*
X8267Y9389D01*
X8210Y9434D01*
X8143Y9461D01*
X8131Y9463D01*
Y9513D01*
X8143Y9515D01*
X8210Y9543D01*
X8267Y9587D01*
X8312Y9644D01*
X8339Y9712D01*
X8349Y9783D01*
X8339Y9855D01*
X8312Y9922D01*
X8267Y9980D01*
X8210Y10024D01*
X8143Y10052D01*
X8131Y10054D01*
Y10104D01*
X8143Y10106D01*
X8210Y10133D01*
X8267Y10177D01*
X8312Y10235D01*
X8339Y10302D01*
X8349Y10374D01*
X8339Y10446D01*
X8312Y10513D01*
X8267Y10571D01*
X8210Y10615D01*
X8143Y10643D01*
X8131Y10644D01*
Y10695D01*
X8143Y10696D01*
X8210Y10724D01*
X8267Y10768D01*
X8312Y10826D01*
X8339Y10893D01*
X8349Y10965D01*
X8339Y11037D01*
X8312Y11104D01*
X8267Y11161D01*
X8210Y11205D01*
X8143Y11233D01*
X8071Y11243D01*
X7677D01*
X7605Y11233D01*
X7538Y11205D01*
X7481Y11161D01*
X7436Y11104D01*
X7429Y11086D01*
X7423Y11085D01*
X7382D01*
X7382Y11085D01*
X7336Y11076D01*
X7297Y11050D01*
X7297Y11050D01*
X6608Y10361D01*
X6582Y10322D01*
X6572Y10276D01*
X6572Y10276D01*
Y8416D01*
X6238Y8082D01*
X6235Y8080D01*
X6232Y8078D01*
X6228Y8076D01*
X6224Y8075D01*
X6220Y8074D01*
X6215Y8073D01*
X6211Y8073D01*
X6201Y8075D01*
X6124Y8059D01*
X6059Y8016D01*
X6015Y7951D01*
X6000Y7874D01*
X6013Y7808D01*
X5986Y7758D01*
X5615D01*
X5613Y7764D01*
X5606Y7808D01*
X5636Y7828D01*
X5770Y7962D01*
X5773Y7964D01*
X5776Y7965D01*
X5780Y7967D01*
X5784Y7968D01*
X5788Y7969D01*
X5793Y7970D01*
X5797Y7971D01*
X5807Y7969D01*
X5884Y7984D01*
X5949Y8027D01*
X5993Y8092D01*
X6008Y8169D01*
X5993Y8246D01*
X5949Y8311D01*
X5884Y8355D01*
X5807Y8370D01*
X5730Y8355D01*
X5665Y8311D01*
X5640Y8274D01*
X5580D01*
X5555Y8311D01*
X5490Y8355D01*
X5413Y8370D01*
X5337Y8355D01*
X5271Y8311D01*
X5266Y8303D01*
X5263Y8300D01*
X5258Y8297D01*
X5255Y8295D01*
X5251Y8293D01*
X5247Y8292D01*
X5244Y8290D01*
X5240Y8290D01*
X5177D01*
X5131Y8281D01*
X5092Y8254D01*
X5092Y8254D01*
X4570Y7732D01*
X4524Y7757D01*
X4531Y7795D01*
X4516Y7872D01*
X4473Y7937D01*
X4408Y7981D01*
X4331Y7996D01*
X4254Y7981D01*
X4189Y7937D01*
X4181Y7926D01*
X4173D01*
X4123Y7916D01*
X4081Y7888D01*
X3845Y7651D01*
X3816Y7609D01*
X3807Y7559D01*
Y7447D01*
X3806Y7443D01*
X3805Y7438D01*
X3804Y7435D01*
X3803Y7432D01*
X3802Y7430D01*
X3801Y7430D01*
X3795Y7425D01*
X3752Y7360D01*
X3736Y7283D01*
X3752Y7207D01*
X3795Y7142D01*
X3860Y7098D01*
X3871Y7096D01*
X3886Y7048D01*
X3198Y6361D01*
X2613D01*
X2611Y6361D01*
X2603Y6379D01*
X2559Y6437D01*
X2501Y6481D01*
X2434Y6509D01*
X2422Y6510D01*
Y6561D01*
X2434Y6562D01*
X2501Y6590D01*
X2559Y6634D01*
X2577Y6658D01*
X2612Y6687D01*
X2645Y6668D01*
X2679Y6645D01*
X2756Y6630D01*
X2833Y6645D01*
X2898Y6689D01*
X2941Y6754D01*
X2957Y6831D01*
X2941Y6908D01*
X2898Y6973D01*
X2833Y7016D01*
X2756Y7031D01*
X2679Y7016D01*
X2645Y6993D01*
X2612Y6975D01*
X2577Y7003D01*
X2559Y7027D01*
X2501Y7071D01*
X2434Y7099D01*
X2422Y7101D01*
Y7151D01*
X2434Y7153D01*
X2501Y7181D01*
X2559Y7225D01*
X2577Y7248D01*
X2612Y7277D01*
X2645Y7259D01*
X2679Y7236D01*
X2756Y7221D01*
X2833Y7236D01*
X2898Y7279D01*
X2941Y7344D01*
X2957Y7421D01*
X2941Y7498D01*
X2898Y7563D01*
X2833Y7607D01*
X2756Y7622D01*
X2679Y7607D01*
X2645Y7584D01*
X2612Y7565D01*
X2577Y7594D01*
X2559Y7618D01*
X2501Y7662D01*
X2434Y7690D01*
X2422Y7691D01*
Y7742D01*
X2434Y7743D01*
X2501Y7771D01*
X2559Y7815D01*
X2603Y7873D01*
X2631Y7940D01*
X2640Y8012D01*
X2631Y8084D01*
X2603Y8151D01*
X2559Y8208D01*
X2501Y8253D01*
X2434Y8280D01*
X2362Y8290D01*
X1969D01*
X1897Y8280D01*
X1830Y8253D01*
X1772Y8208D01*
X1745Y8174D01*
X1695Y8191D01*
Y8583D01*
X1695Y8583D01*
X1686Y8629D01*
X1660Y8668D01*
X1498Y8829D01*
Y9516D01*
X1489Y9562D01*
X1463Y9601D01*
X1463Y9601D01*
X953Y10111D01*
X952Y10112D01*
X946Y10121D01*
X940Y10135D01*
X934Y10153D01*
X928Y10176D01*
X923Y10203D01*
X919Y10233D01*
X915Y10309D01*
X915Y10342D01*
X917Y10354D01*
X904Y10452D01*
X866Y10543D01*
X806Y10621D01*
X728Y10681D01*
X637Y10719D01*
X539Y10732D01*
X442Y10719D01*
X351Y10681D01*
X273Y10621D01*
X213Y10543D01*
X175Y10452D01*
X162Y10354D01*
X175Y10257D01*
X213Y10166D01*
X273Y10088D01*
X351Y10028D01*
X442Y9990D01*
X539Y9977D01*
X552Y9979D01*
X585Y9979D01*
X661Y9974D01*
X691Y9970D01*
X718Y9966D01*
X741Y9960D01*
X759Y9954D01*
X772Y9947D01*
X781Y9942D01*
X782Y9941D01*
X1258Y9466D01*
Y8780D01*
X1258Y8780D01*
X1267Y8733D01*
X1293Y8694D01*
X1454Y8533D01*
Y8012D01*
Y6670D01*
X1454Y6666D01*
X1453Y6662D01*
X1451Y6659D01*
X1449Y6655D01*
X1447Y6651D01*
X1444Y6647D01*
X1441Y6644D01*
X1433Y6638D01*
X1389Y6573D01*
X1374Y6496D01*
X1389Y6419D01*
X1433Y6354D01*
X1498Y6311D01*
X1575Y6295D01*
X1652Y6311D01*
X1696Y6280D01*
X1691Y6240D01*
X1700Y6168D01*
X1728Y6101D01*
X1772Y6044D01*
X1830Y5999D01*
X1897Y5972D01*
X1908Y5970D01*
Y5920D01*
X1897Y5918D01*
X1830Y5890D01*
X1772Y5846D01*
X1728Y5789D01*
X1700Y5722D01*
X1691Y5650D01*
X1700Y5578D01*
X1728Y5511D01*
X1772Y5453D01*
X1830Y5409D01*
X1897Y5381D01*
X1908Y5380D01*
Y5329D01*
X1897Y5328D01*
X1830Y5300D01*
X1772Y5256D01*
X1728Y5198D01*
X1720Y5180D01*
X1715Y5179D01*
X1585D01*
X1498Y5266D01*
Y5906D01*
X1489Y5952D01*
X1463Y5991D01*
X1463Y5991D01*
X1203Y6251D01*
Y7811D01*
X1194Y7857D01*
X1168Y7896D01*
X953Y8111D01*
X952Y8112D01*
X946Y8121D01*
X940Y8135D01*
X934Y8153D01*
X928Y8176D01*
X923Y8203D01*
X919Y8233D01*
X915Y8309D01*
X915Y8342D01*
X917Y8354D01*
X904Y8452D01*
X866Y8543D01*
X806Y8621D01*
X728Y8681D01*
X637Y8719D01*
X539Y8732D01*
X442Y8719D01*
X351Y8681D01*
X273Y8621D01*
X213Y8543D01*
X175Y8452D01*
X162Y8354D01*
X175Y8257D01*
X213Y8166D01*
X273Y8088D01*
X351Y8028D01*
X442Y7990D01*
X539Y7977D01*
X552Y7979D01*
X585Y7979D01*
X661Y7974D01*
X691Y7970D01*
X718Y7966D01*
X741Y7960D01*
X759Y7954D01*
X772Y7947D01*
X781Y7942D01*
X782Y7941D01*
X962Y7761D01*
Y7391D01*
X912Y7387D01*
X904Y7452D01*
X866Y7543D01*
X806Y7621D01*
X728Y7681D01*
X637Y7719D01*
X539Y7732D01*
X442Y7719D01*
X351Y7681D01*
X273Y7621D01*
X213Y7543D01*
X175Y7452D01*
X162Y7354D01*
X175Y7257D01*
X213Y7166D01*
X273Y7088D01*
X351Y7028D01*
X442Y6990D01*
X539Y6977D01*
X637Y6990D01*
X728Y7028D01*
X806Y7088D01*
X866Y7166D01*
X904Y7257D01*
X912Y7321D01*
X962Y7318D01*
Y6391D01*
X912Y6387D01*
X904Y6452D01*
X866Y6543D01*
X806Y6621D01*
X728Y6681D01*
X637Y6719D01*
X539Y6732D01*
X442Y6719D01*
X351Y6681D01*
X273Y6621D01*
X213Y6543D01*
X175Y6452D01*
X162Y6354D01*
X175Y6257D01*
X213Y6166D01*
X273Y6088D01*
X351Y6028D01*
X442Y5990D01*
X539Y5977D01*
X552Y5979D01*
X585Y5979D01*
X661Y5974D01*
X691Y5970D01*
X718Y5966D01*
X741Y5960D01*
X759Y5954D01*
X772Y5947D01*
X781Y5942D01*
X782Y5941D01*
X1061Y5663D01*
Y5118D01*
X1061Y5118D01*
X1070Y5072D01*
X1084Y5050D01*
X1045Y5019D01*
X953Y5111D01*
X952Y5112D01*
X946Y5121D01*
X940Y5135D01*
X934Y5153D01*
X928Y5176D01*
X923Y5203D01*
X919Y5233D01*
X915Y5309D01*
X915Y5342D01*
X917Y5354D01*
X904Y5452D01*
X866Y5543D01*
X806Y5621D01*
X728Y5681D01*
X637Y5719D01*
X539Y5732D01*
X442Y5719D01*
X351Y5681D01*
X273Y5621D01*
X213Y5543D01*
X175Y5452D01*
X162Y5354D01*
X175Y5257D01*
X213Y5166D01*
X273Y5088D01*
X351Y5028D01*
X442Y4990D01*
X539Y4977D01*
X552Y4979D01*
X585Y4979D01*
X661Y4974D01*
X691Y4970D01*
X718Y4966D01*
X741Y4960D01*
X759Y4954D01*
X772Y4947D01*
X781Y4942D01*
X782Y4941D01*
X1159Y4564D01*
Y4490D01*
X1109Y4463D01*
X1105Y4466D01*
X1059Y4475D01*
X1059Y4475D01*
X1004D01*
X1002Y4475D01*
X992Y4477D01*
X978Y4483D01*
X961Y4491D01*
X940Y4503D01*
X918Y4519D01*
X894Y4537D01*
X837Y4588D01*
X814Y4611D01*
X806Y4621D01*
X728Y4681D01*
X637Y4719D01*
X539Y4732D01*
X442Y4719D01*
X351Y4681D01*
X273Y4621D01*
X213Y4543D01*
X175Y4452D01*
X162Y4354D01*
X175Y4257D01*
X213Y4166D01*
X273Y4088D01*
X351Y4028D01*
X442Y3990D01*
X539Y3977D01*
X637Y3990D01*
X728Y4028D01*
X806Y4088D01*
X814Y4098D01*
X837Y4121D01*
X894Y4171D01*
X918Y4190D01*
X940Y4206D01*
X961Y4218D01*
X978Y4226D01*
X992Y4231D01*
X1002Y4234D01*
X1004Y4234D01*
X1009D01*
X1220Y4023D01*
X1203Y3969D01*
X1183Y3965D01*
X1118Y3921D01*
X1074Y3856D01*
X1059Y3780D01*
X1074Y3703D01*
X1118Y3638D01*
X1183Y3594D01*
X1260Y3579D01*
X1270Y3581D01*
X1274Y3580D01*
X1279Y3580D01*
X1283Y3578D01*
X1287Y3577D01*
X1291Y3576D01*
X1294Y3574D01*
X1297Y3572D01*
X1450Y3419D01*
X1450Y3419D01*
X1489Y3393D01*
X1535Y3384D01*
X1535Y3384D01*
X2025D01*
Y3135D01*
X2025Y3134D01*
X2024Y3128D01*
X2023Y3124D01*
X2023Y3122D01*
X2021Y3121D01*
X2021Y3121D01*
X2013Y3115D01*
X2002Y3099D01*
X2001Y3098D01*
X2001Y3097D01*
X1996Y3091D01*
X1993Y3090D01*
X1944D01*
X1941Y3091D01*
X1924Y3115D01*
X1884Y3142D01*
X1836Y3152D01*
X1747D01*
X1699Y3142D01*
X1658Y3115D01*
X1656Y3112D01*
X1592Y3106D01*
X1258Y3439D01*
X1219Y3466D01*
X1173Y3475D01*
X1173Y3475D01*
X913D01*
Y3728D01*
X165D01*
Y2980D01*
X913D01*
Y3234D01*
X1123D01*
X1490Y2868D01*
X1529Y2842D01*
X1575Y2832D01*
X1631D01*
X1631Y2831D01*
X1658Y2790D01*
X1665Y2786D01*
Y2726D01*
X1658Y2722D01*
X1631Y2681D01*
X1622Y2633D01*
Y2485D01*
X1631Y2437D01*
X1646Y2415D01*
X1646Y2414D01*
X1647Y2413D01*
X1658Y2397D01*
X1667Y2391D01*
X1667Y2390D01*
X1668Y2390D01*
X1669Y2387D01*
X1670Y2383D01*
X1671Y2378D01*
X1671Y2377D01*
Y2323D01*
X1671Y2323D01*
X1680Y2277D01*
X1706Y2238D01*
X1788Y2156D01*
X1767Y2106D01*
X1693D01*
Y1594D01*
X2165D01*
Y2106D01*
X2050D01*
Y2185D01*
X2050Y2185D01*
X2040Y2231D01*
X2014Y2270D01*
X2014Y2270D01*
X1937Y2348D01*
X1936Y2348D01*
X1929Y2378D01*
X1952Y2408D01*
X2006Y2406D01*
X2013Y2397D01*
X2053Y2369D01*
X2101Y2360D01*
X2190D01*
X2238Y2369D01*
X2279Y2397D01*
X2306Y2437D01*
X2315Y2485D01*
Y2633D01*
X2306Y2681D01*
X2291Y2703D01*
X2291Y2704D01*
X2290Y2705D01*
X2279Y2722D01*
X2270Y2727D01*
X2270Y2728D01*
X2269Y2729D01*
X2268Y2731D01*
X2267Y2735D01*
X2266Y2740D01*
X2266Y2741D01*
Y2770D01*
X2266Y2772D01*
X2267Y2777D01*
X2268Y2781D01*
X2269Y2783D01*
X2270Y2784D01*
X2270Y2785D01*
X2279Y2790D01*
X2283Y2797D01*
X2316Y2803D01*
X2343Y2797D01*
X2347Y2790D01*
X2388Y2763D01*
X2436Y2754D01*
X2525D01*
X2573Y2763D01*
X2613Y2790D01*
X2630Y2815D01*
X2632Y2816D01*
X2682D01*
X2685Y2815D01*
X2702Y2790D01*
X2742Y2763D01*
X2790Y2754D01*
X2795D01*
Y2953D01*
Y3152D01*
X2790D01*
X2742Y3142D01*
X2702Y3115D01*
X2685Y3091D01*
X2682Y3090D01*
X2632D01*
X2630Y3091D01*
X2613Y3115D01*
X2573Y3142D01*
X2525Y3152D01*
X2436D01*
X2388Y3142D01*
X2347Y3115D01*
X2343Y3109D01*
X2316Y3103D01*
X2283Y3109D01*
X2279Y3115D01*
X2270Y3121D01*
X2270Y3121D01*
X2269Y3122D01*
X2268Y3124D01*
X2267Y3128D01*
X2266Y3134D01*
X2266Y3135D01*
Y3384D01*
X2897D01*
X2901Y3383D01*
X2905Y3382D01*
X2908Y3380D01*
X2912Y3378D01*
X2916Y3376D01*
X2920Y3373D01*
X2923Y3370D01*
X2929Y3362D01*
X2994Y3319D01*
X3071Y3303D01*
X3148Y3319D01*
X3213Y3362D01*
X3256Y3427D01*
X3272Y3504D01*
X3258Y3570D01*
X3286Y3620D01*
X3346D01*
X3346Y3620D01*
X3393Y3629D01*
X3393Y3629D01*
X3448Y3606D01*
X3456Y3565D01*
X3500Y3500D01*
X3565Y3456D01*
X3642Y3441D01*
X3719Y3456D01*
X3784Y3500D01*
X3814Y3545D01*
X3821D01*
X3870Y3512D01*
X3927Y3501D01*
X4144D01*
X4182Y3509D01*
X4183Y3509D01*
X4185Y3509D01*
X4201Y3512D01*
X4211Y3519D01*
X4212Y3520D01*
X4227Y3528D01*
X4239Y3535D01*
X4252Y3541D01*
X4266Y3546D01*
X4281Y3551D01*
X4281Y3551D01*
X4282Y3551D01*
X4297Y3546D01*
X4311Y3541D01*
X4324Y3535D01*
X4336Y3528D01*
X4351Y3520D01*
X4352Y3519D01*
X4362Y3512D01*
X4378Y3509D01*
X4380Y3509D01*
X4381Y3509D01*
X4419Y3501D01*
X4504D01*
X4511Y3497D01*
X4530Y3484D01*
X4574Y3447D01*
X4586Y3435D01*
X4567Y3389D01*
X4419D01*
X4362Y3377D01*
X4313Y3345D01*
X4280Y3296D01*
X4269Y3238D01*
Y3100D01*
X4280Y3043D01*
X4301Y3012D01*
X4301Y3011D01*
X4302Y3010D01*
X4313Y2994D01*
X4322Y2988D01*
X4322Y2987D01*
X4333Y2979D01*
X4340Y2973D01*
X4346Y2966D01*
X4351Y2958D01*
X4356Y2948D01*
X4360Y2937D01*
X4363Y2925D01*
X4366Y2910D01*
X4367Y2902D01*
Y2146D01*
X4370Y2130D01*
Y2123D01*
X4329Y2094D01*
X4320Y2096D01*
X4252Y2110D01*
X4205Y2100D01*
X4155Y2133D01*
Y2343D01*
X4154Y2350D01*
Y2421D01*
X4083D01*
X4075Y2423D01*
X2894D01*
X2863Y2417D01*
X2837Y2399D01*
X2820Y2373D01*
X2813Y2343D01*
Y2182D01*
X2812Y2175D01*
Y1959D01*
X2813Y1952D01*
Y1690D01*
X2812Y1683D01*
Y1467D01*
X2813Y1460D01*
Y80D01*
X1457D01*
Y472D01*
X907D01*
Y1870D01*
X923Y1890D01*
X1457D01*
Y2283D01*
X827D01*
Y2049D01*
X781Y2030D01*
X80Y2730D01*
Y11516D01*
X9998D01*
Y80D01*
D02*
G37*
G36*
X7499Y9705D02*
X7498Y9713D01*
X7495Y9719D01*
X7491Y9725D01*
X7484Y9730D01*
X7476Y9734D01*
X7466Y9738D01*
X7454Y9741D01*
X7440Y9743D01*
X7424Y9744D01*
X7406Y9744D01*
Y9823D01*
X7424Y9823D01*
X7454Y9826D01*
X7466Y9829D01*
X7476Y9833D01*
X7484Y9837D01*
X7491Y9842D01*
X7495Y9848D01*
X7498Y9854D01*
X7499Y9862D01*
Y9705D01*
D02*
G37*
G36*
X8380Y9110D02*
X8372Y9118D01*
X8363Y9126D01*
X8354Y9132D01*
X8344Y9138D01*
X8335Y9143D01*
X8325Y9147D01*
X8314Y9150D01*
X8306Y9151D01*
X8294Y9150D01*
X8282Y9147D01*
X8272Y9144D01*
X8264Y9140D01*
X8257Y9134D01*
X8253Y9129D01*
X8250Y9122D01*
X8249Y9115D01*
Y9271D01*
X8250Y9264D01*
X8253Y9257D01*
X8257Y9251D01*
X8264Y9246D01*
X8272Y9242D01*
X8282Y9239D01*
X8294Y9236D01*
X8305Y9234D01*
X8314Y9236D01*
X8325Y9239D01*
X8335Y9243D01*
X8344Y9248D01*
X8354Y9254D01*
X8363Y9260D01*
X8372Y9267D01*
X8380Y9276D01*
Y9110D01*
D02*
G37*
G36*
X9651Y9079D02*
X9636Y9069D01*
X9622Y9058D01*
X9611Y9045D01*
X9601Y9032D01*
X9593Y9018D01*
X9587Y9002D01*
X9582Y8985D01*
X9580Y8968D01*
X9579Y8949D01*
X9500D01*
X9499Y8968D01*
X9496Y8985D01*
X9492Y9002D01*
X9486Y9018D01*
X9478Y9032D01*
X9468Y9045D01*
X9456Y9058D01*
X9443Y9069D01*
X9428Y9079D01*
X9411Y9089D01*
X9668D01*
X9651Y9079D01*
D02*
G37*
G36*
X8380Y8520D02*
X8372Y8528D01*
X8363Y8535D01*
X8354Y8542D01*
X8344Y8547D01*
X8335Y8552D01*
X8325Y8556D01*
X8314Y8559D01*
X8306Y8561D01*
X8294Y8559D01*
X8282Y8557D01*
X8272Y8553D01*
X8264Y8549D01*
X8257Y8544D01*
X8253Y8538D01*
X8250Y8531D01*
X8249Y8524D01*
Y8681D01*
X8250Y8673D01*
X8253Y8667D01*
X8257Y8661D01*
X8264Y8656D01*
X8272Y8651D01*
X8282Y8648D01*
X8294Y8645D01*
X8305Y8644D01*
X8314Y8646D01*
X8325Y8649D01*
X8335Y8653D01*
X8344Y8657D01*
X8354Y8663D01*
X8363Y8669D01*
X8372Y8677D01*
X8380Y8685D01*
Y8520D01*
D02*
G37*
G36*
X5329Y8087D02*
X5320Y8095D01*
X5312Y8102D01*
X5302Y8109D01*
X5293Y8114D01*
X5283Y8119D01*
X5273Y8123D01*
X5263Y8126D01*
X5253Y8128D01*
X5242Y8129D01*
X5231Y8130D01*
Y8209D01*
X5242Y8209D01*
X5253Y8210D01*
X5263Y8213D01*
X5273Y8216D01*
X5283Y8219D01*
X5293Y8224D01*
X5302Y8230D01*
X5312Y8236D01*
X5320Y8244D01*
X5329Y8252D01*
Y8087D01*
D02*
G37*
G36*
X5806Y8051D02*
X5794Y8051D01*
X5783Y8050D01*
X5771Y8048D01*
X5761Y8045D01*
X5751Y8042D01*
X5741Y8038D01*
X5732Y8033D01*
X5723Y8027D01*
X5714Y8020D01*
X5706Y8013D01*
X5650Y8068D01*
X5658Y8076D01*
X5664Y8085D01*
X5670Y8094D01*
X5675Y8103D01*
X5680Y8113D01*
X5683Y8123D01*
X5686Y8134D01*
X5688Y8145D01*
X5689Y8156D01*
X5689Y8168D01*
X5806Y8051D01*
D02*
G37*
G36*
X835Y8306D02*
X839Y8226D01*
X844Y8191D01*
X850Y8159D01*
X857Y8130D01*
X865Y8105D01*
X875Y8084D01*
X887Y8065D01*
X899Y8050D01*
X844Y7994D01*
X829Y8007D01*
X810Y8018D01*
X788Y8028D01*
X763Y8037D01*
X735Y8044D01*
X703Y8050D01*
X668Y8054D01*
X588Y8059D01*
X542Y8059D01*
X835Y8351D01*
X835Y8306D01*
D02*
G37*
G36*
X7499Y7934D02*
X7498Y7941D01*
X7495Y7948D01*
X7491Y7953D01*
X7484Y7958D01*
X7476Y7963D01*
X7466Y7966D01*
X7454Y7969D01*
X7440Y7971D01*
X7424Y7972D01*
X7406Y7972D01*
Y8051D01*
X7424Y8052D01*
X7454Y8055D01*
X7466Y8057D01*
X7476Y8061D01*
X7484Y8065D01*
X7491Y8070D01*
X7495Y8076D01*
X7498Y8083D01*
X7499Y8090D01*
Y7934D01*
D02*
G37*
G36*
X1790D02*
X1790Y7941D01*
X1787Y7948D01*
X1782Y7953D01*
X1776Y7958D01*
X1767Y7963D01*
X1757Y7966D01*
X1745Y7969D01*
X1731Y7971D01*
X1715Y7972D01*
X1698Y7972D01*
Y8051D01*
X1715Y8052D01*
X1745Y8055D01*
X1757Y8057D01*
X1767Y8061D01*
X1776Y8065D01*
X1782Y8070D01*
X1787Y8076D01*
X1790Y8083D01*
X1790Y8090D01*
Y7934D01*
D02*
G37*
G36*
X1615Y8115D02*
X1617Y8102D01*
X1621Y8090D01*
X1627Y8080D01*
X1634Y8071D01*
X1643Y8064D01*
X1653Y8058D01*
X1665Y8054D01*
X1678Y8052D01*
X1693Y8051D01*
Y7972D01*
X1678Y7972D01*
X1665Y7969D01*
X1653Y7965D01*
X1643Y7960D01*
X1634Y7953D01*
X1627Y7944D01*
X1621Y7934D01*
X1617Y7922D01*
X1615Y7909D01*
X1614Y7894D01*
X1535Y8012D01*
X1614Y8130D01*
X1615Y8115D01*
D02*
G37*
G36*
X6357Y7975D02*
X6350Y7967D01*
X6343Y7958D01*
X6338Y7950D01*
X6332Y7940D01*
X6328Y7930D01*
X6325Y7920D01*
X6322Y7910D01*
X6320Y7899D01*
X6319Y7887D01*
X6319Y7875D01*
X6202Y7992D01*
X6214Y7992D01*
X6225Y7993D01*
X6236Y7995D01*
X6247Y7998D01*
X6257Y8001D01*
X6267Y8006D01*
X6276Y8011D01*
X6285Y8017D01*
X6294Y8023D01*
X6302Y8031D01*
X6357Y7975D01*
D02*
G37*
G36*
X9208Y7899D02*
X9201Y7890D01*
X9194Y7881D01*
X9189Y7872D01*
X9184Y7862D01*
X9180Y7852D01*
X9177Y7842D01*
X9175Y7832D01*
X9174Y7821D01*
X9173Y7810D01*
X9094D01*
X9094Y7821D01*
X9093Y7832D01*
X9091Y7842D01*
X9088Y7852D01*
X9084Y7862D01*
X9079Y7872D01*
X9073Y7881D01*
X9067Y7890D01*
X9059Y7899D01*
X9051Y7908D01*
X9217D01*
X9208Y7899D01*
D02*
G37*
G36*
X8933Y7702D02*
X8925Y7693D01*
X8919Y7684D01*
X8913Y7675D01*
X8908Y7665D01*
X8905Y7655D01*
X8902Y7645D01*
X8899Y7635D01*
X8898Y7624D01*
X8898Y7613D01*
X8819D01*
X8818Y7624D01*
X8817Y7635D01*
X8815Y7645D01*
X8812Y7655D01*
X8808Y7665D01*
X8803Y7675D01*
X8798Y7684D01*
X8791Y7693D01*
X8784Y7702D01*
X8776Y7711D01*
X8941D01*
X8933Y7702D01*
D02*
G37*
G36*
X6930Y7652D02*
X6931Y7641D01*
X6933Y7630D01*
X6936Y7620D01*
X6940Y7610D01*
X6945Y7601D01*
X6950Y7591D01*
X6957Y7582D01*
X6964Y7573D01*
X6972Y7565D01*
X6807D01*
X6815Y7573D01*
X6823Y7582D01*
X6829Y7591D01*
X6835Y7601D01*
X6840Y7610D01*
X6843Y7620D01*
X6847Y7630D01*
X6849Y7641D01*
X6850Y7652D01*
X6850Y7663D01*
X6929D01*
X6930Y7652D01*
D02*
G37*
G36*
X2672Y7339D02*
X2663Y7347D01*
X2654Y7354D01*
X2645Y7361D01*
X2636Y7366D01*
X2626Y7371D01*
X2616Y7375D01*
X2606Y7378D01*
X2598Y7380D01*
X2586Y7378D01*
X2574Y7376D01*
X2563Y7372D01*
X2555Y7368D01*
X2549Y7363D01*
X2544Y7357D01*
X2541Y7350D01*
X2540Y7343D01*
Y7500D01*
X2541Y7492D01*
X2544Y7486D01*
X2549Y7480D01*
X2555Y7475D01*
X2563Y7470D01*
X2574Y7467D01*
X2586Y7464D01*
X2597Y7463D01*
X2606Y7465D01*
X2616Y7468D01*
X2626Y7471D01*
X2636Y7476D01*
X2645Y7482D01*
X2654Y7488D01*
X2663Y7496D01*
X2672Y7504D01*
X2672Y7339D01*
D02*
G37*
G36*
X3987Y7450D02*
X3988Y7438D01*
X3989Y7428D01*
X3992Y7417D01*
X3995Y7408D01*
X3998Y7399D01*
X4003Y7390D01*
X4008Y7382D01*
X4013Y7375D01*
X4020Y7368D01*
X3854D01*
X3861Y7375D01*
X3866Y7382D01*
X3871Y7390D01*
X3876Y7399D01*
X3879Y7408D01*
X3882Y7417D01*
X3885Y7428D01*
X3886Y7438D01*
X3887Y7450D01*
X3888Y7462D01*
X3986D01*
X3987Y7450D01*
D02*
G37*
G36*
X7499Y7343D02*
X7498Y7350D01*
X7495Y7357D01*
X7491Y7363D01*
X7484Y7368D01*
X7476Y7372D01*
X7466Y7376D01*
X7454Y7378D01*
X7440Y7380D01*
X7424Y7382D01*
X7406Y7382D01*
Y7461D01*
X7424Y7461D01*
X7454Y7464D01*
X7466Y7467D01*
X7476Y7470D01*
X7484Y7475D01*
X7491Y7480D01*
X7495Y7486D01*
X7498Y7492D01*
X7499Y7500D01*
Y7343D01*
D02*
G37*
G36*
X7429Y7301D02*
X7436Y7282D01*
X7481Y7225D01*
X7538Y7181D01*
X7605Y7153D01*
X7617Y7151D01*
Y7101D01*
X7605Y7099D01*
X7538Y7071D01*
X7481Y7027D01*
X7436Y6970D01*
X7409Y6903D01*
X7399Y6831D01*
X7409Y6759D01*
X7436Y6692D01*
X7481Y6634D01*
X7538Y6590D01*
X7605Y6562D01*
X7617Y6561D01*
Y6510D01*
X7605Y6509D01*
X7538Y6481D01*
X7481Y6437D01*
X7436Y6379D01*
X7409Y6312D01*
X7399Y6240D01*
X7409Y6168D01*
X7436Y6101D01*
X7481Y6044D01*
X7538Y5999D01*
X7605Y5972D01*
X7617Y5970D01*
Y5920D01*
X7605Y5918D01*
X7538Y5890D01*
X7481Y5846D01*
X7415Y5843D01*
X7149Y6110D01*
Y6677D01*
X7174Y6715D01*
X7189Y6791D01*
X7174Y6868D01*
X7130Y6933D01*
X7065Y6977D01*
X6988Y6992D01*
X6911Y6977D01*
X6846Y6933D01*
X6821Y6896D01*
X6761D01*
X6736Y6933D01*
X6671Y6977D01*
X6594Y6992D01*
X6518Y6977D01*
X6453Y6933D01*
X6409Y6868D01*
X6394Y6791D01*
X6396Y6781D01*
X6395Y6777D01*
X6395Y6772D01*
X6393Y6768D01*
X6392Y6764D01*
X6391Y6760D01*
X6389Y6757D01*
X6387Y6754D01*
X5541Y5908D01*
X5394D01*
X5348Y5899D01*
X5309Y5873D01*
X4797Y5361D01*
X4771Y5322D01*
X4761Y5276D01*
X4761Y5276D01*
Y4803D01*
X4761Y4803D01*
X4771Y4757D01*
X4797Y4718D01*
X5353Y4161D01*
X5330Y4118D01*
X5283Y4122D01*
X5281Y4123D01*
X5277Y4125D01*
X5184Y4219D01*
X5145Y4245D01*
X5098Y4254D01*
X5098Y4254D01*
X3861D01*
Y5659D01*
X4785Y6584D01*
X4788Y6586D01*
X4792Y6587D01*
X4795Y6589D01*
X4799Y6590D01*
X4804Y6591D01*
X4809Y6592D01*
X4813Y6593D01*
X4823Y6591D01*
X4900Y6606D01*
X4965Y6649D01*
X5008Y6715D01*
X5024Y6791D01*
X5022Y6801D01*
X5022Y6805D01*
X5023Y6810D01*
X5024Y6815D01*
X5025Y6819D01*
X5027Y6822D01*
X5029Y6826D01*
X5031Y6829D01*
X5404Y7202D01*
X6604D01*
X6647Y7159D01*
X6647Y7159D01*
X6686Y7133D01*
X6732Y7124D01*
X6732Y7124D01*
X7008D01*
X7008Y7124D01*
X7054Y7133D01*
X7093Y7159D01*
X7211Y7277D01*
X7211Y7277D01*
X7211Y7277D01*
X7235Y7301D01*
X7426D01*
X7429Y7301D01*
D02*
G37*
G36*
X2672Y6748D02*
X2663Y6756D01*
X2654Y6764D01*
X2645Y6770D01*
X2636Y6776D01*
X2626Y6781D01*
X2616Y6784D01*
X2606Y6787D01*
X2598Y6789D01*
X2586Y6788D01*
X2574Y6785D01*
X2563Y6782D01*
X2555Y6777D01*
X2549Y6772D01*
X2544Y6766D01*
X2541Y6760D01*
X2540Y6752D01*
Y6909D01*
X2541Y6902D01*
X2544Y6895D01*
X2549Y6889D01*
X2555Y6884D01*
X2563Y6880D01*
X2574Y6876D01*
X2586Y6874D01*
X2597Y6872D01*
X2606Y6874D01*
X2616Y6877D01*
X2626Y6881D01*
X2636Y6886D01*
X2645Y6891D01*
X2654Y6898D01*
X2663Y6905D01*
X2672Y6913D01*
X2672Y6748D01*
D02*
G37*
G36*
X4980Y6892D02*
X4972Y6884D01*
X4965Y6876D01*
X4960Y6867D01*
X4955Y6858D01*
X4950Y6848D01*
X4947Y6838D01*
X4944Y6827D01*
X4942Y6816D01*
X4941Y6804D01*
X4941Y6793D01*
X4824Y6909D01*
X4836Y6910D01*
X4847Y6911D01*
X4858Y6913D01*
X4869Y6915D01*
X4879Y6919D01*
X4889Y6923D01*
X4898Y6928D01*
X4907Y6934D01*
X4916Y6941D01*
X4924Y6948D01*
X4980Y6892D01*
D02*
G37*
G36*
X8258Y6885D02*
X8260Y6882D01*
X8264Y6879D01*
X8268Y6877D01*
X8275Y6875D01*
X8282Y6873D01*
X8291Y6872D01*
X8302Y6871D01*
X8327Y6870D01*
Y6791D01*
X8314Y6791D01*
X8291Y6790D01*
X8282Y6788D01*
X8275Y6787D01*
X8268Y6785D01*
X8264Y6782D01*
X8260Y6779D01*
X8258Y6776D01*
X8257Y6773D01*
Y6889D01*
X8258Y6885D01*
D02*
G37*
G36*
X6593Y6673D02*
X6581Y6673D01*
X6570Y6672D01*
X6559Y6670D01*
X6548Y6667D01*
X6538Y6664D01*
X6528Y6660D01*
X6519Y6655D01*
X6510Y6649D01*
X6502Y6642D01*
X6493Y6635D01*
X6438Y6690D01*
X6445Y6698D01*
X6452Y6707D01*
X6458Y6716D01*
X6463Y6725D01*
X6467Y6735D01*
X6471Y6745D01*
X6473Y6756D01*
X6475Y6767D01*
X6476Y6778D01*
X6476Y6790D01*
X6593Y6673D01*
D02*
G37*
G36*
X4822D02*
X4810Y6673D01*
X4798Y6672D01*
X4787Y6670D01*
X4777Y6667D01*
X4766Y6664D01*
X4757Y6660D01*
X4747Y6655D01*
X4738Y6649D01*
X4730Y6642D01*
X4722Y6635D01*
X4666Y6690D01*
X4674Y6698D01*
X4680Y6707D01*
X4686Y6716D01*
X4691Y6725D01*
X4695Y6735D01*
X4699Y6745D01*
X4702Y6756D01*
X4703Y6767D01*
X4704Y6778D01*
X4705Y6790D01*
X4822Y6673D01*
D02*
G37*
G36*
X7070Y6706D02*
X7069Y6703D01*
X7069Y6699D01*
X7068Y6686D01*
X7067Y6646D01*
X7067Y6632D01*
X6909D01*
X6906Y6707D01*
X7071D01*
X7070Y6706D01*
D02*
G37*
G36*
X1615Y6667D02*
X1616Y6657D01*
X1618Y6646D01*
X1621Y6636D01*
X1625Y6626D01*
X1630Y6616D01*
X1635Y6607D01*
X1642Y6598D01*
X1649Y6589D01*
X1657Y6580D01*
X1492D01*
X1500Y6589D01*
X1508Y6598D01*
X1514Y6607D01*
X1520Y6616D01*
X1525Y6626D01*
X1529Y6636D01*
X1532Y6646D01*
X1534Y6657D01*
X1535Y6667D01*
X1535Y6678D01*
X1614D01*
X1615Y6667D01*
D02*
G37*
G36*
X9250Y6702D02*
X9269Y6690D01*
X9290Y6680D01*
X9315Y6672D01*
X9344Y6665D01*
X9376Y6659D01*
X9411Y6654D01*
X9491Y6650D01*
X9536Y6650D01*
X9244Y6357D01*
X9244Y6402D01*
X9239Y6483D01*
X9235Y6518D01*
X9229Y6550D01*
X9222Y6578D01*
X9213Y6603D01*
X9203Y6625D01*
X9192Y6644D01*
X9179Y6659D01*
X9235Y6714D01*
X9250Y6702D01*
D02*
G37*
G36*
X8258Y6295D02*
X8260Y6292D01*
X8264Y6289D01*
X8268Y6286D01*
X8275Y6284D01*
X8282Y6283D01*
X8291Y6281D01*
X8302Y6280D01*
X8327Y6280D01*
Y6201D01*
X8314Y6201D01*
X8291Y6199D01*
X8282Y6198D01*
X8275Y6196D01*
X8268Y6194D01*
X8264Y6192D01*
X8260Y6189D01*
X8258Y6186D01*
X8257Y6182D01*
Y6298D01*
X8258Y6295D01*
D02*
G37*
G36*
X2541Y6311D02*
X2544Y6304D01*
X2549Y6299D01*
X2555Y6294D01*
X2563Y6289D01*
X2574Y6286D01*
X2586Y6283D01*
X2600Y6281D01*
X2615Y6280D01*
X2633Y6280D01*
Y6201D01*
X2615Y6200D01*
X2586Y6197D01*
X2574Y6195D01*
X2563Y6191D01*
X2555Y6187D01*
X2549Y6182D01*
X2544Y6176D01*
X2541Y6169D01*
X2540Y6162D01*
Y6318D01*
X2541Y6311D01*
D02*
G37*
G36*
X835Y6306D02*
X839Y6226D01*
X844Y6191D01*
X850Y6159D01*
X857Y6130D01*
X865Y6105D01*
X875Y6083D01*
X887Y6065D01*
X899Y6050D01*
X844Y5994D01*
X829Y6007D01*
X810Y6018D01*
X788Y6028D01*
X763Y6037D01*
X735Y6044D01*
X703Y6050D01*
X668Y6054D01*
X588Y6059D01*
X542Y6059D01*
X835Y6351D01*
X835Y6306D01*
D02*
G37*
G36*
X2541Y5720D02*
X2544Y5714D01*
X2549Y5708D01*
X2555Y5703D01*
X2563Y5699D01*
X2574Y5695D01*
X2586Y5692D01*
X2600Y5691D01*
X2615Y5689D01*
X2633Y5689D01*
Y5610D01*
X2615Y5610D01*
X2586Y5607D01*
X2574Y5604D01*
X2563Y5601D01*
X2555Y5596D01*
X2549Y5591D01*
X2544Y5585D01*
X2541Y5579D01*
X2540Y5571D01*
Y5728D01*
X2541Y5720D01*
D02*
G37*
G36*
X7507Y5552D02*
X7506Y5556D01*
X7502Y5559D01*
X7496Y5562D01*
X7487Y5564D01*
X7476Y5566D01*
X7462Y5568D01*
X7427Y5570D01*
X7382Y5571D01*
Y5728D01*
X7406Y5729D01*
X7476Y5733D01*
X7487Y5735D01*
X7496Y5738D01*
X7502Y5740D01*
X7506Y5744D01*
X7507Y5747D01*
Y5552D01*
D02*
G37*
G36*
X3226Y5746D02*
Y4262D01*
X3139Y4176D01*
X1802D01*
X1597Y4381D01*
Y4823D01*
X1588Y4869D01*
X1574Y4889D01*
X1599Y4939D01*
X1599Y4939D01*
X1717D01*
X1720Y4938D01*
X1728Y4920D01*
X1772Y4863D01*
X1830Y4818D01*
X1897Y4791D01*
X1969Y4781D01*
X2362D01*
X2434Y4791D01*
X2501Y4818D01*
X2559Y4863D01*
X2603Y4920D01*
X2631Y4987D01*
X2640Y5059D01*
X2631Y5131D01*
X2603Y5198D01*
X2559Y5256D01*
X2501Y5300D01*
X2434Y5328D01*
X2422Y5329D01*
Y5380D01*
X2434Y5381D01*
X2501Y5409D01*
X2559Y5453D01*
X2603Y5511D01*
X2610Y5529D01*
X2616Y5529D01*
X2894D01*
X2894Y5529D01*
X2940Y5538D01*
X2979Y5564D01*
X3180Y5765D01*
X3226Y5746D01*
D02*
G37*
G36*
X8189Y5791D02*
X8196Y5778D01*
X8207Y5766D01*
X8222Y5756D01*
X8242Y5748D01*
X8266Y5741D01*
X8295Y5735D01*
X8328Y5731D01*
X8366Y5729D01*
X8407Y5728D01*
Y5571D01*
X8366Y5570D01*
X8295Y5564D01*
X8266Y5559D01*
X8242Y5552D01*
X8222Y5543D01*
X8207Y5533D01*
X8196Y5521D01*
X8189Y5508D01*
X8187Y5494D01*
Y5806D01*
X8189Y5791D01*
D02*
G37*
G36*
X5629Y5394D02*
X5614Y5393D01*
X5588Y5391D01*
X5576Y5389D01*
X5564Y5386D01*
X5554Y5382D01*
X5544Y5377D01*
X5535Y5372D01*
X5527Y5367D01*
X5520Y5360D01*
X5478Y5402D01*
X5485Y5409D01*
X5490Y5417D01*
X5496Y5426D01*
X5500Y5436D01*
X5504Y5446D01*
X5507Y5457D01*
X5509Y5470D01*
X5511Y5482D01*
X5512Y5496D01*
X5512Y5511D01*
X5629Y5394D01*
D02*
G37*
G36*
X9250Y5702D02*
X9269Y5690D01*
X9290Y5680D01*
X9315Y5672D01*
X9344Y5665D01*
X9376Y5659D01*
X9411Y5654D01*
X9491Y5650D01*
X9536Y5650D01*
X9244Y5357D01*
X9244Y5402D01*
X9239Y5483D01*
X9235Y5518D01*
X9229Y5550D01*
X9222Y5578D01*
X9213Y5603D01*
X9203Y5625D01*
X9192Y5644D01*
X9179Y5659D01*
X9235Y5714D01*
X9250Y5702D01*
D02*
G37*
G36*
X5527Y5263D02*
X5535Y5258D01*
X5544Y5252D01*
X5554Y5248D01*
X5564Y5244D01*
X5576Y5241D01*
X5588Y5239D01*
X5601Y5237D01*
X5614Y5236D01*
X5629Y5236D01*
X5512Y5119D01*
X5512Y5134D01*
X5509Y5160D01*
X5507Y5172D01*
X5504Y5184D01*
X5500Y5194D01*
X5496Y5204D01*
X5490Y5213D01*
X5485Y5221D01*
X5478Y5228D01*
X5520Y5270D01*
X5527Y5263D01*
D02*
G37*
G36*
X835Y5306D02*
X839Y5226D01*
X844Y5191D01*
X850Y5159D01*
X857Y5130D01*
X865Y5105D01*
X875Y5084D01*
X887Y5065D01*
X899Y5050D01*
X844Y4994D01*
X829Y5007D01*
X810Y5018D01*
X788Y5028D01*
X763Y5037D01*
X735Y5044D01*
X703Y5050D01*
X668Y5054D01*
X588Y5059D01*
X542Y5059D01*
X835Y5351D01*
X835Y5306D01*
D02*
G37*
G36*
X1790Y4981D02*
X1790Y4988D01*
X1787Y4995D01*
X1782Y5001D01*
X1776Y5006D01*
X1767Y5010D01*
X1757Y5013D01*
X1745Y5016D01*
X1731Y5018D01*
X1715Y5019D01*
X1698Y5020D01*
Y5098D01*
X1715Y5099D01*
X1745Y5102D01*
X1757Y5105D01*
X1767Y5108D01*
X1776Y5112D01*
X1782Y5117D01*
X1787Y5123D01*
X1790Y5130D01*
X1790Y5137D01*
Y4981D01*
D02*
G37*
G36*
X8189Y5200D02*
X8196Y5187D01*
X8207Y5176D01*
X8222Y5166D01*
X8242Y5157D01*
X8266Y5150D01*
X8295Y5145D01*
X8328Y5141D01*
X8366Y5139D01*
X8407Y5138D01*
Y4980D01*
X8366Y4980D01*
X8295Y4973D01*
X8266Y4968D01*
X8242Y4961D01*
X8222Y4952D01*
X8207Y4942D01*
X8196Y4931D01*
X8189Y4918D01*
X8187Y4903D01*
Y5215D01*
X8189Y5200D01*
D02*
G37*
G36*
X782Y4529D02*
X842Y4476D01*
X870Y4454D01*
X897Y4436D01*
X922Y4420D01*
X946Y4409D01*
X968Y4400D01*
X989Y4395D01*
X1009Y4394D01*
Y4315D01*
X989Y4313D01*
X968Y4308D01*
X946Y4300D01*
X922Y4288D01*
X897Y4273D01*
X870Y4255D01*
X842Y4233D01*
X782Y4179D01*
X750Y4148D01*
Y4561D01*
X782Y4529D01*
D02*
G37*
G36*
X3780Y4237D02*
X3783Y4224D01*
X3787Y4212D01*
X3792Y4202D01*
X3799Y4193D01*
X3808Y4186D01*
X3818Y4180D01*
X3830Y4176D01*
X3843Y4174D01*
X3858Y4173D01*
X3835Y4094D01*
X3820Y4094D01*
X3805Y4092D01*
X3790Y4089D01*
X3776Y4086D01*
X3762Y4081D01*
X3749Y4074D01*
X3736Y4067D01*
X3724Y4059D01*
X3712Y4049D01*
X3701Y4039D01*
X3645Y4094D01*
X3656Y4106D01*
X3665Y4118D01*
X3674Y4130D01*
X3681Y4143D01*
X3687Y4156D01*
X3692Y4170D01*
X3696Y4184D01*
X3699Y4198D01*
X3700Y4213D01*
X3701Y4229D01*
X3780Y4252D01*
X3780Y4237D01*
D02*
G37*
G36*
X5222Y4067D02*
X5230Y4060D01*
X5239Y4054D01*
X5249Y4049D01*
X5258Y4045D01*
X5269Y4041D01*
X5279Y4039D01*
X5290Y4037D01*
X5302Y4036D01*
X5314Y4035D01*
X5197Y3918D01*
X5197Y3930D01*
X5196Y3942D01*
X5194Y3953D01*
X5191Y3964D01*
X5188Y3974D01*
X5183Y3984D01*
X5178Y3993D01*
X5172Y4002D01*
X5166Y4010D01*
X5158Y4018D01*
X5214Y4074D01*
X5222Y4067D01*
D02*
G37*
G36*
X4393Y3588D02*
X4376Y3598D01*
X4359Y3607D01*
X4341Y3615D01*
X4322Y3622D01*
X4303Y3628D01*
X4283Y3633D01*
X4281Y3633D01*
X4280Y3633D01*
X4260Y3628D01*
X4241Y3622D01*
X4222Y3615D01*
X4204Y3607D01*
X4187Y3598D01*
X4170Y3588D01*
Y3853D01*
X4187Y3843D01*
X4204Y3834D01*
X4222Y3826D01*
X4241Y3819D01*
X4260Y3813D01*
X4280Y3808D01*
X4281Y3808D01*
X4283Y3808D01*
X4303Y3813D01*
X4322Y3819D01*
X4341Y3826D01*
X4359Y3834D01*
X4376Y3843D01*
X4393Y3853D01*
Y3588D01*
D02*
G37*
G36*
X8642Y3940D02*
X8647Y3873D01*
X8651Y3854D01*
X8655Y3837D01*
X8659Y3821D01*
X8665Y3806D01*
X8671Y3793D01*
X8677Y3782D01*
X8472D01*
Y3636D01*
X8469Y3637D01*
X8463Y3638D01*
X8454Y3639D01*
X8408Y3641D01*
X8402Y3641D01*
X8260Y3636D01*
Y3805D01*
X8263Y3804D01*
X8270Y3803D01*
X8279Y3802D01*
X8324Y3800D01*
X8331Y3800D01*
X8461Y3805D01*
X8461Y3806D01*
X8467Y3821D01*
X8471Y3837D01*
X8475Y3854D01*
X8479Y3873D01*
X8483Y3916D01*
X8484Y3940D01*
X8484Y3965D01*
X8642D01*
X8642Y3940D01*
D02*
G37*
G36*
X9180Y3784D02*
X9176Y3785D01*
X9171Y3785D01*
X9166Y3784D01*
X9161Y3782D01*
X9156Y3779D01*
X9150Y3775D01*
X9143Y3771D01*
X9137Y3765D01*
X9122Y3752D01*
X9067Y3807D01*
X9074Y3815D01*
X9086Y3829D01*
X9090Y3835D01*
X9094Y3841D01*
X9097Y3846D01*
X9099Y3852D01*
X9100Y3856D01*
X9100Y3861D01*
X9099Y3865D01*
X9180Y3784D01*
D02*
G37*
G36*
X4703Y3792D02*
X4705Y3785D01*
X4709Y3779D01*
X4715Y3774D01*
X4722Y3770D01*
X4731Y3766D01*
X4742Y3763D01*
X4754Y3761D01*
X4768Y3760D01*
X4784Y3760D01*
Y3681D01*
X4768Y3681D01*
X4754Y3680D01*
X4742Y3678D01*
X4731Y3675D01*
X4722Y3671D01*
X4715Y3667D01*
X4712Y3665D01*
X4713Y3664D01*
X4732Y3638D01*
X4755Y3609D01*
X4816Y3543D01*
X4665Y3471D01*
X4635Y3501D01*
X4579Y3548D01*
X4554Y3565D01*
X4531Y3578D01*
X4510Y3587D01*
X4490Y3593D01*
X4472Y3594D01*
X4457Y3591D01*
X4443Y3584D01*
X4583Y3682D01*
Y3776D01*
X4588Y3773D01*
X4595Y3770D01*
X4605Y3768D01*
X4618Y3766D01*
X4652Y3762D01*
X4697Y3761D01*
X4702Y3765D01*
Y3799D01*
X4703Y3792D01*
D02*
G37*
G36*
X4960Y3642D02*
X4950Y3649D01*
X4939Y3656D01*
X4929Y3662D01*
X4918Y3667D01*
X4907Y3671D01*
X4896Y3675D01*
X4885Y3678D01*
X4874Y3680D01*
X4862Y3681D01*
X4851Y3681D01*
Y3760D01*
X4862Y3760D01*
X4874Y3761D01*
X4885Y3763D01*
X4896Y3766D01*
X4907Y3770D01*
X4918Y3774D01*
X4929Y3779D01*
X4939Y3785D01*
X4950Y3792D01*
X4960Y3799D01*
Y3642D01*
D02*
G37*
G36*
X1378Y3766D02*
X1379Y3755D01*
X1381Y3744D01*
X1384Y3733D01*
X1387Y3723D01*
X1392Y3713D01*
X1397Y3704D01*
X1402Y3695D01*
X1409Y3687D01*
X1417Y3679D01*
X1361Y3623D01*
X1353Y3630D01*
X1344Y3637D01*
X1335Y3643D01*
X1326Y3648D01*
X1316Y3652D01*
X1306Y3656D01*
X1295Y3658D01*
X1284Y3660D01*
X1273Y3661D01*
X1261Y3661D01*
X1378Y3778D01*
X1378Y3766D01*
D02*
G37*
G36*
X3878Y3603D02*
X3872Y3610D01*
X3864Y3617D01*
X3853Y3623D01*
X3841Y3628D01*
X3826Y3632D01*
X3809Y3636D01*
X3790Y3638D01*
X3746Y3641D01*
X3720Y3642D01*
Y3799D01*
X3746Y3800D01*
X3790Y3803D01*
X3809Y3805D01*
X3826Y3809D01*
X3841Y3813D01*
X3853Y3818D01*
X3864Y3824D01*
X3872Y3831D01*
X3878Y3838D01*
Y3603D01*
D02*
G37*
G36*
X5112Y3685D02*
X5113Y3684D01*
X5115Y3682D01*
X5128Y3668D01*
X5146Y3650D01*
X5090Y3594D01*
X5054Y3628D01*
X5112Y3686D01*
X5112Y3685D01*
D02*
G37*
G36*
X8079Y3305D02*
X8284D01*
X8277Y3294D01*
X8271Y3281D01*
X8266Y3266D01*
X8261Y3250D01*
X8257Y3232D01*
X8254Y3213D01*
X8249Y3170D01*
X8248Y3147D01*
X8248Y3121D01*
X8091D01*
X8090Y3147D01*
X8085Y3213D01*
X8082Y3232D01*
X8078Y3250D01*
X8073Y3266D01*
X8068Y3281D01*
X8066Y3284D01*
X8060Y3284D01*
X8014Y3286D01*
X8008Y3286D01*
X7872Y3281D01*
X7871Y3280D01*
X7867Y3271D01*
X7864Y3260D01*
X7861Y3247D01*
X7859Y3232D01*
X7855Y3195D01*
X7854Y3150D01*
X7697D01*
X7697Y3173D01*
X7693Y3232D01*
X7690Y3247D01*
X7687Y3260D01*
X7684Y3271D01*
X7680Y3280D01*
X7676Y3286D01*
X7671Y3291D01*
X7697D01*
X7697Y3295D01*
X7697Y3309D01*
X7854D01*
X7855Y3291D01*
X7866D01*
Y3451D01*
X7870Y3450D01*
X7876Y3449D01*
X7885Y3448D01*
X7931Y3446D01*
X7937Y3446D01*
X8079Y3451D01*
Y3305D01*
D02*
G37*
G36*
X2987Y3421D02*
X2978Y3429D01*
X2969Y3437D01*
X2960Y3443D01*
X2950Y3449D01*
X2941Y3454D01*
X2931Y3458D01*
X2921Y3461D01*
X2910Y3463D01*
X2900Y3464D01*
X2889Y3465D01*
Y3543D01*
X2900Y3544D01*
X2910Y3545D01*
X2921Y3547D01*
X2931Y3550D01*
X2941Y3554D01*
X2950Y3559D01*
X2960Y3565D01*
X2969Y3571D01*
X2978Y3578D01*
X2987Y3587D01*
Y3421D01*
D02*
G37*
G36*
X5467Y3343D02*
X5465Y3343D01*
X5463Y3344D01*
X5458Y3345D01*
X5446Y3345D01*
X5406Y3346D01*
X5392Y3346D01*
Y3504D01*
X5467Y3508D01*
Y3343D01*
D02*
G37*
G36*
X833Y3426D02*
X835Y3419D01*
X839Y3413D01*
X845Y3408D01*
X852Y3404D01*
X861Y3400D01*
X871Y3397D01*
X883Y3395D01*
X897Y3394D01*
X912Y3394D01*
Y3315D01*
X897Y3315D01*
X883Y3313D01*
X871Y3311D01*
X861Y3309D01*
X852Y3305D01*
X845Y3301D01*
X839Y3296D01*
X835Y3290D01*
X833Y3283D01*
X832Y3276D01*
Y3433D01*
X833Y3426D01*
D02*
G37*
G36*
X8643Y3291D02*
X8668D01*
X8663Y3286D01*
X8658Y3280D01*
X8655Y3271D01*
X8651Y3260D01*
X8648Y3247D01*
X8646Y3232D01*
X8643Y3195D01*
X8642Y3150D01*
X8484D01*
X8484Y3173D01*
X8480Y3232D01*
X8478Y3247D01*
X8475Y3260D01*
X8471Y3271D01*
X8468Y3280D01*
X8463Y3286D01*
X8458Y3291D01*
X8484D01*
X8484Y3295D01*
X8484Y3309D01*
X8642D01*
X8643Y3291D01*
D02*
G37*
G36*
X2185Y3136D02*
X2186Y3124D01*
X2188Y3113D01*
X2191Y3102D01*
X2194Y3093D01*
X2198Y3084D01*
X2203Y3076D01*
X2208Y3069D01*
X2214Y3063D01*
X2221Y3058D01*
X2070D01*
X2077Y3063D01*
X2083Y3069D01*
X2089Y3076D01*
X2093Y3084D01*
X2097Y3093D01*
X2101Y3102D01*
X2103Y3113D01*
X2105Y3124D01*
X2106Y3136D01*
X2106Y3149D01*
X2185D01*
X2185Y3136D01*
D02*
G37*
G36*
X7828Y3089D02*
X7825Y3082D01*
X7823Y3072D01*
X7822Y3065D01*
X7858Y3065D01*
X7850Y3057D01*
X7843Y3048D01*
X7836Y3039D01*
X7831Y3029D01*
X7826Y3020D01*
X7822Y3010D01*
X7819Y2999D01*
X7817Y2989D01*
X7816Y2985D01*
X7815Y2953D01*
X7815Y2924D01*
X7736D01*
X7736Y2953D01*
X7733Y2995D01*
X7732Y2999D01*
X7729Y3010D01*
X7725Y3020D01*
X7721Y3029D01*
X7715Y3039D01*
X7709Y3048D01*
X7701Y3057D01*
X7693Y3065D01*
X7729Y3065D01*
X7728Y3072D01*
X7726Y3082D01*
X7723Y3089D01*
X7720Y3094D01*
X7831D01*
X7828Y3089D01*
D02*
G37*
G36*
X2394Y2874D02*
X2393Y2882D01*
X2391Y2888D01*
X2387Y2894D01*
X2381Y2899D01*
X2374Y2904D01*
X2365Y2907D01*
X2355Y2910D01*
X2342Y2912D01*
X2329Y2913D01*
X2313Y2913D01*
Y2992D01*
X2329Y2993D01*
X2342Y2994D01*
X2355Y2996D01*
X2365Y2998D01*
X2374Y3002D01*
X2381Y3006D01*
X2387Y3011D01*
X2391Y3017D01*
X2393Y3024D01*
X2394Y3031D01*
Y2874D01*
D02*
G37*
G36*
X2233Y3024D02*
X2235Y3017D01*
X2239Y3011D01*
X2245Y3006D01*
X2252Y3002D01*
X2261Y2998D01*
X2271Y2996D01*
X2284Y2994D01*
X2297Y2993D01*
X2313Y2992D01*
Y2913D01*
X2297Y2913D01*
X2284Y2912D01*
X2271Y2910D01*
X2261Y2907D01*
X2252Y2904D01*
X2245Y2899D01*
X2239Y2894D01*
X2235Y2888D01*
X2233Y2882D01*
X2232Y2874D01*
X2232Y3031D01*
X2233Y3024D01*
D02*
G37*
G36*
X1705Y2874D02*
X1704Y2882D01*
X1702Y2888D01*
X1698Y2894D01*
X1692Y2899D01*
X1685Y2904D01*
X1676Y2907D01*
X1666Y2910D01*
X1654Y2912D01*
X1640Y2913D01*
X1624Y2913D01*
Y2992D01*
X1640Y2993D01*
X1654Y2994D01*
X1666Y2996D01*
X1676Y2998D01*
X1685Y3002D01*
X1692Y3006D01*
X1698Y3011D01*
X1702Y3017D01*
X1704Y3024D01*
X1705Y3031D01*
Y2874D01*
D02*
G37*
G36*
X4670Y3040D02*
X4656Y3028D01*
X4645Y3014D01*
X4635Y2998D01*
X4626Y2981D01*
X4619Y2962D01*
X4613Y2943D01*
X4609Y2921D01*
X4607Y2898D01*
X4606Y2874D01*
X4449D01*
X4448Y2898D01*
X4446Y2921D01*
X4442Y2943D01*
X4436Y2962D01*
X4429Y2981D01*
X4421Y2998D01*
X4410Y3014D01*
X4399Y3028D01*
X4385Y3040D01*
X4370Y3052D01*
X4685D01*
X4670Y3040D01*
D02*
G37*
G36*
X2214Y2843D02*
X2208Y2837D01*
X2203Y2830D01*
X2198Y2822D01*
X2194Y2813D01*
X2191Y2803D01*
X2188Y2793D01*
X2186Y2782D01*
X2185Y2769D01*
X2185Y2756D01*
X2106D01*
X2106Y2769D01*
X2105Y2782D01*
X2103Y2793D01*
X2101Y2803D01*
X2097Y2813D01*
X2093Y2822D01*
X2089Y2830D01*
X2083Y2837D01*
X2077Y2843D01*
X2070Y2848D01*
X2221D01*
X2214Y2843D01*
D02*
G37*
G36*
X8974Y2771D02*
Y2717D01*
X8974Y2717D01*
X8983Y2670D01*
X9009Y2631D01*
X9201Y2440D01*
X9186Y2392D01*
X9175Y2390D01*
X9110Y2347D01*
X9067Y2282D01*
X9051Y2205D01*
X9067Y2128D01*
X9110Y2063D01*
X9118Y2057D01*
X9121Y2054D01*
X9124Y2050D01*
X9126Y2046D01*
X9128Y2042D01*
X9130Y2039D01*
X9131Y2035D01*
X9132Y2031D01*
Y1716D01*
X9130Y1715D01*
X9089Y1688D01*
X9085Y1682D01*
X9025D01*
X9021Y1688D01*
X8980Y1715D01*
X8932Y1725D01*
X8898D01*
Y1555D01*
X8819D01*
Y1725D01*
X8784D01*
X8736Y1715D01*
X8733Y1713D01*
X8683Y1740D01*
Y2674D01*
X8684Y2686D01*
X8685Y2687D01*
X8697Y2690D01*
X8713Y2693D01*
X8725Y2694D01*
X8760D01*
X8760Y2694D01*
X8821Y2706D01*
X8873Y2741D01*
X8924Y2791D01*
X8974Y2771D01*
D02*
G37*
G36*
X2185Y2742D02*
X2186Y2730D01*
X2188Y2719D01*
X2191Y2708D01*
X2194Y2699D01*
X2198Y2690D01*
X2203Y2682D01*
X2208Y2675D01*
X2214Y2669D01*
X2221Y2664D01*
X2070D01*
X2077Y2669D01*
X2083Y2675D01*
X2089Y2682D01*
X2093Y2690D01*
X2097Y2699D01*
X2101Y2708D01*
X2103Y2719D01*
X2105Y2730D01*
X2106Y2742D01*
X2106Y2756D01*
X2185D01*
X2185Y2742D01*
D02*
G37*
G36*
X8760Y2776D02*
X8730Y2775D01*
X8703Y2772D01*
X8680Y2768D01*
X8659Y2763D01*
X8642Y2756D01*
X8628Y2747D01*
X8617Y2737D01*
X8609Y2725D01*
X8604Y2713D01*
X8603Y2658D01*
X8602Y2629D01*
X8524D01*
X8523Y2658D01*
X8519Y2719D01*
X8517Y2725D01*
X8509Y2737D01*
X8498Y2747D01*
X8484Y2756D01*
X8467Y2763D01*
X8446Y2768D01*
X8423Y2772D01*
X8396Y2775D01*
X8366Y2776D01*
X8563Y2933D01*
X8760Y2776D01*
D02*
G37*
G36*
X7815Y2717D02*
X7817Y2705D01*
X7818Y2694D01*
X7821Y2683D01*
X7825Y2672D01*
X7829Y2661D01*
X7834Y2650D01*
X7840Y2639D01*
X7847Y2629D01*
X7854Y2618D01*
X7697D01*
X7704Y2629D01*
X7711Y2639D01*
X7717Y2650D01*
X7722Y2661D01*
X7726Y2672D01*
X7730Y2683D01*
X7733Y2694D01*
X7735Y2705D01*
X7736Y2717D01*
X7736Y2728D01*
X7815D01*
X7815Y2717D01*
D02*
G37*
G36*
X5000Y2458D02*
X5001Y2448D01*
X5003Y2439D01*
X5005Y2431D01*
X5007Y2425D01*
X5011Y2420D01*
X5014Y2416D01*
X5019Y2413D01*
X5024Y2411D01*
X5030Y2410D01*
X4962D01*
X4958Y2411D01*
X4954Y2413D01*
X4951Y2416D01*
X4948Y2420D01*
X4946Y2425D01*
X4944Y2431D01*
X4943Y2439D01*
X4942Y2448D01*
X4941Y2458D01*
X4941Y2469D01*
X5000D01*
X5000Y2458D01*
D02*
G37*
G36*
X4882D02*
X4880Y2439D01*
X4879Y2431D01*
X4877Y2425D01*
X4874Y2420D01*
X4872Y2416D01*
X4869Y2413D01*
X4865Y2411D01*
X4861Y2410D01*
X4793D01*
X4799Y2411D01*
X4804Y2413D01*
X4808Y2416D01*
X4812Y2420D01*
X4815Y2425D01*
X4818Y2431D01*
X4820Y2439D01*
X4822Y2448D01*
X4823Y2458D01*
X4823Y2469D01*
X4882D01*
X4882Y2458D01*
D02*
G37*
G36*
X1860Y2449D02*
X1854Y2443D01*
X1848Y2436D01*
X1844Y2428D01*
X1840Y2419D01*
X1836Y2410D01*
X1834Y2399D01*
X1832Y2388D01*
X1831Y2376D01*
X1831Y2363D01*
X1752D01*
X1752Y2376D01*
X1751Y2388D01*
X1749Y2399D01*
X1746Y2410D01*
X1743Y2419D01*
X1739Y2428D01*
X1734Y2436D01*
X1729Y2443D01*
X1723Y2449D01*
X1716Y2454D01*
X1867D01*
X1860Y2449D01*
D02*
G37*
G36*
X1969Y2090D02*
X1970Y2076D01*
X1972Y2064D01*
X1975Y2054D01*
X1978Y2045D01*
X1983Y2038D01*
X1988Y2032D01*
X1994Y2028D01*
X2000Y2026D01*
X2008Y2025D01*
X1850D01*
X1858Y2026D01*
X1865Y2028D01*
X1870Y2032D01*
X1876Y2038D01*
X1880Y2045D01*
X1883Y2054D01*
X1886Y2064D01*
X1888Y2076D01*
X1889Y2090D01*
X1890Y2105D01*
X1969D01*
X1969Y2090D01*
D02*
G37*
G36*
X9326Y2112D02*
X9319Y2103D01*
X9313Y2094D01*
X9307Y2084D01*
X9302Y2075D01*
X9298Y2065D01*
X9295Y2055D01*
X9293Y2044D01*
X9292Y2033D01*
X9291Y2023D01*
X9213D01*
X9212Y2033D01*
X9211Y2044D01*
X9209Y2055D01*
X9206Y2065D01*
X9202Y2075D01*
X9197Y2084D01*
X9191Y2094D01*
X9185Y2103D01*
X9178Y2112D01*
X9169Y2120D01*
X9335D01*
X9326Y2112D01*
D02*
G37*
G36*
X7185Y80D02*
X7041D01*
X6395Y726D01*
X6395Y726D01*
X6369Y743D01*
X6339Y750D01*
X3740D01*
X3709Y743D01*
X3683Y726D01*
X3038Y80D01*
X2894D01*
Y2343D01*
X4075D01*
Y1772D01*
X4236D01*
X4252Y1769D01*
X4267Y1772D01*
X5811D01*
X5827Y1769D01*
X5842Y1772D01*
X6004D01*
Y2343D01*
X7185D01*
Y80D01*
D02*
G37*
G36*
X9685Y1707D02*
X9687Y1693D01*
X9689Y1681D01*
X9691Y1670D01*
X9695Y1661D01*
X9699Y1654D01*
X9704Y1648D01*
X9710Y1644D01*
X9717Y1642D01*
X9724Y1641D01*
X9567D01*
X9575Y1642D01*
X9581Y1644D01*
X9587Y1648D01*
X9592Y1654D01*
X9597Y1661D01*
X9600Y1670D01*
X9603Y1681D01*
X9605Y1693D01*
X9606Y1707D01*
X9606Y1722D01*
X9685D01*
X9685Y1707D01*
D02*
G37*
G36*
X9292D02*
X9293Y1693D01*
X9295Y1681D01*
X9298Y1670D01*
X9301Y1661D01*
X9305Y1654D01*
X9311Y1648D01*
X9316Y1644D01*
X9323Y1642D01*
X9330Y1641D01*
X9173D01*
X9181Y1642D01*
X9188Y1644D01*
X9193Y1648D01*
X9199Y1654D01*
X9203Y1661D01*
X9206Y1670D01*
X9209Y1681D01*
X9211Y1693D01*
X9212Y1707D01*
X9213Y1722D01*
X9291D01*
X9292Y1707D01*
D02*
G37*
G36*
X9717Y1114D02*
X9710Y1111D01*
X9704Y1107D01*
X9699Y1102D01*
X9695Y1094D01*
X9691Y1086D01*
X9689Y1075D01*
X9687Y1063D01*
X9685Y1049D01*
X9685Y1034D01*
X9606D01*
X9606Y1049D01*
X9605Y1063D01*
X9603Y1075D01*
X9600Y1086D01*
X9597Y1094D01*
X9592Y1102D01*
X9587Y1107D01*
X9581Y1111D01*
X9575Y1114D01*
X9567Y1115D01*
X9724Y1115D01*
X9717Y1114D01*
D02*
G37*
G36*
X9323Y1114D02*
X9316Y1111D01*
X9311Y1107D01*
X9305Y1102D01*
X9301Y1094D01*
X9298Y1086D01*
X9295Y1075D01*
X9293Y1063D01*
X9292Y1049D01*
X9291Y1034D01*
X9213D01*
X9212Y1049D01*
X9211Y1063D01*
X9209Y1075D01*
X9206Y1086D01*
X9203Y1094D01*
X9199Y1102D01*
X9193Y1107D01*
X9188Y1111D01*
X9181Y1114D01*
X9173Y1115D01*
X9330D01*
X9323Y1114D01*
D02*
G37*
G36*
X8929Y1114D02*
X8923Y1111D01*
X8917Y1107D01*
X8912Y1102D01*
X8907Y1094D01*
X8904Y1086D01*
X8901Y1075D01*
X8899Y1063D01*
X8898Y1049D01*
X8898Y1034D01*
X8819D01*
X8819Y1049D01*
X8817Y1063D01*
X8815Y1075D01*
X8813Y1086D01*
X8809Y1094D01*
X8805Y1102D01*
X8800Y1107D01*
X8794Y1111D01*
X8787Y1114D01*
X8780Y1115D01*
X8937Y1115D01*
X8929Y1114D01*
D02*
G37*
G36*
X9685Y920D02*
X9687Y906D01*
X9689Y894D01*
X9691Y884D01*
X9695Y875D01*
X9699Y868D01*
X9704Y862D01*
X9710Y858D01*
X9717Y855D01*
X9724Y855D01*
X9567D01*
X9575Y855D01*
X9581Y858D01*
X9587Y862D01*
X9592Y868D01*
X9597Y875D01*
X9600Y884D01*
X9603Y894D01*
X9605Y906D01*
X9606Y920D01*
X9606Y935D01*
X9685D01*
X9685Y920D01*
D02*
G37*
G36*
X8898D02*
X8899Y906D01*
X8901Y894D01*
X8904Y884D01*
X8907Y875D01*
X8912Y868D01*
X8917Y862D01*
X8923Y858D01*
X8929Y855D01*
X8937Y855D01*
X8780D01*
X8787Y855D01*
X8794Y858D01*
X8800Y862D01*
X8805Y868D01*
X8809Y875D01*
X8813Y884D01*
X8815Y894D01*
X8817Y906D01*
X8819Y920D01*
X8819Y935D01*
X8898D01*
X8898Y920D01*
D02*
G37*
G36*
X9292D02*
X9293Y906D01*
X9295Y894D01*
X9298Y884D01*
X9301Y875D01*
X9305Y868D01*
X9311Y862D01*
X9316Y858D01*
X9323Y855D01*
X9330Y855D01*
X9173Y855D01*
X9181Y855D01*
X9188Y858D01*
X9193Y862D01*
X9199Y868D01*
X9203Y875D01*
X9206Y884D01*
X9209Y894D01*
X9211Y906D01*
X9212Y920D01*
X9213Y935D01*
X9291D01*
X9292Y920D01*
D02*
G37*
G36*
X9541Y337D02*
X9536Y344D01*
X9529Y350D01*
X9522Y356D01*
X9515Y360D01*
X9506Y364D01*
X9496Y367D01*
X9486Y370D01*
X9474Y372D01*
X9462Y373D01*
X9449Y373D01*
Y452D01*
X9462Y452D01*
X9474Y453D01*
X9486Y455D01*
X9496Y458D01*
X9506Y461D01*
X9515Y465D01*
X9522Y470D01*
X9529Y475D01*
X9536Y481D01*
X9541Y488D01*
Y337D01*
D02*
G37*
G36*
X9362Y481D02*
X9368Y475D01*
X9375Y470D01*
X9383Y465D01*
X9392Y461D01*
X9401Y458D01*
X9412Y455D01*
X9423Y453D01*
X9435Y452D01*
X9448Y452D01*
Y373D01*
X9435Y373D01*
X9423Y372D01*
X9412Y370D01*
X9401Y367D01*
X9392Y364D01*
X9383Y360D01*
X9375Y356D01*
X9368Y350D01*
X9362Y344D01*
X9357Y337D01*
Y488D01*
X9362Y481D01*
D02*
G37*
G36*
X9147Y337D02*
X9142Y344D01*
X9136Y350D01*
X9129Y356D01*
X9121Y360D01*
X9112Y364D01*
X9103Y367D01*
X9092Y370D01*
X9081Y372D01*
X9069Y373D01*
X9055Y373D01*
Y452D01*
X9069Y452D01*
X9081Y453D01*
X9092Y455D01*
X9103Y458D01*
X9112Y461D01*
X9121Y465D01*
X9129Y470D01*
X9136Y475D01*
X9142Y481D01*
X9147Y488D01*
Y337D01*
D02*
G37*
G36*
X8968Y481D02*
X8975Y475D01*
X8982Y470D01*
X8989Y465D01*
X8998Y461D01*
X9008Y458D01*
X9018Y455D01*
X9029Y453D01*
X9042Y452D01*
X9055Y452D01*
Y373D01*
X9042Y373D01*
X9029Y372D01*
X9018Y370D01*
X9008Y367D01*
X8998Y364D01*
X8989Y360D01*
X8982Y356D01*
X8975Y350D01*
X8968Y344D01*
X8963Y337D01*
Y488D01*
X8968Y481D01*
D02*
G37*
G36*
X8753Y337D02*
X8748Y344D01*
X8742Y350D01*
X8735Y356D01*
X8727Y360D01*
X8718Y364D01*
X8709Y367D01*
X8698Y370D01*
X8687Y372D01*
X8675Y373D01*
X8662Y373D01*
Y452D01*
X8675Y452D01*
X8687Y453D01*
X8698Y455D01*
X8709Y458D01*
X8718Y461D01*
X8727Y465D01*
X8735Y470D01*
X8742Y475D01*
X8748Y481D01*
X8753Y488D01*
Y337D01*
D02*
G37*
%LPC*%
G36*
X2165Y10652D02*
X1969D01*
X1897Y10643D01*
X1830Y10615D01*
X1772Y10571D01*
X1728Y10513D01*
X1700Y10446D01*
X1691Y10374D01*
X1700Y10302D01*
X1728Y10235D01*
X1772Y10177D01*
X1830Y10133D01*
X1897Y10106D01*
X1969Y10096D01*
X2165D01*
X2237Y10106D01*
X2304Y10133D01*
X2362Y10177D01*
X2406Y10235D01*
X2434Y10302D01*
X2443Y10374D01*
X2434Y10446D01*
X2406Y10513D01*
X2362Y10571D01*
X2304Y10615D01*
X2237Y10643D01*
X2165Y10652D01*
D02*
G37*
G36*
X539Y9732D02*
X442Y9719D01*
X351Y9681D01*
X273Y9621D01*
X213Y9543D01*
X175Y9452D01*
X162Y9354D01*
X175Y9257D01*
X213Y9166D01*
X273Y9088D01*
X351Y9028D01*
X442Y8990D01*
X539Y8977D01*
X637Y8990D01*
X728Y9028D01*
X806Y9088D01*
X866Y9166D01*
X904Y9257D01*
X917Y9354D01*
X904Y9452D01*
X866Y9543D01*
X806Y9621D01*
X728Y9681D01*
X637Y9719D01*
X539Y9732D01*
D02*
G37*
G36*
X9618Y4741D02*
Y4433D01*
X9926D01*
X9923Y4457D01*
X9883Y4553D01*
X9820Y4635D01*
X9738Y4698D01*
X9642Y4738D01*
X9618Y4741D01*
D02*
G37*
G36*
X9461Y4741D02*
X9437Y4738D01*
X9341Y4698D01*
X9259Y4635D01*
X9195Y4553D01*
X9156Y4457D01*
X9153Y4433D01*
X9461D01*
Y4741D01*
D02*
G37*
G36*
X9926Y4276D02*
X9618D01*
Y3968D01*
X9642Y3971D01*
X9738Y4010D01*
X9820Y4074D01*
X9883Y4156D01*
X9923Y4252D01*
X9926Y4276D01*
D02*
G37*
G36*
X6594Y4433D02*
X6518Y4418D01*
X6453Y4374D01*
X6409Y4309D01*
X6394Y4232D01*
X6409Y4155D01*
X6453Y4090D01*
X6518Y4047D01*
X6594Y4032D01*
X6604Y4034D01*
X6609Y4033D01*
X6614Y4032D01*
X6618Y4031D01*
X6622Y4030D01*
X6626Y4028D01*
X6629Y4027D01*
X6632Y4024D01*
X6706Y3950D01*
X6745Y3924D01*
X6791Y3915D01*
X6791Y3915D01*
X7110D01*
X7114Y3914D01*
X7117Y3913D01*
X7121Y3912D01*
X7125Y3910D01*
X7129Y3908D01*
X7133Y3905D01*
X7136Y3902D01*
X7142Y3894D01*
X7207Y3850D01*
X7283Y3835D01*
X7360Y3850D01*
X7425Y3894D01*
X7469Y3959D01*
X7484Y4035D01*
X7469Y4112D01*
X7425Y4177D01*
X7360Y4221D01*
X7283Y4236D01*
X7207Y4221D01*
X7142Y4177D01*
X7136Y4169D01*
X7133Y4166D01*
X7129Y4163D01*
X7125Y4161D01*
X7121Y4159D01*
X7117Y4158D01*
X7114Y4157D01*
X7110Y4156D01*
X6841D01*
X6802Y4195D01*
X6800Y4198D01*
X6798Y4201D01*
X6797Y4205D01*
X6796Y4209D01*
X6794Y4213D01*
X6794Y4218D01*
X6793Y4222D01*
X6795Y4232D01*
X6780Y4309D01*
X6736Y4374D01*
X6671Y4418D01*
X6594Y4433D01*
D02*
G37*
G36*
X2879Y3152D02*
X2874D01*
Y2992D01*
X3004D01*
Y3027D01*
X2995Y3075D01*
X2968Y3115D01*
X2927Y3142D01*
X2879Y3152D01*
D02*
G37*
G36*
X7244Y3012D02*
X7067D01*
Y2835D01*
X7244D01*
Y3012D01*
D02*
G37*
G36*
X6909D02*
X6732D01*
Y2835D01*
X6909D01*
Y3012D01*
D02*
G37*
G36*
X3004Y2913D02*
X2874D01*
Y2754D01*
X2879D01*
X2927Y2763D01*
X2968Y2790D01*
X2995Y2831D01*
X3004Y2879D01*
Y2913D01*
D02*
G37*
G36*
X7244Y2677D02*
X7067D01*
Y2500D01*
X7244D01*
Y2677D01*
D02*
G37*
G36*
X6909D02*
X6732D01*
Y2500D01*
X6909D01*
Y2677D01*
D02*
G37*
G36*
X1378Y1737D02*
X1293Y1720D01*
X1222Y1672D01*
X1174Y1600D01*
X1157Y1516D01*
X1174Y1431D01*
X1222Y1360D01*
X1293Y1312D01*
X1378Y1295D01*
X1462Y1312D01*
X1534Y1360D01*
X1582Y1431D01*
X1599Y1516D01*
X1582Y1600D01*
X1534Y1672D01*
X1462Y1720D01*
X1378Y1737D01*
D02*
G37*
G36*
Y1067D02*
X1293Y1050D01*
X1222Y1003D01*
X1174Y931D01*
X1157Y846D01*
X1174Y762D01*
X1222Y690D01*
X1293Y642D01*
X1378Y626D01*
X1462Y642D01*
X1534Y690D01*
X1582Y762D01*
X1599Y846D01*
X1582Y931D01*
X1534Y1003D01*
X1462Y1050D01*
X1378Y1067D01*
D02*
G37*
G36*
X2185Y787D02*
X2008D01*
Y591D01*
X2185D01*
Y787D01*
D02*
G37*
G36*
X1850D02*
X1673D01*
Y591D01*
X1850D01*
Y787D01*
D02*
G37*
G36*
X2185Y433D02*
X2008D01*
Y236D01*
X2185D01*
Y433D01*
D02*
G37*
G36*
X1850D02*
X1673D01*
Y236D01*
X1850D01*
Y433D01*
D02*
G37*
%LPD*%
G36*
X6713Y4219D02*
X6714Y4208D01*
X6716Y4197D01*
X6718Y4186D01*
X6722Y4176D01*
X6726Y4166D01*
X6731Y4157D01*
X6737Y4148D01*
X6744Y4139D01*
X6751Y4131D01*
X6696Y4076D01*
X6687Y4083D01*
X6679Y4090D01*
X6670Y4096D01*
X6661Y4101D01*
X6651Y4105D01*
X6641Y4108D01*
X6630Y4111D01*
X6619Y4113D01*
X6608Y4114D01*
X6596Y4114D01*
X6713Y4231D01*
X6713Y4219D01*
D02*
G37*
G36*
X7199Y3953D02*
X7190Y3961D01*
X7182Y3968D01*
X7172Y3975D01*
X7163Y3980D01*
X7153Y3985D01*
X7144Y3989D01*
X7133Y3992D01*
X7123Y3994D01*
X7112Y3996D01*
X7101Y3996D01*
Y4075D01*
X7112Y4075D01*
X7123Y4077D01*
X7133Y4079D01*
X7144Y4082D01*
X7153Y4086D01*
X7163Y4090D01*
X7172Y4096D01*
X7182Y4103D01*
X7190Y4110D01*
X7199Y4118D01*
Y3953D01*
D02*
G37*
%LPC*%
G36*
X4702Y3764D02*
X4699Y3761D01*
X4702Y3761D01*
Y3764D01*
D02*
G37*
%LPD*%
D10*
X5807Y3150D02*
Y4164D01*
X5925Y3101D02*
Y4213D01*
X5492Y5374D02*
X5630Y5512D01*
X5286Y5374D02*
X5492D01*
X5079Y4892D02*
X5807Y4164D01*
X5079Y4892D02*
Y5167D01*
X5286Y5374D01*
X4852Y2402D02*
Y2657D01*
X4783Y2333D02*
X4852Y2402D01*
X4783Y2146D02*
Y2333D01*
X5492Y5256D02*
X5630Y5118D01*
X5335Y5256D02*
X5492D01*
X5197Y4941D02*
X5925Y4213D01*
X5197Y4941D02*
Y5118D01*
X5335Y5256D01*
X4970Y2402D02*
X5039Y2333D01*
X4970Y2402D02*
Y2608D01*
X5039Y2146D02*
Y2333D01*
X4852Y2657D02*
X5049Y2854D01*
X4970Y2608D02*
X5098Y2736D01*
X5561D01*
X5049Y2854D02*
X5512D01*
X5561Y2736D02*
X5925Y3101D01*
X5512Y2854D02*
X5807Y3150D01*
D11*
X1575Y8012D02*
Y8583D01*
Y6496D02*
Y8012D01*
X2165D01*
X1378Y8780D02*
X1575Y8583D01*
X1378Y8780D02*
Y9516D01*
X4823Y6791D02*
X5354Y7323D01*
X6654D01*
X6732Y7244D02*
X7008D01*
X6654Y7323D02*
X6732Y7244D01*
X7126Y7362D02*
X7185Y7421D01*
X7126Y7362D02*
Y7362D01*
X7008Y7244D02*
X7126Y7362D01*
X6417Y7480D02*
X7087Y8150D01*
X3543Y5827D02*
X5197Y7480D01*
X6417D01*
X6358Y7638D02*
X6890Y8169D01*
X3346Y5866D02*
X5118Y7638D01*
X6358D01*
X2894Y5650D02*
X5157Y7913D01*
X5551D02*
X5807Y8169D01*
X5157Y7913D02*
X5551D01*
X3248Y6240D02*
X5177Y8169D01*
X5413D01*
X3740Y5709D02*
X4823Y6791D01*
X3740Y4134D02*
Y5709D01*
X3543Y4173D02*
Y5827D01*
X3346Y4213D02*
Y5866D01*
X2165Y5650D02*
X2894D01*
X2165Y6240D02*
X3248D01*
X9094Y2717D02*
X9646Y2165D01*
X9094Y2717D02*
Y3780D01*
X9213Y3898D01*
X6791Y4035D02*
X7283D01*
X7776Y3150D02*
X7776Y3150D01*
Y2559D02*
Y3150D01*
X4528Y3720D02*
X5020D01*
X2146Y2953D02*
X2146Y2953D01*
X2480D01*
X7185Y8012D02*
X7874D01*
X6890Y7717D02*
X7185Y8012D01*
X6890Y7480D02*
Y7717D01*
X7185Y7421D02*
X7874D01*
X7382Y10965D02*
X7874D01*
X6693Y10276D02*
X7382Y10965D01*
X6693Y8366D02*
Y10276D01*
X6201Y7874D02*
X6693Y8366D01*
X539Y3354D02*
X1173D01*
X1575Y2953D01*
X1791D01*
Y2323D02*
Y2559D01*
Y2323D02*
X1929Y2185D01*
Y1850D02*
Y2185D01*
X2126Y3504D02*
X3071D01*
X1535D02*
X2126D01*
X2146Y3484D01*
Y2953D02*
Y3484D01*
Y2559D02*
Y2953D01*
X1260Y3780D02*
X1535Y3504D01*
X1673Y3740D02*
X3346D01*
X1059Y4354D02*
X1673Y3740D01*
X1713Y3898D02*
X3268D01*
X1280Y4331D02*
X1713Y3898D01*
X1752Y4055D02*
X3189D01*
X1476Y4331D02*
X1752Y4055D01*
X3189D02*
X3346Y4213D01*
X3268Y3898D02*
X3543Y4173D01*
X3346Y3740D02*
X3740Y4134D01*
X7874Y8602D02*
X8465D01*
X9094Y8740D02*
Y9909D01*
X8465Y8110D02*
X9094Y8740D01*
X8465Y6969D02*
Y8110D01*
X9539Y8949D02*
Y9354D01*
X8622Y8031D02*
X9539Y8949D01*
X8622Y6535D02*
Y8031D01*
X7874Y9193D02*
X8465D01*
X9094Y9909D02*
X9539Y10354D01*
X8327Y6831D02*
X8465Y6969D01*
X8327Y6240D02*
X8622Y6535D01*
X7874Y6240D02*
X8327D01*
X7874Y6831D02*
X8327D01*
X8858Y6035D02*
Y7795D01*
Y6035D02*
X9539Y5354D01*
X9134Y6760D02*
X9539Y6354D01*
X9134Y6760D02*
Y7992D01*
X9252Y2205D02*
X9252Y2205D01*
X9252Y1555D02*
Y2205D01*
X5591Y5787D02*
X6594Y6791D01*
X5394Y5787D02*
X5591D01*
X7087Y8150D02*
Y9587D01*
X4882Y5276D02*
X5394Y5787D01*
X4882Y4803D02*
Y5276D01*
Y4803D02*
X5591Y4094D01*
Y3819D02*
Y4094D01*
X5394Y3622D02*
X5591Y3819D01*
X5118Y3622D02*
X5394D01*
X5020Y3720D02*
X5118Y3622D01*
X3740Y4134D02*
X5098D01*
X5315Y3917D01*
X2165Y7421D02*
X2756D01*
X2165Y6831D02*
X2756D01*
X6594Y4232D02*
X6791Y4035D01*
X9646Y1555D02*
Y2165D01*
Y1201D02*
X9646Y1201D01*
Y769D02*
Y1201D01*
X9252Y769D02*
X9252Y769D01*
X9252Y769D02*
Y1201D01*
X8858D02*
X8858Y1201D01*
Y769D02*
Y1201D01*
X8563Y492D02*
Y2854D01*
Y492D02*
X8643Y413D01*
X8858D01*
X9252D02*
X9646D01*
X8858D02*
X9252D01*
X539Y4354D02*
X1059D01*
X1280Y4331D02*
Y4614D01*
X1476Y4331D02*
Y4823D01*
X6890Y8169D02*
Y9941D01*
X7323Y10374D01*
X7087Y9587D02*
X7283Y9783D01*
X7323Y10374D02*
X7874D01*
X7283Y9783D02*
X7874D01*
X539Y8354D02*
X1083Y7811D01*
Y6201D02*
Y7811D01*
Y6201D02*
X1378Y5906D01*
Y5217D02*
Y5906D01*
Y5217D02*
X1535Y5059D01*
X2165D01*
X1181Y5118D02*
X1476Y4823D01*
X1181Y5118D02*
Y5713D01*
X539Y6354D02*
X1181Y5713D01*
X539Y5354D02*
X1280Y4614D01*
X539Y10354D02*
X1378Y9516D01*
D12*
X4173Y7795D02*
X4331D01*
X3937Y7559D02*
X4173Y7795D01*
X3937Y7283D02*
Y7559D01*
D31*
X1791Y2953D02*
D03*
X2146D02*
D03*
X2835Y2953D02*
D03*
X2480D02*
D03*
X2146Y2559D02*
D03*
X1791D02*
D03*
D32*
X6988Y2756D02*
D03*
D33*
X4783Y2146D02*
D03*
X5039D02*
D03*
X5551D02*
D03*
X5295D02*
D03*
X4528D02*
D03*
D34*
X7776Y2559D02*
D03*
X5020Y3720D02*
D03*
D35*
X8169Y3720D02*
D03*
Y3366D02*
D03*
X8563Y3720D02*
D03*
Y3366D02*
D03*
X9646Y413D02*
D03*
Y769D02*
D03*
X8858Y413D02*
D03*
Y769D02*
D03*
X9252Y413D02*
D03*
Y769D02*
D03*
X7776Y3366D02*
D03*
Y3720D02*
D03*
X9646Y1201D02*
D03*
Y1555D02*
D03*
X9252Y1201D02*
D03*
Y1555D02*
D03*
X8858Y1201D02*
D03*
Y1555D02*
D03*
D36*
X2165Y5059D02*
D03*
Y5650D02*
D03*
Y6240D02*
D03*
Y6831D02*
D03*
Y7421D02*
D03*
Y8012D02*
D03*
Y8602D02*
D03*
X7874Y10965D02*
D03*
Y10374D02*
D03*
X2165Y10965D02*
D03*
Y9783D02*
D03*
Y4469D02*
D03*
X7874D02*
D03*
Y5059D02*
D03*
Y5650D02*
D03*
Y6240D02*
D03*
Y6831D02*
D03*
Y7421D02*
D03*
Y8012D02*
D03*
Y8602D02*
D03*
Y9193D02*
D03*
Y9783D02*
D03*
D37*
X2067Y10374D02*
D03*
D38*
X1142Y2087D02*
D03*
Y276D02*
D03*
D39*
X1929Y512D02*
D03*
Y1850D02*
D03*
D40*
X4035Y3169D02*
D03*
Y3720D02*
D03*
X4528D02*
D03*
Y3169D02*
D03*
D41*
X2480Y2067D02*
D03*
X3031D02*
D03*
Y1575D02*
D03*
X2480D02*
D03*
D42*
X3701Y1083D02*
D03*
X6378D02*
D03*
D43*
X3760Y2067D02*
D03*
X6319D02*
D03*
D44*
X4823Y3425D02*
X5551D01*
X4528Y3720D02*
X4823Y3425D01*
X4528Y2146D02*
Y3169D01*
X3642Y3642D02*
X3720Y3720D01*
X4035D01*
X4528D01*
X6988Y6043D02*
Y6791D01*
Y6043D02*
X7382Y5650D01*
X7874D01*
X8563Y2854D02*
X8760D01*
X8268D02*
X8563D01*
X7874Y5650D02*
X8425D01*
X8858Y5217D01*
Y2953D02*
Y5217D01*
X8760Y2854D02*
X8858Y2953D01*
X8169Y2953D02*
X8268Y2854D01*
X8169Y2953D02*
Y3366D01*
X7776Y3150D02*
Y3366D01*
X8563Y3150D02*
X8563Y3150D01*
X8563Y3150D02*
Y3366D01*
X9531Y3346D02*
X9539Y3354D01*
X7776Y3366D02*
X8169D01*
Y3720D02*
X8563D01*
Y4921D01*
X8425Y5059D02*
X8563Y4921D01*
X7874Y5059D02*
X8425D01*
D45*
X1378Y846D02*
D03*
Y1516D02*
D03*
D46*
X539Y8354D02*
D03*
Y4354D02*
D03*
Y5354D02*
D03*
Y6354D02*
D03*
Y7354D02*
D03*
Y9354D02*
D03*
Y10354D02*
D03*
X9539Y8354D02*
D03*
Y4354D02*
D03*
Y5354D02*
D03*
Y6354D02*
D03*
Y7354D02*
D03*
Y9354D02*
D03*
Y10354D02*
D03*
D47*
X539Y3354D02*
D03*
X9539D02*
D03*
D48*
X2362Y492D02*
D03*
X7874Y886D02*
D03*
Y2264D02*
D03*
Y1575D02*
D03*
X197Y9941D02*
D03*
Y8858D02*
D03*
Y7776D02*
D03*
Y6791D02*
D03*
Y5807D02*
D03*
Y4823D02*
D03*
Y3937D02*
D03*
X787Y2559D02*
D03*
X1476D02*
D03*
X2756D02*
D03*
X7480Y1969D02*
D03*
Y1280D02*
D03*
X8268Y591D02*
D03*
Y1280D02*
D03*
X8858Y2559D02*
D03*
Y1969D02*
D03*
X8268D02*
D03*
Y2559D02*
D03*
X9646Y2756D02*
D03*
X8268Y4331D02*
D03*
Y4724D02*
D03*
X9252Y4823D02*
D03*
X8563Y6004D02*
D03*
X8465Y10630D02*
D03*
Y9646D02*
D03*
X9843Y9843D02*
D03*
Y8858D02*
D03*
Y7874D02*
D03*
Y6791D02*
D03*
X5413Y8563D02*
D03*
X3839Y7972D02*
D03*
X4626Y8071D02*
D03*
X2657Y10433D02*
D03*
X2165Y9154D02*
D03*
X2854Y7972D02*
D03*
X6791Y10827D02*
D03*
X6398Y8661D02*
D03*
Y9449D02*
D03*
Y10236D02*
D03*
X8957Y11319D02*
D03*
X9744D02*
D03*
X7382D02*
D03*
X8268D02*
D03*
X5807D02*
D03*
X6594D02*
D03*
X4232D02*
D03*
X5020D02*
D03*
X2657D02*
D03*
X3445D02*
D03*
X1870D02*
D03*
X1083D02*
D03*
X295D02*
D03*
X1083Y10335D02*
D03*
X1378Y9941D02*
D03*
X1673Y8858D02*
D03*
X1083D02*
D03*
X2874Y5079D02*
D03*
X1870Y1181D02*
D03*
X295Y2756D02*
D03*
X1083Y1181D02*
D03*
X2657Y197D02*
D03*
X2461Y1181D02*
D03*
Y2559D02*
D03*
X2362Y3248D02*
D03*
X3445Y3346D02*
D03*
X3740Y3051D02*
D03*
X6398Y3543D02*
D03*
X7382Y3642D02*
D03*
X6496Y2854D02*
D03*
X5748Y4803D02*
D03*
X6201Y4232D02*
D03*
X7283Y7087D02*
D03*
X5413Y6791D02*
D03*
X6201D02*
D03*
X5807D02*
D03*
X4823D02*
D03*
X4331Y7795D02*
D03*
X9213Y3898D02*
D03*
X7283Y4035D02*
D03*
X5551Y3425D02*
D03*
X5630Y5512D02*
D03*
Y5118D02*
D03*
X3642Y3642D02*
D03*
X6988Y6791D02*
D03*
X3937Y7283D02*
D03*
X6890Y7480D02*
D03*
X3071Y3504D02*
D03*
X1260Y3780D02*
D03*
X8465Y8602D02*
D03*
Y9193D02*
D03*
X9134Y7992D02*
D03*
X8858Y7795D02*
D03*
X6201Y7874D02*
D03*
X9252Y2205D02*
D03*
X6594Y6791D02*
D03*
X5315Y3917D02*
D03*
X2756Y7421D02*
D03*
Y6831D02*
D03*
X6594Y4232D02*
D03*
X1575Y6496D02*
D03*
X5413Y8169D02*
D03*
X5807D02*
D03*
X8563Y3150D02*
D03*
X7776D02*
D03*
X4134Y5118D02*
D03*
X3976Y5335D02*
D03*
X4291D02*
D03*
Y4902D02*
D03*
X3976D02*
D03*
X6693Y5118D02*
D03*
X6496Y5315D02*
D03*
X6890D02*
D03*
Y4921D02*
D03*
X6496D02*
D03*
M02*
