G04*
G04 #@! TF.GenerationSoftware,Altium Limited,Altium Designer,19.1.9 (167)*
G04*
G04 Layer_Color=16711935*
%FSLAX24Y24*%
%MOIN*%
G70*
G01*
G75*
G04:AMPARAMS|DCode=13|XSize=25.6mil|YSize=19.7mil|CornerRadius=5.4mil|HoleSize=0mil|Usage=FLASHONLY|Rotation=270.000|XOffset=0mil|YOffset=0mil|HoleType=Round|Shape=RoundedRectangle|*
%AMROUNDEDRECTD13*
21,1,0.0256,0.0089,0,0,270.0*
21,1,0.0148,0.0197,0,0,270.0*
1,1,0.0108,-0.0044,-0.0074*
1,1,0.0108,-0.0044,0.0074*
1,1,0.0108,0.0044,0.0074*
1,1,0.0108,0.0044,-0.0074*
%
%ADD13ROUNDEDRECTD13*%
%ADD14R,0.0335X0.0335*%
G04:AMPARAMS|DCode=17|XSize=25.6mil|YSize=19.7mil|CornerRadius=5.4mil|HoleSize=0mil|Usage=FLASHONLY|Rotation=180.000|XOffset=0mil|YOffset=0mil|HoleType=Round|Shape=RoundedRectangle|*
%AMROUNDEDRECTD17*
21,1,0.0256,0.0089,0,0,180.0*
21,1,0.0148,0.0197,0,0,180.0*
1,1,0.0108,-0.0074,0.0044*
1,1,0.0108,0.0074,0.0044*
1,1,0.0108,0.0074,-0.0044*
1,1,0.0108,-0.0074,-0.0044*
%
%ADD17ROUNDEDRECTD17*%
%ADD27C,0.0059*%
%ADD28C,0.0020*%
%ADD29C,0.0610*%
%ADD30R,0.0610X0.0610*%
G04:AMPARAMS|DCode=59|XSize=27.6mil|YSize=21.7mil|CornerRadius=6.4mil|HoleSize=0mil|Usage=FLASHONLY|Rotation=90.000|XOffset=0mil|YOffset=0mil|HoleType=Round|Shape=RoundedRectangle|*
%AMROUNDEDRECTD59*
21,1,0.0276,0.0089,0,0,90.0*
21,1,0.0148,0.0217,0,0,90.0*
1,1,0.0128,0.0044,0.0074*
1,1,0.0128,0.0044,-0.0074*
1,1,0.0128,-0.0044,-0.0074*
1,1,0.0128,-0.0044,0.0074*
%
%ADD59ROUNDEDRECTD59*%
%ADD60R,0.0728X0.0728*%
G04:AMPARAMS|DCode=61|XSize=13.8mil|YSize=29.5mil|CornerRadius=3.9mil|HoleSize=0mil|Usage=FLASHONLY|Rotation=0.000|XOffset=0mil|YOffset=0mil|HoleType=Round|Shape=RoundedRectangle|*
%AMROUNDEDRECTD61*
21,1,0.0138,0.0217,0,0,0.0*
21,1,0.0059,0.0295,0,0,0.0*
1,1,0.0079,0.0030,-0.0108*
1,1,0.0079,-0.0030,-0.0108*
1,1,0.0079,-0.0030,0.0108*
1,1,0.0079,0.0030,0.0108*
%
%ADD61ROUNDEDRECTD61*%
G04:AMPARAMS|DCode=62|XSize=15.7mil|YSize=15.7mil|CornerRadius=4.4mil|HoleSize=0mil|Usage=FLASHONLY|Rotation=0.000|XOffset=0mil|YOffset=0mil|HoleType=Round|Shape=RoundedRectangle|*
%AMROUNDEDRECTD62*
21,1,0.0157,0.0069,0,0,0.0*
21,1,0.0069,0.0157,0,0,0.0*
1,1,0.0089,0.0034,-0.0034*
1,1,0.0089,-0.0034,-0.0034*
1,1,0.0089,-0.0034,0.0034*
1,1,0.0089,0.0034,0.0034*
%
%ADD62ROUNDEDRECTD62*%
G04:AMPARAMS|DCode=63|XSize=13.8mil|YSize=29.5mil|CornerRadius=3.9mil|HoleSize=0mil|Usage=FLASHONLY|Rotation=270.000|XOffset=0mil|YOffset=0mil|HoleType=Round|Shape=RoundedRectangle|*
%AMROUNDEDRECTD63*
21,1,0.0138,0.0217,0,0,270.0*
21,1,0.0059,0.0295,0,0,270.0*
1,1,0.0079,-0.0108,-0.0030*
1,1,0.0079,-0.0108,0.0030*
1,1,0.0079,0.0108,0.0030*
1,1,0.0079,0.0108,-0.0030*
%
%ADD63ROUNDEDRECTD63*%
G04:AMPARAMS|DCode=64|XSize=15.7mil|YSize=15.7mil|CornerRadius=4.4mil|HoleSize=0mil|Usage=FLASHONLY|Rotation=270.000|XOffset=0mil|YOffset=0mil|HoleType=Round|Shape=RoundedRectangle|*
%AMROUNDEDRECTD64*
21,1,0.0157,0.0069,0,0,270.0*
21,1,0.0069,0.0157,0,0,270.0*
1,1,0.0089,-0.0034,-0.0034*
1,1,0.0089,-0.0034,0.0034*
1,1,0.0089,0.0034,0.0034*
1,1,0.0089,0.0034,-0.0034*
%
%ADD64ROUNDEDRECTD64*%
%ADD65R,0.0110X0.0344*%
%ADD66R,0.0610X0.0709*%
G04:AMPARAMS|DCode=67|XSize=14.2mil|YSize=25.6mil|CornerRadius=4mil|HoleSize=0mil|Usage=FLASHONLY|Rotation=270.000|XOffset=0mil|YOffset=0mil|HoleType=Round|Shape=RoundedRectangle|*
%AMROUNDEDRECTD67*
21,1,0.0142,0.0175,0,0,270.0*
21,1,0.0061,0.0256,0,0,270.0*
1,1,0.0081,-0.0088,-0.0031*
1,1,0.0081,-0.0088,0.0031*
1,1,0.0081,0.0088,0.0031*
1,1,0.0081,0.0088,-0.0031*
%
%ADD67ROUNDEDRECTD67*%
%ADD68R,0.0118X0.0453*%
%ADD69R,0.0689X0.0610*%
D13*
X3957Y4035D02*
D03*
X4311D02*
D03*
D14*
X7874Y492D02*
D03*
D17*
X5807Y7854D02*
D03*
Y7500D02*
D03*
X5413Y7854D02*
D03*
Y7500D02*
D03*
X4823Y6220D02*
D03*
Y6575D02*
D03*
X3248Y6969D02*
D03*
Y6614D02*
D03*
X3642Y6969D02*
D03*
Y6614D02*
D03*
X2657Y4902D02*
D03*
Y4547D02*
D03*
X3051Y4902D02*
D03*
Y4547D02*
D03*
X2264Y4902D02*
D03*
Y4547D02*
D03*
Y5689D02*
D03*
Y5335D02*
D03*
X6594Y6575D02*
D03*
Y6220D02*
D03*
X6201Y6575D02*
D03*
Y6220D02*
D03*
X6988Y3917D02*
D03*
Y3563D02*
D03*
X8169Y6220D02*
D03*
Y6575D02*
D03*
X5807Y6575D02*
D03*
Y6220D02*
D03*
X5413Y6575D02*
D03*
Y6220D02*
D03*
X6988Y6220D02*
D03*
Y6575D02*
D03*
X7382Y6220D02*
D03*
Y6575D02*
D03*
X7776D02*
D03*
Y6220D02*
D03*
D27*
X1378Y846D02*
D03*
Y1516D02*
D03*
D28*
X5827Y1929D02*
D03*
X4252D02*
D03*
D29*
X539Y8354D02*
D03*
Y4354D02*
D03*
Y5354D02*
D03*
Y6354D02*
D03*
Y7354D02*
D03*
Y9354D02*
D03*
Y10354D02*
D03*
X9539Y8354D02*
D03*
Y4354D02*
D03*
Y5354D02*
D03*
Y6354D02*
D03*
Y7354D02*
D03*
Y9354D02*
D03*
Y10354D02*
D03*
D30*
X539Y3354D02*
D03*
X9539D02*
D03*
D59*
X3956Y3642D02*
D03*
X4312D02*
D03*
D60*
X6693Y5118D02*
D03*
D61*
X6398Y4547D02*
D03*
X6594D02*
D03*
X6791D02*
D03*
X6988D02*
D03*
Y5689D02*
D03*
X6791D02*
D03*
X6594D02*
D03*
X6398D02*
D03*
D62*
X7185Y4626D02*
D03*
D63*
X7264Y4823D02*
D03*
Y5020D02*
D03*
Y5217D02*
D03*
Y5413D02*
D03*
X6122D02*
D03*
Y5217D02*
D03*
Y5020D02*
D03*
Y4823D02*
D03*
D64*
X7185Y5610D02*
D03*
X6201D02*
D03*
Y4626D02*
D03*
D65*
X4006Y5610D02*
D03*
X4262D02*
D03*
X4006Y4626D02*
D03*
X4262D02*
D03*
D66*
X4134Y5118D02*
D03*
D67*
X3583Y4734D02*
D03*
Y4990D02*
D03*
Y5246D02*
D03*
Y5502D02*
D03*
X4685D02*
D03*
Y5246D02*
D03*
Y4734D02*
D03*
Y4990D02*
D03*
D68*
X5925Y2736D02*
D03*
X5728D02*
D03*
X5531D02*
D03*
X5335D02*
D03*
X5138D02*
D03*
X4941D02*
D03*
X4744D02*
D03*
X4547D02*
D03*
X4154D02*
D03*
X4350D02*
D03*
D69*
X3169Y1161D02*
D03*
X6909D02*
D03*
M02*
